<svg xmlns="http://www.w3.org/2000/svg" width="17" height="16" viewBox="0 0 17 16">
  <metadata><?xpacket begin="﻿" id="W5M0MpCehiHzreSzNTczkc9d"?>
<x:xmpmeta xmlns:x="adobe:ns:meta/" x:xmptk="Adobe XMP Core 5.6-c138 79.159824, 2016/09/14-01:09:01        ">
   <rdf:RDF xmlns:rdf="http://www.w3.org/1999/02/22-rdf-syntax-ns#">
      <rdf:Description rdf:about=""/>
   </rdf:RDF>
</x:xmpmeta>
                                                                                                    
                                                                                                    
                                                                                                    
                                                                                                    
                                                                                                    
                                                                                                    
                                                                                                    
                                                                                                    
                                                                                                    
                                                                                                    
                                                                                                    
                                                                                                    
                                                                                                    
                                                                                                    
                                                                                                    
                                                                                                    
                                                                                                    
                                                                                                    
                                                                                                    
                                                                                                    
                           
<?xpacket end="w"?></metadata>
<defs>
    <style>
      .cls-1 {
        fill: #414141;
        fill-rule: evenodd;
      }
    </style>
  </defs>
  <path id="Forma_1" data-name="Forma 1" class="cls-1" d="M1007,1219.37a7.25,7.25,0,0,0-7.118-7.37,0.457,0.457,0,0,0-.448.46v6.44h-5.81a2.811,2.811,0,0,0-2.747-2.41h-0.045a0.907,0.907,0,0,0,.045,1.81,0.864,0.864,0,0,0,.8-0.53l1.018,1.06a2.018,2.018,0,0,1,.074.54,7.484,7.484,0,0,0,1.166,4.03,2.943,2.943,0,0,0-.55,1.72,2.834,2.834,0,0,0,2.783,2.88,2.761,2.761,0,0,0,2.384-1.4,6.533,6.533,0,0,0,1.334.13,7.2,7.2,0,0,0,1.318-.12,2.782,2.782,0,0,0,2.38,1.39,2.837,2.837,0,0,0,2.79-2.88,2.947,2.947,0,0,0-.54-1.71A7.5,7.5,0,0,0,1007,1219.37Zm-7.118,6.44a5.486,5.486,0,0,1-1-.09,2.905,2.905,0,0,0,.062-0.6,2.835,2.835,0,0,0-2.783-2.88,2.705,2.705,0,0,0-1.576.51,6.591,6.591,0,0,1-.911-2.92h12.413a6.56,6.56,0,0,1-.92,2.92,2.739,2.739,0,0,0-1.59-.51,2.835,2.835,0,0,0-2.78,2.88,3.078,3.078,0,0,0,.06.61A6.265,6.265,0,0,1,999.882,1225.81Z" transform="translate(-990 -1212)"/>
</svg>
