<svg xmlns="http://www.w3.org/2000/svg" width="13" height="20" viewBox="0 0 13 20">
  <metadata><?xpacket begin="﻿" id="W5M0MpCehiHzreSzNTczkc9d"?>
<x:xmpmeta xmlns:x="adobe:ns:meta/" x:xmptk="Adobe XMP Core 5.6-c138 79.159824, 2016/09/14-01:09:01        ">
   <rdf:RDF xmlns:rdf="http://www.w3.org/1999/02/22-rdf-syntax-ns#">
      <rdf:Description rdf:about=""/>
   </rdf:RDF>
</x:xmpmeta>
                                                                                                    
                                                                                                    
                                                                                                    
                                                                                                    
                                                                                                    
                                                                                                    
                                                                                                    
                                                                                                    
                                                                                                    
                                                                                                    
                                                                                                    
                                                                                                    
                                                                                                    
                                                                                                    
                                                                                                    
                                                                                                    
                                                                                                    
                                                                                                    
                                                                                                    
                                                                                                    
                           
<?xpacket end="w"?></metadata>
<defs>
    <style>
      .cls-1 {
        fill: #414141;
        fill-rule: evenodd;
      }
    </style>
  </defs>
  <path class="cls-1" d="M1003.56,1169.38v-1.71a1.626,1.626,0,1,0-3.25,0v1.66h-4.466a2.886,2.886,0,0,0-2.844,2.92v10.83a2.886,2.886,0,0,0,2.844,2.92h7.316a2.888,2.888,0,0,0,2.84-2.92v-10.83A2.875,2.875,0,0,0,1003.56,1169.38Zm-8.123,4.12a1.651,1.651,0,0,1,1.625-1.67h4.878a1.65,1.65,0,0,1,1.62,1.67v2.5a1.65,1.65,0,0,1-1.62,1.67h-4.878a1.651,1.651,0,0,1-1.625-1.67v-2.5h0Zm6.5,6.25a0.414,0.414,0,0,1-.41.42h-4.061a0.42,0.42,0,0,1,0-.84h4.061A0.414,0.414,0,0,1,1001.94,1179.75Zm-6.5,4.58a0.83,0.83,0,1,1,.813-0.83A0.82,0.82,0,0,1,995.437,1184.33Zm6.093-.83h-4.061a0.415,0.415,0,0,1-.407-0.42,0.406,0.406,0,0,1,.407-0.41h4.061a0.406,0.406,0,0,1,.41.41A0.414,0.414,0,0,1,1001.53,1183.5Zm0.81-1.67h-5.684a0.406,0.406,0,0,1-.406-0.41,0.415,0.415,0,0,1,.406-0.42h5.684a0.414,0.414,0,0,1,.41.42A0.406,0.406,0,0,1,1002.34,1181.83Zm1.22,2.5a0.83,0.83,0,1,1,.81-0.83A0.817,0.817,0,0,1,1003.56,1184.33Z" transform="translate(-993 -1166)"/>
</svg>
