<svg xmlns="http://www.w3.org/2000/svg" width="19" height="20" viewBox="0 0 19 20">
  <metadata><?xpacket begin="﻿" id="W5M0MpCehiHzreSzNTczkc9d"?>
<x:xmpmeta xmlns:x="adobe:ns:meta/" x:xmptk="Adobe XMP Core 5.6-c138 79.159824, 2016/09/14-01:09:01        ">
   <rdf:RDF xmlns:rdf="http://www.w3.org/1999/02/22-rdf-syntax-ns#">
      <rdf:Description rdf:about=""/>
   </rdf:RDF>
</x:xmpmeta>
                                                                                                    
                                                                                                    
                                                                                                    
                                                                                                    
                                                                                                    
                                                                                                    
                                                                                                    
                                                                                                    
                                                                                                    
                                                                                                    
                                                                                                    
                                                                                                    
                                                                                                    
                                                                                                    
                                                                                                    
                                                                                                    
                                                                                                    
                                                                                                    
                                                                                                    
                                                                                                    
                           
<?xpacket end="w"?></metadata>
<defs>
    <style>
      .cls-1 {
        fill: #414141;
        fill-rule: evenodd;
      }
    </style>
  </defs>
  <path class="cls-1" d="M995.706,1125.43a1.715,1.715,0,1,1-1.677,1.71A1.7,1.7,0,0,1,995.706,1125.43ZM998.5,1122a1.43,1.43,0,1,1-1.4,1.43A1.413,1.413,0,0,1,998.5,1122Zm1.96,4.57a2,2,0,1,1-1.96,2A1.976,1.976,0,0,1,1000.46,1126.57Zm6.42,5.14H990.118a1.145,1.145,0,0,0,0,2.29h16.762A1.145,1.145,0,0,0,1006.88,1131.71Zm-16.762,4v0.86a4.277,4.277,0,0,0,2.794,4.04V1142h1.676v-1.14h7.822V1142h1.68v-1.39a4.271,4.271,0,0,0,2.79-4.04v-0.86H990.118Z" transform="translate(-989 -1122)"/>
</svg>
