<svg xmlns="http://www.w3.org/2000/svg" width="19" height="17" viewBox="0 0 19 17">
  <metadata><?xpacket begin="﻿" id="W5M0MpCehiHzreSzNTczkc9d"?>
<x:xmpmeta xmlns:x="adobe:ns:meta/" x:xmptk="Adobe XMP Core 5.6-c138 79.159824, 2016/09/14-01:09:01        ">
   <rdf:RDF xmlns:rdf="http://www.w3.org/1999/02/22-rdf-syntax-ns#">
      <rdf:Description rdf:about=""/>
   </rdf:RDF>
</x:xmpmeta>
                                                                                                    
                                                                                                    
                                                                                                    
                                                                                                    
                                                                                                    
                                                                                                    
                                                                                                    
                                                                                                    
                                                                                                    
                                                                                                    
                                                                                                    
                                                                                                    
                                                                                                    
                                                                                                    
                                                                                                    
                                                                                                    
                                                                                                    
                                                                                                    
                                                                                                    
                                                                                                    
                           
<?xpacket end="w"?></metadata>
<defs>
    <style>
      .cls-1 {
        fill: #414141;
        fill-rule: evenodd;
      }
    </style>
  </defs>
  <path id="Forma_1" data-name="Forma 1" class="cls-1" d="M996.08,1270.58a2.593,2.593,0,0,0,1.736-1.66h-0.443c-0.189,0-.376-0.01-0.56-0.01a1.3,1.3,0,0,1-.918.78,0.742,0.742,0,0,0-.5-0.19A0.75,0.75,0,1,0,996.08,1270.58Zm11.94,0.42a0.75,0.75,0,1,0,0-1.5,0.759,0.759,0,0,0-.45.15,1.526,1.526,0,0,1-.83-0.79,5.329,5.329,0,0,1-.72.06h-0.34a2.442,2.442,0,0,0,1.63,1.63A0.782,0.782,0,0,0,1008.02,1271Zm-1.26-14.28-1.56-1.53a5.165,5.165,0,0,0-1.43.9l2.08,2.03A5.161,5.161,0,0,0,1006.76,1256.72Zm-2.97.57a0.15,0.15,0,0,0,.11-0.04l0.22-.22a0.1,0.1,0,0,0,.03-0.04,0.136,0.136,0,0,0-.03-0.17,0.138,0.138,0,0,0-.17-0.03,0.219,0.219,0,0,0-.05.03l-0.22.21a0.157,0.157,0,0,0,0,.22A0.15,0.15,0,0,0,1003.79,1257.29Zm-0.66.65a0.161,0.161,0,0,0,.11-0.05l0.22-.21a0.156,0.156,0,0,0-.22-0.22l-0.22.22a0.145,0.145,0,0,0,0,.21A0.161,0.161,0,0,0,1003.13,1257.94Zm-0.66.65a0.161,0.161,0,0,0,.11-0.05l0.22-.21a0.156,0.156,0,1,0-.22-0.22l-0.22.22a0.145,0.145,0,0,0,0,.21A0.161,0.161,0,0,0,1002.47,1258.59Zm2.12-1.17a0.136,0.136,0,0,0-.03-0.17,0.138,0.138,0,0,0-.17-0.03,0.219,0.219,0,0,0-.05.03l-0.22.21a0.157,0.157,0,0,0,0,.22,0.171,0.171,0,0,0,.22,0l0.22-.22A0.1,0.1,0,0,0,1004.59,1257.42Zm-0.69.47a0.18,0.18,0,0,0-.22,0l-0.22.22a0.157,0.157,0,0,0,0,.22,0.15,0.15,0,0,0,.11.04,0.21,0.21,0,0,0,.11-0.04l0.22-.22A0.157,0.157,0,0,0,1003.9,1257.89Zm-0.66.65a0.157,0.157,0,0,0-.22,0l-0.22.22a0.145,0.145,0,0,0,0,.21,0.146,0.146,0,0,0,.22,0l0.22-.21A0.157,0.157,0,0,0,1003.24,1258.54Zm1.43-.39a0.15,0.15,0,0,0,.11-0.04l0.22-.22a0.042,0.042,0,0,0,.03-0.04,0.138,0.138,0,0,0-.03-0.17,0.136,0.136,0,0,0-.17-0.03c-0.02.01-.03,0.02-0.05,0.03l-0.22.21a0.157,0.157,0,0,0,0,.22A0.15,0.15,0,0,0,1004.67,1258.15Zm-0.66.65a0.15,0.15,0,0,0,.11-0.04l0.22-.22a0.145,0.145,0,0,0,0-.21,0.157,0.157,0,0,0-.22,0l-0.22.21a0.157,0.157,0,0,0,0,.22A0.15,0.15,0,0,0,1004.01,1258.8Zm-0.66.65a0.161,0.161,0,0,0,.11-0.05l0.22-.21a0.156,0.156,0,1,0-.22-0.22l-0.22.22a0.145,0.145,0,0,0,0,.21A0.161,0.161,0,0,0,1003.35,1259.45Zm7.03,1.86h-0.94v-7.01a0.31,0.31,0,0,0-.31-0.3h-1.35a0.3,0.3,0,0,0-.21.08l-1.12,1.01a1.236,1.236,0,0,0-.73.09l1.07,1.05a1.18,1.18,0,0,0,.09-0.7l1.02-.92h0.92v6.7h-16.2a0.615,0.615,0,0,0-.623.61v0.6a0.615,0.615,0,0,0,.623.61h0.387c0.048,0.24.109,0.51,0.186,0.82l0.436,2.05a3.06,3.06,0,0,0,3.31,2.61h9.078a4.275,4.275,0,0,0,.59-0.04h0a3.317,3.317,0,0,0,2.79-2.41l0.71-3.03h0.32a0.619,0.619,0,0,0,.57-0.61v-0.6A0.615,0.615,0,0,0,1010.38,1261.31Zm-4.97,6.36h0Z" transform="translate(-992 -1254)"/>
</svg>
