<svg xmlns="http://www.w3.org/2000/svg" width="24" height="24" viewBox="0 0 24 24">
  <metadata><?xpacket begin="﻿" id="W5M0MpCehiHzreSzNTczkc9d"?>
<x:xmpmeta xmlns:x="adobe:ns:meta/" x:xmptk="Adobe XMP Core 5.6-c138 79.159824, 2016/09/14-01:09:01        ">
   <rdf:RDF xmlns:rdf="http://www.w3.org/1999/02/22-rdf-syntax-ns#">
      <rdf:Description rdf:about=""/>
   </rdf:RDF>
</x:xmpmeta>
                                                                                                    
                                                                                                    
                                                                                                    
                                                                                                    
                                                                                                    
                                                                                                    
                                                                                                    
                                                                                                    
                                                                                                    
                                                                                                    
                                                                                                    
                                                                                                    
                                                                                                    
                                                                                                    
                                                                                                    
                                                                                                    
                                                                                                    
                                                                                                    
                                                                                                    
                                                                                                    
                           
<?xpacket end="w"?></metadata>
<defs>
    <style>
      .cls-1 {
        fill: #414141;
        fill-rule: evenodd;
      }
    </style>
  </defs>
  <path id="Forma_1" data-name="Forma 1" class="cls-1" d="M174.049,1395.01c2.695-.07,3.948-1.3,3.948-2.82,0-1.32-.944-2.42-2.95-2.74,0.009-.49.01-0.97,0.01-1.4H162.582c0,2.13,0,5.1,1.159,7.26a13.546,13.546,0,0,1,5.919,1.58,8.213,8.213,0,0,1,1.287.92c0.12,0.1.233,0.21,0.341,0.32,2.217-.1,3.769-0.33,3.769-0.59,0-.22-1.015-0.41-2.57-0.53A5.362,5.362,0,0,0,174.049,1395.01Zm2.343-2.79c-0.015.82-.412,1.37-1.88,1.55a14.677,14.677,0,0,0,.485-3.07A1.456,1.456,0,0,1,176.392,1392.22Zm-12.3-3.34h1.95c-0.875,2.91.6,6.78,0.6,6.78C163.45,1393.17,164.088,1388.88,164.088,1388.88Zm7.068-4.66a2.609,2.609,0,0,0-2.056,2.15c-0.052.49,0.688,0.48,0.739,0,0.248-2.28,5.209-1.14,4.175-4.11-0.158-.45-0.872-0.26-0.713.2C173.755,1383.76,172.033,1383.92,171.156,1384.22Zm2.2,0.55a2.61,2.61,0,0,0-2.153,1.69,0.37,0.37,0,0,0,.713.2c0.332-1.14,1.808-1.16,2.75-1.44a1.823,1.823,0,0,0,1.451-2.11c-0.06-.47-0.8-0.48-0.739,0C175.551,1384.44,174.353,1384.53,173.361,1384.77ZM162.888,1406c4.9,0,8.885-2.22,8.885-4.94a3.749,3.749,0,0,0-1.684-2.89c-0.059-.04-0.12-0.09-0.182-0.13a9.15,9.15,0,0,0-2.243-1.14,13.534,13.534,0,0,0-3.352-.71c-0.464-.04-0.939-0.07-1.424-0.07-4.9,0-8.885,2.22-8.885,4.94S157.989,1406,162.888,1406Zm-3.671-7.03a0.621,0.621,0,0,1,.613.63,0.909,0.909,0,0,0,.31.61c0.291-.62,1.394-1.08,2.714-1.08,1.354,0,2.482.48,2.737,1.12a0.922,0.922,0,0,0,.355-0.65,0.613,0.613,0,1,1,1.226,0c0,1.53-1.882,2.74-4.284,2.74s-4.283-1.21-4.283-2.74A0.62,0.62,0,0,1,159.217,1398.97Z" transform="translate(-154 -1382)"/>
</svg>
