<svg xmlns="http://www.w3.org/2000/svg" width="14" height="22" viewBox="0 0 14 22">
  <metadata><?xpacket begin="﻿" id="W5M0MpCehiHzreSzNTczkc9d"?>
<x:xmpmeta xmlns:x="adobe:ns:meta/" x:xmptk="Adobe XMP Core 5.6-c138 79.159824, 2016/09/14-01:09:01        ">
   <rdf:RDF xmlns:rdf="http://www.w3.org/1999/02/22-rdf-syntax-ns#">
      <rdf:Description rdf:about=""/>
   </rdf:RDF>
</x:xmpmeta>
                                                                                                    
                                                                                                    
                                                                                                    
                                                                                                    
                                                                                                    
                                                                                                    
                                                                                                    
                                                                                                    
                                                                                                    
                                                                                                    
                                                                                                    
                                                                                                    
                                                                                                    
                                                                                                    
                                                                                                    
                                                                                                    
                                                                                                    
                                                                                                    
                                                                                                    
                                                                                                    
                           
<?xpacket end="w"?></metadata>
<defs>
    <style>
      .cls-1 {
        fill: #414141;
        fill-rule: evenodd;
      }
    </style>
  </defs>
  <path id="Forma_1" data-name="Forma 1" class="cls-1" d="M170.545,1268.55a1.935,1.935,0,1,0,1.91,1.94A1.927,1.927,0,0,0,170.545,1268.55Zm0,2.58a0.645,0.645,0,1,1,.637-0.64A0.64,0.64,0,0,1,170.545,1271.13ZM168,1258.16a0.634,0.634,0,0,1,.636.64,0.636,0.636,0,1,1-1.272,0A0.634,0.634,0,0,1,168,1258.16Zm0-2.58a3.22,3.22,0,1,0,3.182,3.22A3.2,3.2,0,0,0,168,1255.58Zm0,5.15a1.93,1.93,0,1,1,1.909-1.93A1.918,1.918,0,0,1,168,1260.73Zm5.091-7.73H162.909a1.924,1.924,0,0,0-1.909,1.93v18.14a1.924,1.924,0,0,0,1.909,1.93h10.182a1.924,1.924,0,0,0,1.909-1.93v-18.14A1.924,1.924,0,0,0,173.091,1253Zm0.636,20.07a0.64,0.64,0,0,1-.636.64H162.909a0.64,0.64,0,0,1-.636-0.64v-18.14a0.64,0.64,0,0,1,.636-0.64h10.182a0.64,0.64,0,0,1,.636.64v18.14Zm-1.909-9.67h-7.636a0.645,0.645,0,0,0,0,1.29h7.636A0.645,0.645,0,0,0,171.818,1263.4Zm0,2.58a0.645,0.645,0,1,1-.636.64A0.641,0.641,0,0,1,171.818,1265.98Zm-2.545,0a0.645,0.645,0,1,1-.637.64A0.64,0.64,0,0,1,169.273,1265.98Zm-2.546,0a0.645,0.645,0,1,1-.636.64A0.641,0.641,0,0,1,166.727,1265.98Zm-2.545,0a0.645,0.645,0,1,1-.637.64A0.64,0.64,0,0,1,164.182,1265.98Zm0,2.57a0.643,0.643,0,0,1,.636.65,0.637,0.637,0,1,1-1.273,0A0.643,0.643,0,0,1,164.182,1268.55Zm2.545,0a0.643,0.643,0,0,1,.637.65,0.637,0.637,0,1,1-1.273,0A0.643,0.643,0,0,1,166.727,1268.55Zm0,2.58a0.645,0.645,0,1,1-.636.65A0.643,0.643,0,0,1,166.727,1271.13Zm-2.545,0a0.645,0.645,0,1,1-.637.65A0.643,0.643,0,0,1,164.182,1271.13Z" transform="translate(-161 -1253)"/>
</svg>
