<svg xmlns="http://www.w3.org/2000/svg" width="18" height="18" viewBox="0 0 18 18">
  <metadata><?xpacket begin="﻿" id="W5M0MpCehiHzreSzNTczkc9d"?>
<x:xmpmeta xmlns:x="adobe:ns:meta/" x:xmptk="Adobe XMP Core 5.6-c138 79.159824, 2016/09/14-01:09:01        ">
   <rdf:RDF xmlns:rdf="http://www.w3.org/1999/02/22-rdf-syntax-ns#">
      <rdf:Description rdf:about=""/>
   </rdf:RDF>
</x:xmpmeta>
                                                                                                    
                                                                                                    
                                                                                                    
                                                                                                    
                                                                                                    
                                                                                                    
                                                                                                    
                                                                                                    
                                                                                                    
                                                                                                    
                                                                                                    
                                                                                                    
                                                                                                    
                                                                                                    
                                                                                                    
                                                                                                    
                                                                                                    
                                                                                                    
                                                                                                    
                                                                                                    
                           
<?xpacket end="w"?></metadata>
<defs>
    <style>
      .cls-1 {
        fill: #414141;
        fill-rule: evenodd;
      }
    </style>
  </defs>
  <path id="Forma_1" data-name="Forma 1" class="cls-1" d="M1007.31,1299.6H996.691a1.585,1.585,0,0,0-1.582,1.58h13.781A1.583,1.583,0,0,0,1007.31,1299.6Zm2.64-.6v3.23h-15.9V1299H993v4.29h18V1299h-1.05Zm-3.7,7.45h-2.14a0.53,0.53,0,0,0,0,1.06h2.14A0.53,0.53,0,0,0,1006.25,1306.45Zm-6.359,0h-2.145a0.53,0.53,0,0,0,0,1.06h2.145A0.53,0.53,0,0,0,999.891,1306.45Zm-5.836,2.11v3.17h15.9v-3.17h-15.9Zm9,2.11h-2.1v-1.05h2.1v1.05Zm-9,2.11V1317h1.054v-1.05h13.781V1317h1.06v-4.22h-15.9Zm9,2.11h-2.1v-1.05h2.1v1.05Zm-9-10.55v3.17h2.2a1.581,1.581,0,0,1,1.491-2.11h2.145a1.583,1.583,0,0,1,1.579,1.58,1.553,1.553,0,0,1-.09.53h1.24a1.553,1.553,0,0,1-.09-0.53,1.583,1.583,0,0,1,1.58-1.58h2.14a1.586,1.586,0,0,1,1.59,1.58,1.839,1.839,0,0,1-.09.53h2.2v-3.17h-15.9Z" transform="translate(-993 -1299)"/>
</svg>
