<svg xmlns="http://www.w3.org/2000/svg" width="20" height="20" viewBox="0 0 20 20">
  <metadata><?xpacket begin="﻿" id="W5M0MpCehiHzreSzNTczkc9d"?>
<x:xmpmeta xmlns:x="adobe:ns:meta/" x:xmptk="Adobe XMP Core 5.6-c138 79.159824, 2016/09/14-01:09:01        ">
   <rdf:RDF xmlns:rdf="http://www.w3.org/1999/02/22-rdf-syntax-ns#">
      <rdf:Description rdf:about=""/>
   </rdf:RDF>
</x:xmpmeta>
                                                                                                    
                                                                                                    
                                                                                                    
                                                                                                    
                                                                                                    
                                                                                                    
                                                                                                    
                                                                                                    
                                                                                                    
                                                                                                    
                                                                                                    
                                                                                                    
                                                                                                    
                                                                                                    
                                                                                                    
                                                                                                    
                                                                                                    
                                                                                                    
                                                                                                    
                                                                                                    
                           
<?xpacket end="w"?></metadata>
<defs>
    <style>
      .cls-1 {
        fill: #414141;
        fill-rule: evenodd;
      }
    </style>
  </defs>
  <path id="Forma_1" data-name="Forma 1" class="cls-1" d="M1009.89,1357.66h-1.46v1.13h1.46A0.568,0.568,0,0,0,1009.89,1357.66Zm-0.05-1.56a0.547,0.547,0,0,0-.51-0.57h-0.9v1h1.22A0.581,0.581,0,0,0,1009.84,1356.1Zm1.88-3.76h-3.42a2.362,2.362,0,0,0,2.28-2.44v-5.49a2.335,2.335,0,0,0-2.28-2.41h-5.19a2.368,2.368,0,0,0-2.32,2.41v5.49a2.455,2.455,0,0,0,.4,1.34l-0.1-.1a2.188,2.188,0,0,0-1.618-.71,2.211,2.211,0,0,0-1.624.71l-3.177,3.36a2.524,2.524,0,0,0,0,3.43l3.178,3.36a2.216,2.216,0,0,0,3.251,0l3.17-3.36a2.254,2.254,0,0,0,.61-1.22v2.82a2.4,2.4,0,0,0,2.32,2.45h4.52a2.371,2.371,0,0,0,2.28-2.45v-4.77A2.344,2.344,0,0,0,1011.72,1352.34Zm-5.72-8.32a2.881,2.881,0,0,1,2.06.89,0.587,0.587,0,0,1,0,.8,0.512,0.512,0,0,1-.76.01,1.774,1.774,0,0,0-1.3-.57,1.973,1.973,0,0,0,0,3.94,1.82,1.82,0,0,0,1.41-.69,0.5,0.5,0,0,1,.75-0.06,0.578,0.578,0,0,1,.06.8,2.863,2.863,0,0,1-2.23,1.08A3.1,3.1,0,0,1,1006,1344.02Zm-3.1,12.39a0.523,0.523,0,0,1-.68.35l-0.79-.29-1.7,1.8,0.266,0.85a0.578,0.578,0,0,1-.342.72,0.5,0.5,0,0,1-.168.03,0.539,0.539,0,0,1-.51-0.39l-1.45-4.66a0.582,0.582,0,0,1,.133-0.58,0.521,0.521,0,0,1,.551-0.14l4.36,1.59A0.572,0.572,0,0,1,1002.9,1356.41Zm1.98-1.65v0.96a2.288,2.288,0,0,0-.61-1.22l-2.44-2.57a2.217,2.217,0,0,0,1.28.41h4.09A2.377,2.377,0,0,0,1004.88,1354.76Zm5.01,5.17h-1.97a0.592,0.592,0,0,1-.56-0.59v-4.39a0.557,0.557,0,0,1,.56-0.55h1.41a1.635,1.635,0,0,1,1.58,1.69,1.769,1.769,0,0,0,.56,2.13A1.653,1.653,0,0,1,1009.89,1359.93Zm-10.535-2.87,0.945-1-1.417-.51Z" transform="translate(-994 -1342)"/>
</svg>
