<svg xmlns="http://www.w3.org/2000/svg" width="18" height="16" viewBox="0 0 18 16">
  <metadata><?xpacket begin="﻿" id="W5M0MpCehiHzreSzNTczkc9d"?>
<x:xmpmeta xmlns:x="adobe:ns:meta/" x:xmptk="Adobe XMP Core 5.6-c138 79.159824, 2016/09/14-01:09:01        ">
   <rdf:RDF xmlns:rdf="http://www.w3.org/1999/02/22-rdf-syntax-ns#">
      <rdf:Description rdf:about=""/>
   </rdf:RDF>
</x:xmpmeta>
                                                                                                    
                                                                                                    
                                                                                                    
                                                                                                    
                                                                                                    
                                                                                                    
                                                                                                    
                                                                                                    
                                                                                                    
                                                                                                    
                                                                                                    
                                                                                                    
                                                                                                    
                                                                                                    
                                                                                                    
                                                                                                    
                                                                                                    
                                                                                                    
                                                                                                    
                                                                                                    
                           
<?xpacket end="w"?></metadata>
<defs>
    <style>
      .cls-1 {
        fill: #414141;
        fill-rule: evenodd;
      }
    </style>
  </defs>
  <path id="Forma_1" data-name="Forma 1" class="cls-1" d="M322.935,43.257a1.429,1.429,0,0,0-.132.115l-6.448,6.675a1.368,1.368,0,0,0,0,1.888h0L322.8,58.61a1.259,1.259,0,0,0,1.824,0,1.314,1.314,0,0,0-.076-1.9l-3.56-3.7a2.581,2.581,0,0,0-.645-0.487l-0.387-.18h12.665a1.346,1.346,0,0,0,1.36-1.121,1.33,1.33,0,0,0-1.066-1.531,1.254,1.254,0,0,0-.224-0.017H319.979l0.277-.133a2.587,2.587,0,0,0,.729-0.534l3.566-3.691a1.419,1.419,0,0,0,.187-1.769A1.262,1.262,0,0,0,322.935,43.257Z" transform="translate(-315.969 -43)"/>
</svg>
