<svg xmlns="http://www.w3.org/2000/svg" width="50" height="44" viewBox="0 0 50 44">
  <metadata><?xpacket begin="﻿" id="W5M0MpCehiHzreSzNTczkc9d"?>
<x:xmpmeta xmlns:x="adobe:ns:meta/" x:xmptk="Adobe XMP Core 5.6-c138 79.159824, 2016/09/14-01:09:01        ">
   <rdf:RDF xmlns:rdf="http://www.w3.org/1999/02/22-rdf-syntax-ns#">
      <rdf:Description rdf:about=""/>
   </rdf:RDF>
</x:xmpmeta>
                                                                                                    
                                                                                                    
                                                                                                    
                                                                                                    
                                                                                                    
                                                                                                    
                                                                                                    
                                                                                                    
                                                                                                    
                                                                                                    
                                                                                                    
                                                                                                    
                                                                                                    
                                                                                                    
                                                                                                    
                                                                                                    
                                                                                                    
                                                                                                    
                                                                                                    
                                                                                                    
                           
<?xpacket end="w"?></metadata>
<defs>
    <style>
      .cls-1 {
        fill: #f27280;
        fill-rule: evenodd;
      }
    </style>
  </defs>
  <path id="Forma_1" data-name="Forma 1" class="cls-1" d="M1099.99,1093.74c-0.15-2.76-5.06-4-9.93-4a25.28,25.28,0,0,0-4.78.44V1074c-0.16-2.76-5.06-4-9.93-4s-9.77,1.24-9.93,4c0,0.04-.01.09-0.01,0.13v10.88a23.632,23.632,0,0,0-5.47-.6c-4.87,0-9.78,1.24-9.93,4a0.66,0.66,0,0,0-.01.14v21.31c0,2.86,4.99,4.14,9.94,4.14s9.93-1.28,9.93-4.14v-0.21a23.733,23.733,0,0,0,5.48.59,24.41,24.41,0,0,0,4.78-.44v0.06c0,2.86,4.99,4.14,9.93,4.14s9.94-1.28,9.94-4.14v-15.98A0.66,0.66,0,0,0,1099.99,1093.74Zm-14.71-1a20.623,20.623,0,0,1,4.78-.5c4.49,0,6.98,1.09,7.44,1.64-0.46.55-2.95,1.64-7.44,1.64a21.188,21.188,0,0,1-4.78-.5,7.087,7.087,0,0,1-2.45-.97,1.245,1.245,0,0,1-.2-0.17,0.9,0.9,0,0,1,.2-0.18A7.128,7.128,0,0,1,1085.28,1092.74Zm-9.93-20.25c4.49,0,6.97,1.1,7.43,1.64-0.46.55-2.94,1.64-7.43,1.64s-6.97-1.09-7.44-1.64C1068.38,1073.59,1070.86,1072.49,1075.35,1072.49Zm-7.48,4.52a22.833,22.833,0,0,0,14.96,0v2.39c-0.32.53-2.82,1.7-7.48,1.7s-7.16-1.17-7.48-1.7v-2.39h0Zm0,5.33a22.833,22.833,0,0,0,14.96,0v2.39c-0.32.53-2.82,1.7-7.48,1.7s-7.16-1.17-7.48-1.7v-2.39h0Zm-7.93,4.57a19.122,19.122,0,0,1,5.47.69,4.553,4.553,0,0,1,1.96.95,4.674,4.674,0,0,1-1.96.95,19.122,19.122,0,0,1-5.47.69c-4.49,0-6.98-1.09-7.44-1.64C1052.96,1088,1055.45,1086.91,1059.94,1086.91Zm-7.48,4.51a19.414,19.414,0,0,0,7.48,1.26,23.645,23.645,0,0,0,5.47-.59,11.158,11.158,0,0,0,2-.67v2.4a4.083,4.083,0,0,1-2,1.01,19.122,19.122,0,0,1-5.47.69c-4.67,0-7.16-1.18-7.48-1.7v-2.4Zm0,5.33a19.414,19.414,0,0,0,7.48,1.26,23.645,23.645,0,0,0,5.47-.59,11.158,11.158,0,0,0,2-.67v2.4a4.083,4.083,0,0,1-2,1.01,19.488,19.488,0,0,1-5.47.69c-4.67,0-7.16-1.18-7.48-1.7v-2.4Zm0,5.33a19.414,19.414,0,0,0,7.48,1.26,23.645,23.645,0,0,0,5.47-.59,11.158,11.158,0,0,0,2-.67v2.39a3.977,3.977,0,0,1-2,1.02,19.488,19.488,0,0,1-5.47.69c-4.67,0-7.16-1.18-7.48-1.71v-2.39Zm14.95,7.72c-0.32.53-2.81,1.71-7.47,1.71s-7.16-1.18-7.48-1.71v-2.39a19.414,19.414,0,0,0,7.48,1.26,22.369,22.369,0,0,0,6.24-.8,11.7,11.7,0,0,0,1.23-.46v2.39Zm12.72-2.55a21.12,21.12,0,0,1-4.78.5,19.2,19.2,0,0,1-5.48-.69v-2.74a23.733,23.733,0,0,0,5.48.59,24.41,24.41,0,0,0,4.78-.44v2.78Zm0-5.33a20.558,20.558,0,0,1-4.78.5,19.2,19.2,0,0,1-5.48-.69v-2.74a23.733,23.733,0,0,0,5.48.59,24.41,24.41,0,0,0,4.78-.44v2.78Zm0-8.04v2.71a20.558,20.558,0,0,1-4.78.5,19.2,19.2,0,0,1-5.48-.69v-2.74a23.719,23.719,0,0,0,5.48.6,25.2,25.2,0,0,0,4.78-.44v0.06Zm-4.78-2.12a19.2,19.2,0,0,1-5.48-.69v-2.52a0.66,0.66,0,0,0-.01-0.14,0.249,0.249,0,0,0-.01-0.08,23.833,23.833,0,0,0,5.5.6,19.675,19.675,0,0,0,7.48-1.26v2.39C1082.51,1090.58,1080.01,1091.76,1075.35,1091.76Zm22.19,18.04c-0.32.53-2.81,1.71-7.48,1.71s-7.15-1.18-7.47-1.71v-2.39a11.459,11.459,0,0,0,1.77.61,23.291,23.291,0,0,0,5.7.65,19.414,19.414,0,0,0,7.48-1.26v2.39h0Zm0-5.33c-0.32.53-2.81,1.71-7.48,1.71a21.188,21.188,0,0,1-4.78-.5,7.087,7.087,0,0,1-2.45-.97,0.891,0.891,0,0,1-.24-0.24v-2.39a12.533,12.533,0,0,0,2.69.82,24.483,24.483,0,0,0,4.78.44,19.414,19.414,0,0,0,7.48-1.26v2.39Zm0-5.32c-0.32.52-2.81,1.7-7.48,1.7a21.188,21.188,0,0,1-4.78-.5,7.087,7.087,0,0,1-2.45-.97,0.885,0.885,0,0,1-.24-0.23v-2.4a12.533,12.533,0,0,0,2.69.82,24.483,24.483,0,0,0,4.78.44,19.414,19.414,0,0,0,7.48-1.26v2.4Z" transform="translate(-1050 -1070)"/>
</svg>
