<svg xmlns="http://www.w3.org/2000/svg" width="18" height="18" viewBox="0 0 18 18">
  <metadata><?xpacket begin="﻿" id="W5M0MpCehiHzreSzNTczkc9d"?>
<x:xmpmeta xmlns:x="adobe:ns:meta/" x:xmptk="Adobe XMP Core 5.6-c138 79.159824, 2016/09/14-01:09:01        ">
   <rdf:RDF xmlns:rdf="http://www.w3.org/1999/02/22-rdf-syntax-ns#">
      <rdf:Description rdf:about=""/>
   </rdf:RDF>
</x:xmpmeta>
                                                                                                    
                                                                                                    
                                                                                                    
                                                                                                    
                                                                                                    
                                                                                                    
                                                                                                    
                                                                                                    
                                                                                                    
                                                                                                    
                                                                                                    
                                                                                                    
                                                                                                    
                                                                                                    
                                                                                                    
                                                                                                    
                                                                                                    
                                                                                                    
                                                                                                    
                                                                                                    
                           
<?xpacket end="w"?></metadata>
<defs>
    <style>
      .cls-1 {
        fill: #414141;
        fill-rule: evenodd;
      }
    </style>
  </defs>
  <path id="Forma_1" data-name="Forma 1" class="cls-1" d="M164.6,1175.31l-2.382-2.38a0.42,0.42,0,0,0-.588,0l-2.382,2.38a0.254,0.254,0,0,0-.055.28,0.257,0.257,0,0,0,.237.15h1.152v3.03a0.419,0.419,0,0,0,.415.42h1.856a0.418,0.418,0,0,0,.415-0.42v-3.03h1.151a0.258,0.258,0,0,0,.237-0.15A0.253,0.253,0,0,0,164.6,1175.31Zm2.514,1.38,2.382,2.38a0.419,0.419,0,0,0,.587,0l2.383-2.38a0.24,0.24,0,0,0,.055-0.27,0.25,0.25,0,0,0-.236-0.16h-1.151v-3.03a0.419,0.419,0,0,0-.415-0.42H168.86a0.419,0.419,0,0,0-.415.42v3.03h-1.152a0.252,0.252,0,0,0-.237.16A0.242,0.242,0,0,0,167.112,1176.69Zm6.754-9.69H158.134a1.135,1.135,0,0,0-1.134,1.13v15.74a1.135,1.135,0,0,0,1.134,1.13h15.732a1.135,1.135,0,0,0,1.134-1.13v-15.74A1.135,1.135,0,0,0,173.866,1167Zm-15.051,1.81h6.58v14.38h-6.58v-14.38Zm14.37,14.38h-6.58v-14.38h6.58v14.38h0Z" transform="translate(-157 -1167)"/>
</svg>
