<svg xmlns="http://www.w3.org/2000/svg" width="18" height="18" viewBox="0 0 18 18">
  <metadata><?xpacket begin="﻿" id="W5M0MpCehiHzreSzNTczkc9d"?>
<x:xmpmeta xmlns:x="adobe:ns:meta/" x:xmptk="Adobe XMP Core 5.6-c138 79.159824, 2016/09/14-01:09:01        ">
   <rdf:RDF xmlns:rdf="http://www.w3.org/1999/02/22-rdf-syntax-ns#">
      <rdf:Description rdf:about=""/>
   </rdf:RDF>
</x:xmpmeta>
                                                                                                    
                                                                                                    
                                                                                                    
                                                                                                    
                                                                                                    
                                                                                                    
                                                                                                    
                                                                                                    
                                                                                                    
                                                                                                    
                                                                                                    
                                                                                                    
                                                                                                    
                                                                                                    
                                                                                                    
                                                                                                    
                                                                                                    
                                                                                                    
                                                                                                    
                                                                                                    
                           
<?xpacket end="w"?></metadata>
<defs>
    <style>
      .cls-1 {
        fill: #414141;
        fill-rule: evenodd;
      }
    </style>
  </defs>
  <path id="Forma_1" data-name="Forma 1" class="cls-1" d="M603.652,1212.58a0.766,0.766,0,0,0-.729-0.16l-3.028,1.17v5.2l3.025,1.17a0.771,0.771,0,0,0,.732-0.16,0.936,0.936,0,0,0,.349-0.73v-5.76A0.939,0.939,0,0,0,603.652,1212.58Zm-10.675,9.11a9.717,9.717,0,0,1,.916,1.9h0.67v-2H592.92Zm-0.623-9.53a5.1,5.1,0,0,0-4.132.71,4.257,4.257,0,0,0-1.864,3.52c0,0.01,0,.02,0,0.04a3.886,3.886,0,0,0,1.354,2.82,5.213,5.213,0,0,1,1.573,2.33l1.381,4.6a0.842,0.842,0,0,0,.206.34v1.18a2.006,2.006,0,0,0,.821.94,0.833,0.833,0,0,1-.777.56h-0.092a0.537,0.537,0,0,1-.488-0.34l-2.426-6.04a1.17,1.17,0,0,0-.634-0.68,1.3,1.3,0,0,0-1,.04,0.394,0.394,0,0,0-.25.51,0.4,0.4,0,0,0,.524.24c0.014,0,.028-0.01.041-0.01a0.492,0.492,0,0,1,.365-0.04,0.384,0.384,0,0,1,.192.23l2.422,6.04a1.338,1.338,0,0,0,1.252.85h0.092a1.585,1.585,0,0,0,1.6-1.36v-1.9l0.431-1.19a2.781,2.781,0,0,0,.063-1.75,0.4,0.4,0,0,1-.066-0.19,2.827,2.827,0,0,0-.393-0.73l-0.152-.22a3.565,3.565,0,0,1-.55-1.09l-0.017-.06a1.031,1.031,0,0,1,.1-0.85,1,1,0,0,1,.637-0.44c1.592-.39,6.515-1.43,6.515-1.43h0.411v-5.2h-0.411ZM592.1,1226.8v0.4h-0.821v-0.44a1.179,1.179,0,0,0,.264.04H592.1Z" transform="translate(-586 -1212)"/>
</svg>
