<svg xmlns="http://www.w3.org/2000/svg" width="15" height="31" viewBox="0 0 15 31">
  <metadata><?xpacket begin="﻿" id="W5M0MpCehiHzreSzNTczkc9d"?>
<x:xmpmeta xmlns:x="adobe:ns:meta/" x:xmptk="Adobe XMP Core 5.6-c138 79.159824, 2016/09/14-01:09:01        ">
   <rdf:RDF xmlns:rdf="http://www.w3.org/1999/02/22-rdf-syntax-ns#">
      <rdf:Description rdf:about=""/>
   </rdf:RDF>
</x:xmpmeta>
                                                                                                    
                                                                                                    
                                                                                                    
                                                                                                    
                                                                                                    
                                                                                                    
                                                                                                    
                                                                                                    
                                                                                                    
                                                                                                    
                                                                                                    
                                                                                                    
                                                                                                    
                                                                                                    
                                                                                                    
                                                                                                    
                                                                                                    
                                                                                                    
                                                                                                    
                                                                                                    
                           
<?xpacket end="w"?></metadata>
<defs>
    <style>
      .cls-1 {
        fill: #414141;
        fill-rule: evenodd;
      }
    </style>
  </defs>
  <path class="cls-1" d="M1010.99,1408.87l-1.94-16.04h0.43a1.01,1.01,0,1,0,0-2.02h-1.75v-3.29a2.612,2.612,0,0,0-2.61-2.61h-6.592v-4.9a1.008,1.008,0,1,0-2.016,0v11.81a1.008,1.008,0,0,0,1.008,1.01h0.426l-1.938,16.04a1,1,0,0,0,.88,1.12,0.507,0.507,0,0,0,.122.01,1.011,1.011,0,0,0,1-.89l0.131-1.08h10.72l0.13,1.08a1.013,1.013,0,0,0,1,.89,0.487,0.487,0,0,0,.12-0.01A1,1,0,0,0,1010.99,1408.87Zm-6.48-21.95h0.61a0.6,0.6,0,0,1,.6.6v3.29h-1.21v-3.89Zm-3.23,0h1.21v3.89h-1.21v-3.89h0Zm-1.3,5.91h7.043l0.45,3.73h-7.944Zm-1.449-5.91h0.738v3.89h-0.738v-3.89Zm-0.144,19.09,0.9-7.43h8.438l0.9,7.43H998.384Z" transform="translate(-996 -1379)"/>
</svg>
