<svg xmlns="http://www.w3.org/2000/svg" width="25.041" height="25.041" viewBox="0 0 18.031 18.031">
  <metadata><?xpacket begin="﻿" id="W5M0MpCehiHzreSzNTczkc9d"?>
<x:xmpmeta xmlns:x="adobe:ns:meta/" x:xmptk="Adobe XMP Core 5.6-c138 79.159824, 2016/09/14-01:09:01        ">
   <rdf:RDF xmlns:rdf="http://www.w3.org/1999/02/22-rdf-syntax-ns#">
      <rdf:Description rdf:about=""/>
   </rdf:RDF>
</x:xmpmeta>
                                                                                                    
                                                                                                    
                                                                                                    
                                                                                                    
                                                                                                    
                                                                                                    
                                                                                                    
                                                                                                    
                                                                                                    
                                                                                                    
                                                                                                    
                                                                                                    
                                                                                                    
                                                                                                    
                                                                                                    
                                                                                                    
                                                                                                    
                                                                                                    
                                                                                                    
                                                                                                    
                           
<?xpacket end="w"?></metadata>
<defs>
    <style>
      .cls-1 {
        fill-rule: evenodd;
      }
    </style>
  </defs>
  <path id="Forma_1" data-name="Forma 1" class="cls-1" d="M460.85,768.958a5.7,5.7,0,0,0-4.182-1.377c-0.395,0-.811.021-1.241,0.063l-4.488-4.25,1.072-1.074a0.51,0.51,0,0,0,0-.721l-1.487-1.49a0.522,0.522,0,0,0-.72,0l-6.656,6.671a0.51,0.51,0,0,0,0,.721l1.487,1.49a0.506,0.506,0,0,0,.719,0l1.072-1.074,4.241,4.5c-0.172,1.768-.06,4.062,1.31,5.435a0.507,0.507,0,0,0,.72,0l3.717-3.725,2.847,2.853a0.509,0.509,0,0,0,.72,0,0.512,0.512,0,0,0,0-.721l-2.848-2.853,3.717-3.725A0.51,0.51,0,0,0,460.85,768.958Zm-8.479,7.777a6.889,6.889,0,0,1-.668-4.442,0.51,0.51,0,0,0-.136-0.408l-4.761-5.05a0.507,0.507,0,0,0-.362-0.159h-0.008a0.512,0.512,0,0,0-.36.149l-1.082,1.085-0.767-.769,5.937-5.951,0.768,0.77-1.082,1.084a0.512,0.512,0,0,0,.01.732l5.038,4.77a0.506,0.506,0,0,0,.407.137,11.948,11.948,0,0,1,1.363-.082,5.362,5.362,0,0,1,3.07.751Z" transform="translate(-443 -759.969)"/>
</svg>
