<svg xmlns="http://www.w3.org/2000/svg" width="30" height="52.5" viewBox="0 0 12 21">
  <metadata><?xpacket begin="﻿" id="W5M0MpCehiHzreSzNTczkc9d"?>
<x:xmpmeta xmlns:x="adobe:ns:meta/" x:xmptk="Adobe XMP Core 5.6-c138 79.159824, 2016/09/14-01:09:01        ">
   <rdf:RDF xmlns:rdf="http://www.w3.org/1999/02/22-rdf-syntax-ns#">
      <rdf:Description rdf:about=""/>
   </rdf:RDF>
</x:xmpmeta>
                                                                                                    
                                                                                                    
                                                                                                    
                                                                                                    
                                                                                                    
                                                                                                    
                                                                                                    
                                                                                                    
                                                                                                    
                                                                                                    
                                                                                                    
                                                                                                    
                                                                                                    
                                                                                                    
                                                                                                    
                                                                                                    
                                                                                                    
                                                                                                    
                                                                                                    
                                                                                                    
                           
<?xpacket end="w"?></metadata>
<defs>
    <style>
      .cls-1 {
        fill-rule: evenodd;
      }
    </style>
  </defs>
  <path id="Forma_1" data-name="Forma 1" class="cls-1" d="M834.823,67.241h-5.647a0.362,0.362,0,0,0,0,.724h5.647A0.362,0.362,0,0,0,834.823,67.241Zm0,2.9h-5.647a0.362,0.362,0,0,0,0,.724h5.647A0.362,0.362,0,0,0,834.823,70.138Zm0,2.9h-5.647a0.362,0.362,0,0,0,0,.724h5.647A0.362,0.362,0,0,0,834.823,73.034Zm0,2.9h-5.647a0.362,0.362,0,0,0,0,.724h5.647A0.362,0.362,0,0,0,834.823,75.931ZM836.235,62.9h-2.47V60.724h1.058a0.362,0.362,0,0,0,0-.724h-5.647a0.362,0.362,0,0,0,0,.724h1.059V62.9h-2.47A1.79,1.79,0,0,0,826,64.707V77.741a1.8,1.8,0,0,0,1.412,1.774v1.123a0.353,0.353,0,1,0,.706,0V79.552h7.764v1.086a0.353,0.353,0,1,0,.706,0V79.515A1.8,1.8,0,0,0,838,77.741V64.707A1.79,1.79,0,0,0,836.235,62.9Zm-5.294-2.172h2.118V62.9h-2.118V60.724Zm-1.412,2.9h4.941v0.362a0.357,0.357,0,0,1-.353.362h-4.235a0.357,0.357,0,0,1-.353-0.362V63.62Zm7.765,14.121a1.074,1.074,0,0,1-1.059,1.086h-8.47a1.074,1.074,0,0,1-1.059-1.086V64.707a1.074,1.074,0,0,1,1.059-1.086h1.058v0.362a1.074,1.074,0,0,0,1.059,1.086h4.235a1.074,1.074,0,0,0,1.059-1.086V63.62h1.059a1.074,1.074,0,0,1,1.059,1.086V77.741Z" transform="translate(-826 -60)"/>
</svg>
