<svg xmlns="http://www.w3.org/2000/svg" width="25" height="43.749" viewBox="0 0 12 21">
  <metadata><?xpacket begin="﻿" id="W5M0MpCehiHzreSzNTczkc9d"?>
<x:xmpmeta xmlns:x="adobe:ns:meta/" x:xmptk="Adobe XMP Core 5.6-c138 79.159824, 2016/09/14-01:09:01        ">
   <rdf:RDF xmlns:rdf="http://www.w3.org/1999/02/22-rdf-syntax-ns#">
      <rdf:Description rdf:about=""/>
   </rdf:RDF>
</x:xmpmeta>
                                                                                                    
                                                                                                    
                                                                                                    
                                                                                                    
                                                                                                    
                                                                                                    
                                                                                                    
                                                                                                    
                                                                                                    
                                                                                                    
                                                                                                    
                                                                                                    
                                                                                                    
                                                                                                    
                                                                                                    
                                                                                                    
                                                                                                    
                                                                                                    
                                                                                                    
                                                                                                    
                           
<?xpacket end="w"?></metadata>
<defs>
    <style>
      .cls-1 {
        fill-rule: evenodd;
      }
    </style>
  </defs>
  <path id="Forma_1" data-name="Forma 1" class="cls-1" d="M620.823,265.241h-5.647a0.362,0.362,0,0,0,0,.724h5.647A0.362,0.362,0,0,0,620.823,265.241Zm0,2.9h-5.647a0.362,0.362,0,0,0,0,.724h5.647A0.362,0.362,0,0,0,620.823,268.138Zm0,2.9h-5.647a0.362,0.362,0,0,0,0,.724h5.647A0.362,0.362,0,0,0,620.823,271.034Zm0,2.9h-5.647a0.362,0.362,0,0,0,0,.724h5.647A0.362,0.362,0,0,0,620.823,273.931Zm1.412-13.035h-2.47v-2.172h1.058a0.362,0.362,0,0,0,0-.724h-5.647a0.362,0.362,0,0,0,0,.724h1.059V260.9h-2.47A1.79,1.79,0,0,0,612,262.707v13.034a1.8,1.8,0,0,0,1.412,1.774v1.123a0.353,0.353,0,1,0,.706,0v-1.086h7.764v1.086a0.353,0.353,0,1,0,.706,0v-1.123A1.8,1.8,0,0,0,624,275.741V262.707A1.79,1.79,0,0,0,622.235,260.9Zm-5.294-2.172h2.118V260.9h-2.118v-2.172Zm-1.412,2.9h4.941v0.362a0.358,0.358,0,0,1-.353.363h-4.235a0.358,0.358,0,0,1-.353-0.363V261.62Zm7.765,14.121a1.074,1.074,0,0,1-1.059,1.086h-8.47a1.074,1.074,0,0,1-1.059-1.086V262.707a1.075,1.075,0,0,1,1.059-1.087h1.058v0.362a1.075,1.075,0,0,0,1.059,1.087h4.235a1.075,1.075,0,0,0,1.059-1.087V261.62h1.059a1.075,1.075,0,0,1,1.059,1.087v13.034Z" transform="translate(-612 -258)"/>
</svg>
