<svg xmlns="http://www.w3.org/2000/svg" width="30" height="40" viewBox="0 0 12 16">
  <metadata><?xpacket begin="﻿" id="W5M0MpCehiHzreSzNTczkc9d"?>
<x:xmpmeta xmlns:x="adobe:ns:meta/" x:xmptk="Adobe XMP Core 5.6-c138 79.159824, 2016/09/14-01:09:01        ">
   <rdf:RDF xmlns:rdf="http://www.w3.org/1999/02/22-rdf-syntax-ns#">
      <rdf:Description rdf:about=""/>
   </rdf:RDF>
</x:xmpmeta>
                                                                                                    
                                                                                                    
                                                                                                    
                                                                                                    
                                                                                                    
                                                                                                    
                                                                                                    
                                                                                                    
                                                                                                    
                                                                                                    
                                                                                                    
                                                                                                    
                                                                                                    
                                                                                                    
                                                                                                    
                                                                                                    
                                                                                                    
                                                                                                    
                                                                                                    
                                                                                                    
                           
<?xpacket end="w"?></metadata>
<defs>
    <style>
      .cls-1 {
        fill: #727272;
        fill-rule: evenodd;
      }
    </style>
  </defs>
  <path id="Forma_1" data-name="Forma 1" class="cls-1" d="M562,63c-2.981,0-6,.717-6,2.078v2.585c0,1.361,3.019,2.078,6,2.078s6-.713,6-2.078V65.078C568,63.716,564.981,63,562,63Zm0,0.681c3.228,0,5.3.818,5.3,1.4s-2.07,1.4-5.3,1.4-5.3-.818-5.3-1.4S558.772,63.681,562,63.681Zm0,5.379c-3.228,0-5.3-.818-5.3-1.4V66.1a13.929,13.929,0,0,0,10.6,0v1.558C567.3,68.242,565.228,69.06,562,69.06Zm0,2.042c-3.228,0-5.3-.818-5.3-1.4H556v2.588c0,1.361,3.019,2.078,6,2.078s6-.713,6-2.078V69.7h-0.7C567.3,70.287,565.228,71.1,562,71.1Zm5.3,1.191c0,0.579-2.07,1.4-5.3,1.4s-5.3-.818-5.3-1.4V70.725c2.105,1.4,8.493,1.4,10.6,0v1.567ZM562,75.731c-3.228,0-5.3-.818-5.3-1.4H556v2.588c0,1.361,3.019,2.078,6,2.078s6-.713,6-2.078V74.337h-0.7C567.3,74.913,565.228,75.731,562,75.731Zm5.3,1.191c0,0.579-2.07,1.4-5.3,1.4s-5.3-.818-5.3-1.4V75.355c2.105,1.4,8.493,1.4,10.6,0v1.567Z" transform="translate(-556 -63)"/>
</svg>
