<svg xmlns="http://www.w3.org/2000/svg" width="29.165" height="27.776" viewBox="0 0 21 20">
  <metadata><?xpacket begin="﻿" id="W5M0MpCehiHzreSzNTczkc9d"?>
<x:xmpmeta xmlns:x="adobe:ns:meta/" x:xmptk="Adobe XMP Core 5.6-c138 79.159824, 2016/09/14-01:09:01        ">
   <rdf:RDF xmlns:rdf="http://www.w3.org/1999/02/22-rdf-syntax-ns#">
      <rdf:Description rdf:about=""/>
   </rdf:RDF>
</x:xmpmeta>
                                                                                                    
                                                                                                    
                                                                                                    
                                                                                                    
                                                                                                    
                                                                                                    
                                                                                                    
                                                                                                    
                                                                                                    
                                                                                                    
                                                                                                    
                                                                                                    
                                                                                                    
                                                                                                    
                                                                                                    
                                                                                                    
                                                                                                    
                                                                                                    
                                                                                                    
                                                                                                    
                           
<?xpacket end="w"?></metadata>
<defs>
    <style>
      .cls-1 {
        fill: #fff;
        stroke: #000;
        stroke-linejoin: round;
        stroke-width: 1px;
        fill-rule: evenodd;
      }
    </style>
  </defs>
  <path id="Forma_1" data-name="Forma 1" class="cls-1" d="M489.83,769.978l-4.571-4.8a0.541,0.541,0,0,0-.8,0,0.591,0.591,0,0,0-.169.422V768h-2q-6.368,0-7.813,3.778A8.932,8.932,0,0,0,474,774.9a11.694,11.694,0,0,0,1.134,4.227c0.018,0.044.049,0.119,0.094,0.225s0.084,0.2.12,0.281a1.12,1.12,0,0,0,.116.206,0.3,0.3,0,0,0,.25.159,0.257,0.257,0,0,0,.21-0.093,0.36,0.36,0,0,0,.076-0.234,2.206,2.206,0,0,0-.022-0.249,2.036,2.036,0,0,1-.023-0.22c-0.03-.425-0.044-0.809-0.044-1.153a8.358,8.358,0,0,1,.156-1.7,5.234,5.234,0,0,1,.433-1.3,3.212,3.212,0,0,1,.714-0.946,4.194,4.194,0,0,1,.942-0.652,4.924,4.924,0,0,1,1.188-.4,10.851,10.851,0,0,1,1.375-.2q0.692-.056,1.567-0.056h2v2.4a0.592,0.592,0,0,0,.169.422,0.545,0.545,0,0,0,.8,0l4.571-4.8A0.609,0.609,0,0,0,489.83,769.978Z" transform="translate(-471.5 -762.5)"/>
</svg>
