<svg xmlns="http://www.w3.org/2000/svg" width="24.999" height="29.999" viewBox="0 0 15 18">
  <metadata><?xpacket begin="﻿" id="W5M0MpCehiHzreSzNTczkc9d"?>
<x:xmpmeta xmlns:x="adobe:ns:meta/" x:xmptk="Adobe XMP Core 5.6-c138 79.159824, 2016/09/14-01:09:01        ">
   <rdf:RDF xmlns:rdf="http://www.w3.org/1999/02/22-rdf-syntax-ns#">
      <rdf:Description rdf:about=""/>
   </rdf:RDF>
</x:xmpmeta>
                                                                                                    
                                                                                                    
                                                                                                    
                                                                                                    
                                                                                                    
                                                                                                    
                                                                                                    
                                                                                                    
                                                                                                    
                                                                                                    
                                                                                                    
                                                                                                    
                                                                                                    
                                                                                                    
                                                                                                    
                                                                                                    
                                                                                                    
                                                                                                    
                                                                                                    
                                                                                                    
                           
<?xpacket end="w"?></metadata>
<defs>
    <style>
      .cls-1 {
        fill-rule: evenodd;
      }
    </style>
  </defs>
  <path id="Forma_1" data-name="Forma 1" class="cls-1" d="M513.037,271.644a0.384,0.384,0,0,0-.375.393v1.57a0.375,0.375,0,1,0,.749,0v-1.57A0.384,0.384,0,0,0,513.037,271.644Zm3.122,0a0.384,0.384,0,0,0-.375.393v1.57a0.375,0.375,0,1,0,.749,0v-1.57A0.384,0.384,0,0,0,516.159,271.644Zm3.122,0a0.384,0.384,0,0,0-.375.393v1.57a0.375,0.375,0,1,0,.749,0v-1.57A0.384,0.384,0,0,0,519.281,271.644Zm-7.8-2.826a0.384,0.384,0,0,0-.375.392v1.571a0.375,0.375,0,1,0,.749,0V269.21A0.383,0.383,0,0,0,511.476,268.818Zm3.122,0a0.384,0.384,0,0,0-.375.392v1.571a0.375,0.375,0,1,0,.749,0V269.21A0.383,0.383,0,0,0,514.6,268.818Zm3.122,0a0.384,0.384,0,0,0-.375.392v1.571a0.375,0.375,0,1,0,.749,0V269.21A0.383,0.383,0,0,0,517.72,268.818Zm3.122,0a0.384,0.384,0,0,0-.375.392v1.571a0.375,0.375,0,1,0,.749,0V269.21A0.383,0.383,0,0,0,520.842,268.818ZM524.625,256a0.383,0.383,0,0,0-.374.392v0.393h-3.409a5.783,5.783,0,0,0-5.645,5.535h-0.34a0.384,0.384,0,0,0-.374.393v1.059a6.03,6.03,0,0,0-2.431,1.421,6.434,6.434,0,0,0-1.562,2.368h-0.115a0.393,0.393,0,0,0,0,.786h11.568a0.393,0.393,0,0,0,0-.786h-0.115a6.441,6.441,0,0,0-1.563-2.368,6.033,6.033,0,0,0-2.43-1.421v-1.059a0.384,0.384,0,0,0-.375-0.393h-0.309a3.786,3.786,0,0,1,3.691-3.494h3.409v0.393a0.375,0.375,0,1,0,.749,0v-2.827A0.384,0.384,0,0,0,524.625,256Zm-7.539,7.105v0.589h-1.854v-0.589h1.854Zm3.927,4.456h-9.708a5.47,5.47,0,0,1,3.55-3.081h2.607A5.47,5.47,0,0,1,521.013,267.561Zm-0.171-9.52a4.554,4.554,0,0,0-4.443,4.279h-0.451a5.014,5.014,0,0,1,4.894-4.75h3.409v0.471h-3.409Z" transform="translate(-510 -256)"/>
</svg>
