<svg xmlns="http://www.w3.org/2000/svg" width="29.999" height="39.229" viewBox="0 0 13 17">
  <metadata><?xpacket begin="﻿" id="W5M0MpCehiHzreSzNTczkc9d"?>
<x:xmpmeta xmlns:x="adobe:ns:meta/" x:xmptk="Adobe XMP Core 5.6-c138 79.159824, 2016/09/14-01:09:01        ">
   <rdf:RDF xmlns:rdf="http://www.w3.org/1999/02/22-rdf-syntax-ns#">
      <rdf:Description rdf:about=""/>
   </rdf:RDF>
</x:xmpmeta>
                                                                                                    
                                                                                                    
                                                                                                    
                                                                                                    
                                                                                                    
                                                                                                    
                                                                                                    
                                                                                                    
                                                                                                    
                                                                                                    
                                                                                                    
                                                                                                    
                                                                                                    
                                                                                                    
                                                                                                    
                                                                                                    
                                                                                                    
                                                                                                    
                                                                                                    
                                                                                                    
                           
<?xpacket end="w"?></metadata>
<defs>
    <style>
      .cls-1 {
        fill-rule: evenodd;
      }
    </style>
  </defs>
  <path id="Forma_1" data-name="Forma 1" class="cls-1" d="M436.506,72.168a2.911,2.911,0,1,1,3.02-2.909A2.969,2.969,0,0,1,436.506,72.168Zm0-5.305a2.4,2.4,0,1,0,2.488,2.4A2.446,2.446,0,0,0,436.506,66.863Zm0,13.14a0.267,0.267,0,0,1-.2-0.092c-0.258-.3-6.3-7.28-6.3-10.651a6.5,6.5,0,0,1,13,0c0,3.372-6.04,10.356-6.3,10.652A0.275,0.275,0,0,1,436.506,80Zm0-16.494a5.87,5.87,0,0,0-5.969,5.751c0,2.853,4.9,8.817,5.969,10.083,1.069-1.267,5.97-7.231,5.97-10.083A5.871,5.871,0,0,0,436.506,63.509Z" transform="translate(-430 -63)"/>
</svg>
