<svg xmlns="http://www.w3.org/2000/svg" width="16" height="18" viewBox="0 0 16 18">
  <metadata><?xpacket begin="﻿" id="W5M0MpCehiHzreSzNTczkc9d"?>
<x:xmpmeta xmlns:x="adobe:ns:meta/" x:xmptk="Adobe XMP Core 5.6-c138 79.159824, 2016/09/14-01:09:01        ">
   <rdf:RDF xmlns:rdf="http://www.w3.org/1999/02/22-rdf-syntax-ns#">
      <rdf:Description rdf:about=""/>
   </rdf:RDF>
</x:xmpmeta>
                                                                                                    
                                                                                                    
                                                                                                    
                                                                                                    
                                                                                                    
                                                                                                    
                                                                                                    
                                                                                                    
                                                                                                    
                                                                                                    
                                                                                                    
                                                                                                    
                                                                                                    
                                                                                                    
                                                                                                    
                                                                                                    
                                                                                                    
                                                                                                    
                                                                                                    
                                                                                                    
                           
<?xpacket end="w"?></metadata>
<defs>
    <style>
      .cls-1 {
        fill-rule: evenodd;
      }
    </style>
  </defs>
  <path id="Forma_1" data-name="Forma 1" class="cls-1" d="M342.714,63.2h-2V62.3a0.293,0.293,0,0,0-.286-0.3h-2a0.292,0.292,0,0,0-.285.3v0.9h-6.286V62.3a0.293,0.293,0,0,0-.286-0.3h-2a0.292,0.292,0,0,0-.285.3v0.9h-2a0.293,0.293,0,0,0-.286.3V79.7a0.293,0.293,0,0,0,.286.3h15.428A0.293,0.293,0,0,0,343,79.7V63.5A0.293,0.293,0,0,0,342.714,63.2Zm-4-.6h1.429v1.8h-1.429V62.6Zm-8.857,0h1.429v1.8h-1.429V62.6Zm-2.286,1.2h1.715v0.9a0.292,0.292,0,0,0,.285.3h2a0.293,0.293,0,0,0,.286-0.3V63.8h6.286v0.9a0.292,0.292,0,0,0,.285.3h2a0.293,0.293,0,0,0,.286-0.3V63.8h1.714v2.7H327.571V63.8Zm0,15.6V67.1h14.857V79.4H327.571Zm9.715-10.5h-7.715v8.7h10.857V68.9h-3.142Zm-2,.6h2v2.1h-2V69.5Zm2,4.8h-2V72.2h2v2.1Zm-4.572-2.1h2v2.1h-2V72.2Zm0-2.7h2v2.1h-2V69.5Zm-2.571,0h2v2.1h-2V69.5Zm0,2.7h2v2.1h-2V72.2Zm2,4.8h-2V74.9h2V77Zm2.571,0h-2V74.9h2V77Zm2.572,0h-2V74.9h2V77Zm2.571,0h-2V74.9h2V77Zm0-2.7h-2V72.2h2v2.1Zm0-4.8v2.1h-2V69.5h2Z" transform="translate(-327 -62)"/>
</svg>
