<svg xmlns="http://www.w3.org/2000/svg" width="24.998" height="15.788" viewBox="0 0 19 12">
  <metadata><?xpacket begin="﻿" id="W5M0MpCehiHzreSzNTczkc9d"?>
<x:xmpmeta xmlns:x="adobe:ns:meta/" x:xmptk="Adobe XMP Core 5.6-c138 79.159824, 2016/09/14-01:09:01        ">
   <rdf:RDF xmlns:rdf="http://www.w3.org/1999/02/22-rdf-syntax-ns#">
      <rdf:Description rdf:about=""/>
   </rdf:RDF>
</x:xmpmeta>
                                                                                                    
                                                                                                    
                                                                                                    
                                                                                                    
                                                                                                    
                                                                                                    
                                                                                                    
                                                                                                    
                                                                                                    
                                                                                                    
                                                                                                    
                                                                                                    
                                                                                                    
                                                                                                    
                                                                                                    
                                                                                                    
                                                                                                    
                                                                                                    
                                                                                                    
                                                                                                    
                           
<?xpacket end="w"?></metadata>
<defs>
    <style>
      .cls-1 {
        fill-rule: evenodd;
      }
    </style>
  </defs>
  <path class="cls-1" d="M425.69,266.367V264a2.979,2.979,0,0,0-2.951-3H412.261a2.979,2.979,0,0,0-2.951,3v2.367A1.665,1.665,0,0,0,408,268v2a0.33,0.33,0,0,0,.327.333h0.328V273h0.655v-1.667h16.38V273h0.655v-2.667h0.327A0.331,0.331,0,0,0,427,270v-2A1.666,1.666,0,0,0,425.69,266.367ZM409.965,264a2.318,2.318,0,0,1,2.3-2.334h10.478a2.318,2.318,0,0,1,2.3,2.334v2.333H423.4v-2a0.336,0.336,0,0,0-.205-0.31,5.165,5.165,0,0,0-5.158,0,0.336,0.336,0,0,0-.205.31v2h-0.656v-2a0.336,0.336,0,0,0-.205-0.31,5.165,5.165,0,0,0-5.158,0,0.336,0.336,0,0,0-.206.31v2h-1.638V264Zm12.776,2.333h-4.258v-1.771a4.314,4.314,0,0,1,4.258,0v1.771Zm-6.224,0h-4.258v-1.771a4.314,4.314,0,0,1,4.258,0v1.771Zm9.173,4.333H409.31v-0.333h16.38v0.333Zm0.655-1h-17.69V268a1,1,0,0,1,.985-1h15.72a1,1,0,0,1,.985,1v1.663Z" transform="translate(-408 -261)"/>
</svg>
