<svg xmlns="http://www.w3.org/2000/svg" width="24.998" height="24.998" viewBox="0 0 24 24">
  <metadata><?xpacket begin="﻿" id="W5M0MpCehiHzreSzNTczkc9d"?>
<x:xmpmeta xmlns:x="adobe:ns:meta/" x:xmptk="Adobe XMP Core 5.6-c138 79.159824, 2016/09/14-01:09:01        ">
   <rdf:RDF xmlns:rdf="http://www.w3.org/1999/02/22-rdf-syntax-ns#">
      <rdf:Description rdf:about=""/>
   </rdf:RDF>
</x:xmpmeta>
                                                                                                    
                                                                                                    
                                                                                                    
                                                                                                    
                                                                                                    
                                                                                                    
                                                                                                    
                                                                                                    
                                                                                                    
                                                                                                    
                                                                                                    
                                                                                                    
                                                                                                    
                                                                                                    
                                                                                                    
                                                                                                    
                                                                                                    
                                                                                                    
                                                                                                    
                                                                                                    
                           
<?xpacket end="w"?></metadata>
<defs>
    <style>
      .cls-1 {
        fill-rule: evenodd;
      }
    </style>
  </defs>
  <path id="Forma_1" data-name="Forma 1" class="cls-1" d="M399.745,766.041a1.074,1.074,0,1,0,1.068,1.074A1.072,1.072,0,0,0,399.745,766.041Zm0,1.44a0.366,0.366,0,1,1,.363-0.366A0.365,0.365,0,0,1,399.745,767.481Zm9.664,5.392a0.353,0.353,0,0,0-.335-0.245h-2.092l-0.647-2a0.351,0.351,0,0,0-.67,0l-0.647,2h-2.092a0.352,0.352,0,0,0-.335.245,0.356,0.356,0,0,0,.128.4l1.693,1.237-0.647,2a0.359,0.359,0,0,0,.117.388,0.354,0.354,0,0,0,.425.008L406,775.666l1.693,1.237a0.354,0.354,0,0,0,.44-0.021,0.359,0.359,0,0,0,.1-0.375l-0.646-2,1.693-1.237A0.356,0.356,0,0,0,409.409,772.873Zm-2.442,1.211a0.356,0.356,0,0,0-.128.4l0.391,1.209-1.023-.747a0.351,0.351,0,0,0-.414,0l-1.023.747,0.391-1.209a0.356,0.356,0,0,0-.128-0.4l-1.023-.748h1.264a0.351,0.351,0,0,0,.335-0.244l0.391-1.21,0.39,1.21a0.353,0.353,0,0,0,.336.244h1.264Zm11.015-1.211a0.352,0.352,0,0,0-.335-0.245h-2.092l-0.647-2a0.351,0.351,0,0,0-.67,0l-0.646,2H411.5a0.355,0.355,0,0,0-.207.641l1.693,1.237-0.646,2a0.352,0.352,0,0,0,.542.4l1.692-1.237,1.693,1.237a0.355,0.355,0,0,0,.441-0.021,0.36,0.36,0,0,0,.1-0.375l-0.647-2,1.693-1.237A0.355,0.355,0,0,0,417.982,772.873Zm-2.442,1.211a0.356,0.356,0,0,0-.128.4l0.391,1.209-1.023-.747a0.35,0.35,0,0,0-.414,0l-1.023.747,0.391-1.209a0.355,0.355,0,0,0-.128-0.4l-1.023-.748h1.265a0.353,0.353,0,0,0,.335-0.244l0.39-1.21,0.391,1.21a0.351,0.351,0,0,0,.335.244h1.264Zm-14.705-1.211a0.352,0.352,0,0,0-.335-0.245h-2.092l-0.646-2a0.351,0.351,0,0,0-.67,0l-0.647,2h-2.092a0.355,0.355,0,0,0-.207.641l1.692,1.237-0.646,2a0.353,0.353,0,0,0,.542.4l1.693-1.237,1.692,1.237a0.355,0.355,0,0,0,.441-0.021,0.359,0.359,0,0,0,.1-0.375l-0.646-2,1.692-1.237A0.353,0.353,0,0,0,400.835,772.873Zm-2.441,1.211a0.355,0.355,0,0,0-.128.4l0.39,1.209-1.022-.747a0.351,0.351,0,0,0-.414,0l-1.023.747,0.39-1.209a0.353,0.353,0,0,0-.128-0.4l-1.022-.748H396.7a0.352,0.352,0,0,0,.335-0.244l0.391-1.21,0.39,1.21a0.352,0.352,0,0,0,.335.244h1.264Zm16.754-12.254a1.606,1.606,0,0,0-1-2.856h-5.666a6.555,6.555,0,0,0,.5-1.792,4.458,4.458,0,0,0-.528-3.421A1.877,1.877,0,0,0,407.17,753a0.752,0.752,0,0,0-.832.723,13.534,13.534,0,0,1-.653,3.246,7.867,7.867,0,0,1-3.658,3.145,1.3,1.3,0,0,0-.85-0.317h-2.864a1.312,1.312,0,0,0-1.307,1.314v7.2a1.312,1.312,0,0,0,1.307,1.314h2.864a1.3,1.3,0,0,0,.971-0.436,3.324,3.324,0,0,0,1.8.5h9.2a17.423,17.423,0,0,1,2.093-4.108,1.609,1.609,0,0,1,.5-2.5A1.609,1.609,0,0,0,415.148,761.83Zm-13.971,7.091h-2.864a0.6,0.6,0,0,1-.6-0.606v-7.2a0.6,0.6,0,0,1,.6-0.606h2.864a0.6,0.6,0,0,1,.429.182v7.9a0.366,0.366,0,0,0,.022.123A0.6,0.6,0,0,1,401.177,768.921Zm11.492-6.736h1.48a0.9,0.9,0,0,1,0,1.794h-1.48a0.354,0.354,0,0,0,0,.708h0.982a0.9,0.9,0,0,1,0,1.794H412.4a0.354,0.354,0,0,0,0,.708h0.755a0.9,0.9,0,0,1,0,1.794h-9.2a2.6,2.6,0,0,1-1.488-.429,1.258,1.258,0,0,0,.022-0.239v-7.2a1.31,1.31,0,0,0-.061-0.4,8.373,8.373,0,0,0,3.893-3.427,14.554,14.554,0,0,0,.725-3.509c0-.011,0-0.023,0-0.034a0.039,0.039,0,0,1,.014-0.03,0.033,0.033,0,0,1,.028-0.01,1.19,1.19,0,0,1,.808.485,3.813,3.813,0,0,1,.389,2.89,4.555,4.555,0,0,1-.675,2.022,0.358,0.358,0,0,0,.273.579h6.27a0.9,0.9,0,0,1,0,1.794h-1.48A0.354,0.354,0,0,0,412.669,762.185Z" transform="translate(-394 -753)"/>
</svg>
