<svg xmlns="http://www.w3.org/2000/svg" width="30" height="30" viewBox="0 0 17 17">
  <metadata><?xpacket begin="﻿" id="W5M0MpCehiHzreSzNTczkc9d"?>
<x:xmpmeta xmlns:x="adobe:ns:meta/" x:xmptk="Adobe XMP Core 5.6-c138 79.159824, 2016/09/14-01:09:01        ">
   <rdf:RDF xmlns:rdf="http://www.w3.org/1999/02/22-rdf-syntax-ns#">
      <rdf:Description rdf:about=""/>
   </rdf:RDF>
</x:xmpmeta>
                                                                                                    
                                                                                                    
                                                                                                    
                                                                                                    
                                                                                                    
                                                                                                    
                                                                                                    
                                                                                                    
                                                                                                    
                                                                                                    
                                                                                                    
                                                                                                    
                                                                                                    
                                                                                                    
                                                                                                    
                                                                                                    
                                                                                                    
                                                                                                    
                                                                                                    
                                                                                                    
                           
<?xpacket end="w"?></metadata>
<defs>
    <style>
      .cls-1 {
        fill: #727272;
        fill-rule: evenodd;
      }
    </style>
  </defs>
  <path class="cls-1" d="M672.557,69.041l-1.7-1.365V62.5a0.473,0.473,0,0,0-.463-0.5h-1.949a0.514,0.514,0,0,0-.511.5v2.831l-3.114-2.51a0.47,0.47,0,0,0-.6,0l-7.773,6.23a1.2,1.2,0,0,0-.452.932v0.607a1.193,1.193,0,0,0,1.181,1.184h0.767V78.5a0.514,0.514,0,0,0,.512.5h12.129a0.473,0.473,0,0,0,.463-0.5v-6.73h0.815A1.152,1.152,0,0,0,673,70.587V69.973A1.186,1.186,0,0,0,672.557,69.041ZM668.908,63h0.974v3.9l-0.974-.782V63ZM666.132,78h-3.313V72.569h3.313V78Zm3.945,0h-2.971V72.07a0.454,0.454,0,0,0-.438-0.5h-4.287a0.536,0.536,0,0,0-.536.5V78h-2.922V70.86l5.584-4.481,5.57,4.473V78Zm1.949-7.416a0.166,0.166,0,0,1-.159.187h-0.815V70.61a0.492,0.492,0,0,0-.175-0.392l-6.051-4.864a0.473,0.473,0,0,0-.6,0l-6.082,4.872a0.513,0.513,0,0,0-.2.392v0.156h-0.767a0.207,0.207,0,0,1-.207-0.187V69.981a0.2,0.2,0,0,1,.082-0.147l7.47-5.989,7.439,5.981a0.181,0.181,0,0,1,.061.147v0.614Z" transform="translate(-656 -62)"/>
</svg>
