<svg xmlns="http://www.w3.org/2000/svg" width="16" height="19" viewBox="0 0 16 19">
  <metadata><?xpacket begin="﻿" id="W5M0MpCehiHzreSzNTczkc9d"?>
<x:xmpmeta xmlns:x="adobe:ns:meta/" x:xmptk="Adobe XMP Core 5.6-c138 79.159824, 2016/09/14-01:09:01        ">
   <rdf:RDF xmlns:rdf="http://www.w3.org/1999/02/22-rdf-syntax-ns#">
      <rdf:Description rdf:about=""/>
   </rdf:RDF>
</x:xmpmeta>
                                                                                                    
                                                                                                    
                                                                                                    
                                                                                                    
                                                                                                    
                                                                                                    
                                                                                                    
                                                                                                    
                                                                                                    
                                                                                                    
                                                                                                    
                                                                                                    
                                                                                                    
                                                                                                    
                                                                                                    
                                                                                                    
                                                                                                    
                                                                                                    
                                                                                                    
                                                                                                    
                           
<?xpacket end="w"?></metadata>
<defs>
    <style>
      .cls-1 {
        fill: #fff;
        fill-rule: evenodd;
      }
    </style>
  </defs>
  <path id="Forma_1" data-name="Forma 1" class="cls-1" d="M15.714,2.2h-2V1.3A0.293,0.293,0,0,0,13.428,1h-2a0.293,0.293,0,0,0-.286.3V2.2H4.857V1.3A0.293,0.293,0,0,0,4.571,1h-2a0.293,0.293,0,0,0-.286.3V2.2h-2A0.293,0.293,0,0,0,0,2.5V18.7a0.293,0.293,0,0,0,.286.3H15.714A0.293,0.293,0,0,0,16,18.7V2.5A0.293,0.293,0,0,0,15.714,2.2Zm-4-.6h1.428V3.4H11.714V1.6Zm-8.857,0H4.286V3.4H2.857V1.6ZM0.571,2.8H2.286V3.7a0.293,0.293,0,0,0,.286.3h2a0.293,0.293,0,0,0,.286-0.3V2.8h6.286V3.7a0.293,0.293,0,0,0,.286.3h2a0.293,0.293,0,0,0,.286-0.3V2.8h1.714V5.5H0.571V2.8Zm0,15.6V6.1H15.428V18.4H0.571ZM10.286,7.9H2.571v8.7H13.428V7.9H10.286Zm-2,.6h2v2.1h-2V8.5Zm2,4.8h-2V11.2h2v2.1ZM5.714,11.2h2v2.1h-2V11.2Zm0-2.7h2v2.1h-2V8.5Zm-2.571,0h2v2.1h-2V8.5Zm0,2.7h2v2.1h-2V11.2Zm2,4.8h-2V13.9h2V16Zm2.572,0h-2V13.9h2V16Zm2.571,0h-2V13.9h2V16Zm2.572,0h-2V13.9h2V16Zm0-2.7h-2V11.2h2v2.1Zm0-4.8v2.1h-2V8.5h2Z"/>
</svg>
