<svg xmlns="http://www.w3.org/2000/svg" width="28" height="25" viewBox="0 0 28 25">
  <metadata><?xpacket begin="﻿" id="W5M0MpCehiHzreSzNTczkc9d"?>
<x:xmpmeta xmlns:x="adobe:ns:meta/" x:xmptk="Adobe XMP Core 5.6-c138 79.159824, 2016/09/14-01:09:01        ">
   <rdf:RDF xmlns:rdf="http://www.w3.org/1999/02/22-rdf-syntax-ns#">
      <rdf:Description rdf:about=""/>
   </rdf:RDF>
</x:xmpmeta>
                                                                                                    
                                                                                                    
                                                                                                    
                                                                                                    
                                                                                                    
                                                                                                    
                                                                                                    
                                                                                                    
                                                                                                    
                                                                                                    
                                                                                                    
                                                                                                    
                                                                                                    
                                                                                                    
                                                                                                    
                                                                                                    
                                                                                                    
                                                                                                    
                                                                                                    
                                                                                                    
                           
<?xpacket end="w"?></metadata>
<defs>
    <style>
      .cls-1 {
        fill: #414141;
        fill-rule: evenodd;
      }
    </style>
  </defs>
  <path id="Forma_1" data-name="Forma 1" class="cls-1" d="M164.829,1345.59h0.007a2.321,2.321,0,0,0-.756-4.58h-0.007A2.321,2.321,0,0,0,164.829,1345.59Zm8.576,13.71-4.512-4.55a49.061,49.061,0,0,1-1.181-5.82,1.721,1.721,0,0,1,.067-0.91s2.267-5.79,2.5-6.43a1.02,1.02,0,0,0-.227-1.37,0.889,0.889,0,0,0-1.379.22l-2.429,5.8a3.042,3.042,0,0,0-1.3-.12H164.9a3.063,3.063,0,0,0-1.195.54l-4.164-4.73a0.878,0.878,0,0,0-1.38.23,1.078,1.078,0,0,0,.226,1.37c0.363,0.43,4.433,5.3,4.433,5.3a1.747,1.747,0,0,1,.356.84c0.007,0.05.009,0.06,0.882,5.35l0.585,8.95a1.108,1.108,0,0,0,1.106,1.03h0.073a1.107,1.107,0,0,0,1.034-1.17s-0.528-7.79-.528-8.07c0-.18.172-0.28,0.375-0.07s5.12,5.16,5.12,5.16a1.114,1.114,0,0,0,1.568.01A1.1,1.1,0,0,0,173.405,1359.3Zm5.088-11.56h0a0.026,0.026,0,0,0,.024.01c0.007,0,.015.01,0.023,0.01h0.005a1.809,1.809,0,0,0,1.178-3.42H179.7a0.024,0.024,0,0,0-.023-0.01h0c0-.01,0-0.01,0-0.01h0a1.819,1.819,0,0,0-2.277,1.14A1.8,1.8,0,0,0,178.493,1347.74Zm7.479,0.75c-0.1-.41-0.5-0.59-1.223-0.44l-5.446.58a2.13,2.13,0,0,0-.906-0.52,2.168,2.168,0,0,0-1.035-.14l-3.941-3.78c-0.481-.56-0.909-0.67-1.238-0.4a0.815,0.815,0,0,0-.238,1.11c0.35,0.44,3.876,4.03,4,4.24a0.688,0.688,0,0,1-.067.71c-0.061.17-1,2.77-1.354,3.73l-4.656,3.12a0.886,0.886,0,1,0,.991,1.47s4.91-3.28,5.029-3.37,0.278-.04.225,0.13l-2.108,6.62a0.884,0.884,0,0,0,.578,1.11,0.834,0.834,0,0,0,.268.04,0.889,0.889,0,0,0,.846-0.61l2.317-7.29a0.749,0.749,0,0,0,.024-0.09c1.317-3.82,1.307-3.79,1.273-3.69a0.674,0.674,0,0,1,.383-0.6c0.227-.09,5.23-0.78,5.773-0.9A0.83,0.83,0,0,0,185.972,1348.49Z" transform="translate(-158 -1340)"/>
</svg>
