<svg xmlns="http://www.w3.org/2000/svg" width="54" height="54" viewBox="0 0 54 54">
  <metadata><?xpacket begin="﻿" id="W5M0MpCehiHzreSzNTczkc9d"?>
<x:xmpmeta xmlns:x="adobe:ns:meta/" x:xmptk="Adobe XMP Core 5.6-c138 79.159824, 2016/09/14-01:09:01        ">
   <rdf:RDF xmlns:rdf="http://www.w3.org/1999/02/22-rdf-syntax-ns#">
      <rdf:Description rdf:about=""/>
   </rdf:RDF>
</x:xmpmeta>
                                                                                                    
                                                                                                    
                                                                                                    
                                                                                                    
                                                                                                    
                                                                                                    
                                                                                                    
                                                                                                    
                                                                                                    
                                                                                                    
                                                                                                    
                                                                                                    
                                                                                                    
                                                                                                    
                                                                                                    
                                                                                                    
                                                                                                    
                                                                                                    
                                                                                                    
                                                                                                    
                           
<?xpacket end="w"?></metadata>
<defs>
    <style>
      .cls-1 {
        fill: #f27280;
        fill-rule: evenodd;
      }
    </style>
  </defs>
  <path class="cls-1" d="M296.7,1080.6h4.5a0.85,0.85,0,0,0,.9-0.9v-3.6a0.85,0.85,0,0,0-.9-0.9h-4.5a0.85,0.85,0,0,0-.9.9v3.6A0.85,0.85,0,0,0,296.7,1080.6Zm0.9-3.6h2.7v1.8h-2.7V1077Zm7.2,3.6h4.5a0.85,0.85,0,0,0,.9-0.9v-3.6a0.85,0.85,0,0,0-.9-0.9h-4.5a0.85,0.85,0,0,0-.9.9v3.6A0.85,0.85,0,0,0,304.8,1080.6Zm0.9-3.6h2.7v1.8h-2.7V1077Zm-9,10.8h4.5a0.85,0.85,0,0,0,.9-0.9v-3.6a0.85,0.85,0,0,0-.9-0.9h-4.5a0.85,0.85,0,0,0-.9.9v3.6A0.85,0.85,0,0,0,296.7,1087.8Zm0.9-3.6h2.7v1.8h-2.7v-1.8Zm7.2,3.6h4.5a0.85,0.85,0,0,0,.9-0.9v-3.6a0.85,0.85,0,0,0-.9-0.9h-4.5a0.85,0.85,0,0,0-.9.9v3.6A0.85,0.85,0,0,0,304.8,1087.8Zm0.9-3.6h2.7v1.8h-2.7v-1.8Zm-9,10.8h4.5a0.85,0.85,0,0,0,.9-0.9v-3.6a0.85,0.85,0,0,0-.9-0.9h-4.5a0.85,0.85,0,0,0-.9.9v3.6A0.85,0.85,0,0,0,296.7,1095Zm0.9-3.6h2.7v1.8h-2.7v-1.8Zm7.2,3.6h4.5a0.85,0.85,0,0,0,.9-0.9v-3.6a0.85,0.85,0,0,0-.9-0.9h-4.5a0.85,0.85,0,0,0-.9.9v3.6A0.85,0.85,0,0,0,304.8,1095Zm0.9-3.6h2.7v1.8h-2.7v-1.8Zm-9,10.8h4.5a0.85,0.85,0,0,0,.9-0.9v-3.6a0.85,0.85,0,0,0-.9-0.9h-4.5a0.85,0.85,0,0,0-.9.9v3.6A0.85,0.85,0,0,0,296.7,1102.2Zm0.9-3.6h2.7v1.8h-2.7v-1.8Zm7.2,3.6h4.5a0.85,0.85,0,0,0,.9-0.9v-3.6a0.85,0.85,0,0,0-.9-0.9h-4.5a0.85,0.85,0,0,0-.9.9v3.6A0.85,0.85,0,0,0,304.8,1102.2Zm0.9-3.6h2.7v1.8h-2.7v-1.8Zm-9,10.8h4.5a0.85,0.85,0,0,0,.9-0.9v-3.6a0.85,0.85,0,0,0-.9-0.9h-4.5a0.85,0.85,0,0,0-.9.9v3.6A0.85,0.85,0,0,0,296.7,1109.4Zm0.9-3.6h2.7v1.8h-2.7v-1.8Zm7.2,3.6h4.5a0.85,0.85,0,0,0,.9-0.9v-3.6a0.85,0.85,0,0,0-.9-0.9h-4.5a0.85,0.85,0,0,0-.9.9v3.6A0.85,0.85,0,0,0,304.8,1109.4Zm0.9-3.6h2.7v1.8h-2.7v-1.8Zm-19.8-23.4h-4.5a0.85,0.85,0,0,0-.9.9v3.6a0.85,0.85,0,0,0,.9.9h4.5a0.85,0.85,0,0,0,.9-0.9v-3.6A0.85,0.85,0,0,0,285.9,1082.4ZM285,1086h-2.7v-1.8H285v1.8Zm0.9,3.6h-4.5a0.85,0.85,0,0,0-.9.9v3.6a0.85,0.85,0,0,0,.9.9h4.5a0.85,0.85,0,0,0,.9-0.9v-3.6A0.85,0.85,0,0,0,285.9,1089.6Zm-0.9,3.6h-2.7v-1.8H285v1.8Zm0.9,3.6h-4.5a0.85,0.85,0,0,0-.9.9v3.6a0.85,0.85,0,0,0,.9.9h4.5a0.85,0.85,0,0,0,.9-0.9v-3.6A0.85,0.85,0,0,0,285.9,1096.8Zm-0.9,3.6h-2.7v-1.8H285v1.8Zm0.9,3.6h-4.5a0.85,0.85,0,0,0-.9.9v3.6a0.85,0.85,0,0,0,.9.9h4.5a0.85,0.85,0,0,0,.9-0.9v-3.6A0.85,0.85,0,0,0,285.9,1104Zm-0.9,3.6h-2.7v-1.8H285v1.8Zm35.1-12.6h4.5a0.85,0.85,0,0,0,.9-0.9v-3.6a0.85,0.85,0,0,0-.9-0.9h-4.5a0.85,0.85,0,0,0-.9.9v3.6A0.85,0.85,0,0,0,320.1,1095Zm0.9-3.6h2.7v1.8H321v-1.8Zm-0.9,10.8h4.5a0.85,0.85,0,0,0,.9-0.9v-3.6a0.85,0.85,0,0,0-.9-0.9h-4.5a0.85,0.85,0,0,0-.9.9v3.6A0.85,0.85,0,0,0,320.1,1102.2Zm0.9-3.6h2.7v1.8H321v-1.8Zm-0.9,10.8h4.5a0.85,0.85,0,0,0,.9-0.9v-3.6a0.85,0.85,0,0,0-.9-0.9h-4.5a0.85,0.85,0,0,0-.9.9v3.6A0.85,0.85,0,0,0,320.1,1109.4Zm0.9-3.6h2.7v1.8H321v-1.8Zm9-18.9v-3.6a0.85,0.85,0,0,0-.9-0.9H313.8v-9a0.85,0.85,0,0,0,.9-0.9v-3.6a0.85,0.85,0,0,0-.9-0.9H292.2a0.85,0.85,0,0,0-.9.9v3.6a0.85,0.85,0,0,0,.9.9v1.8H276.9a0.85,0.85,0,0,0-.9.9v3.6a0.85,0.85,0,0,0,.9.9v34.2a0.85,0.85,0,0,0-.9.9v5.4a0.85,0.85,0,0,0,.9.9h52.2a0.85,0.85,0,0,0,.9-0.9v-5.4a0.85,0.85,0,0,0-.9-0.9v-27A0.85,0.85,0,0,0,330,1086.9Zm-1.8-2.7v1.8H313.8v-1.8h14.4Zm-14.4,7.2h1.8v1.8h-1.8v-1.8Zm0,7.2h1.8v1.8h-1.8v-1.8Zm0,7.2h1.8v1.8h-1.8v-1.8Zm-20.7-36h19.8v1.8H293.1v-1.8Zm18.9,3.6v41.4H294v-41.4h18Zm-19.8,34.2h-1.8v-1.8h1.8v1.8Zm0-7.2h-1.8v-1.8h1.8v1.8Zm0-7.2h-1.8v-1.8h1.8v1.8Zm0-7.2h-1.8v-1.8h1.8v1.8Zm-14.4-9h14.4v1.8H277.8V1077Zm0.9,3.6h13.5v1.8h-2.7a0.85,0.85,0,0,0-.9.9v3.6a0.85,0.85,0,0,0,.9.9h2.7v1.8h-2.7a0.85,0.85,0,0,0-.9.9v3.6a0.85,0.85,0,0,0,.9.9h2.7v1.8h-2.7a0.85,0.85,0,0,0-.9.9v3.6a0.85,0.85,0,0,0,.9.9h2.7v1.8h-2.7a0.85,0.85,0,0,0-.9.9v3.6a0.85,0.85,0,0,0,.9.9h2.7v5.4H278.7v-34.2Zm49.5,39.6H277.8v-3.6h50.4v3.6h0Zm-0.9-5.4H313.8v-5.4h2.7a0.85,0.85,0,0,0,.9-0.9v-3.6a0.85,0.85,0,0,0-.9-0.9h-2.7v-1.8h2.7a0.85,0.85,0,0,0,.9-0.9v-3.6a0.85,0.85,0,0,0-.9-0.9h-2.7V1095h2.7a0.85,0.85,0,0,0,.9-0.9v-3.6a0.85,0.85,0,0,0-.9-0.9h-2.7v-1.8h13.5v27Z" transform="translate(-276 -1068)"/>
</svg>
