<svg xmlns="http://www.w3.org/2000/svg" width="17" height="8" viewBox="0 0 17 8">
  <metadata><?xpacket begin="﻿" id="W5M0MpCehiHzreSzNTczkc9d"?>
<x:xmpmeta xmlns:x="adobe:ns:meta/" x:xmptk="Adobe XMP Core 5.6-c138 79.159824, 2016/09/14-01:09:01        ">
   <rdf:RDF xmlns:rdf="http://www.w3.org/1999/02/22-rdf-syntax-ns#">
      <rdf:Description rdf:about=""/>
   </rdf:RDF>
</x:xmpmeta>
                                                                                                    
                                                                                                    
                                                                                                    
                                                                                                    
                                                                                                    
                                                                                                    
                                                                                                    
                                                                                                    
                                                                                                    
                                                                                                    
                                                                                                    
                                                                                                    
                                                                                                    
                                                                                                    
                                                                                                    
                                                                                                    
                                                                                                    
                                                                                                    
                                                                                                    
                                                                                                    
                           
<?xpacket end="w"?></metadata>
<defs>
    <style>
      .cls-1 {
        fill: #fff;
        fill-rule: evenodd;
      }
    </style>
  </defs>
  <path id="Forma_1" data-name="Forma 1" class="cls-1" d="M0.1,3.715L3.877,0.055A0.3,0.3,0,0,1,4.221,0a0.3,0.3,0,0,1,.187.3V2.649H16.684a0.3,0.3,0,0,1,.226.094,0.337,0.337,0,0,1,.088.24V4.99a0.336,0.336,0,0,1-.088.24,0.3,0.3,0,0,1-.226.094H4.408V7.666a0.317,0.317,0,0,1-.187.3,0.294,0.294,0,0,1-.345-0.063L0.1,4.206A0.352,0.352,0,0,1,0,3.955,0.34,0.34,0,0,1,.1,3.715Z"/>
</svg>
