<svg xmlns="http://www.w3.org/2000/svg" width="25.041" height="22.179" viewBox="0 0 18.031 15.97">
  <metadata><?xpacket begin="﻿" id="W5M0MpCehiHzreSzNTczkc9d"?>
<x:xmpmeta xmlns:x="adobe:ns:meta/" x:xmptk="Adobe XMP Core 5.6-c138 79.159824, 2016/09/14-01:09:01        ">
   <rdf:RDF xmlns:rdf="http://www.w3.org/1999/02/22-rdf-syntax-ns#">
      <rdf:Description rdf:about=""/>
   </rdf:RDF>
</x:xmpmeta>
                                                                                                    
                                                                                                    
                                                                                                    
                                                                                                    
                                                                                                    
                                                                                                    
                                                                                                    
                                                                                                    
                                                                                                    
                                                                                                    
                                                                                                    
                                                                                                    
                                                                                                    
                                                                                                    
                                                                                                    
                                                                                                    
                                                                                                    
                                                                                                    
                                                                                                    
                                                                                                    
                           
<?xpacket end="w"?></metadata>
<defs>
    <style>
      .cls-1 {
        fill: #414141;
        fill-rule: evenodd;
      }
    </style>
  </defs>
  <path id="Forma_1" data-name="Forma 1" class="cls-1" d="M168.169,1131.37a4.4,4.4,0,0,0-7.468,0l-2.245,3.56a2.655,2.655,0,0,0,.211,3.12,2.567,2.567,0,0,0,3,.7h0a6.736,6.736,0,0,1,5.525,0,2.566,2.566,0,0,0,3-.7,2.654,2.654,0,0,0,.212-3.12Zm-9.276-.34a2.239,2.239,0,0,0,1.024-2.95,2.195,2.195,0,0,0-2.711-1.5,2.249,2.249,0,0,0-1.024,2.96A2.2,2.2,0,0,0,158.893,1131.03Zm4.053-2.22a2.951,2.951,0,1,0-2.434-2.91A2.7,2.7,0,0,0,162.946,1128.81Zm4.54,0.86a2.674,2.674,0,0,0,3.212-1.98,2.724,2.724,0,0,0-1.409-3.53,2.666,2.666,0,0,0-3.211,1.97A2.732,2.732,0,0,0,167.486,1129.67Zm5.781-.44a2.175,2.175,0,0,0-3.007.71,2.261,2.261,0,0,0,.211,3.13,2.184,2.184,0,0,0,3.007-.71A2.26,2.26,0,0,0,173.267,1129.23Z" transform="translate(-156 -1123)"/>
</svg>
