<svg xmlns="http://www.w3.org/2000/svg" width="9" height="18" viewBox="0 0 9 18">
  <metadata><?xpacket begin="﻿" id="W5M0MpCehiHzreSzNTczkc9d"?>
<x:xmpmeta xmlns:x="adobe:ns:meta/" x:xmptk="Adobe XMP Core 5.6-c138 79.159824, 2016/09/14-01:09:01        ">
   <rdf:RDF xmlns:rdf="http://www.w3.org/1999/02/22-rdf-syntax-ns#">
      <rdf:Description rdf:about=""/>
   </rdf:RDF>
</x:xmpmeta>
                                                                                                    
                                                                                                    
                                                                                                    
                                                                                                    
                                                                                                    
                                                                                                    
                                                                                                    
                                                                                                    
                                                                                                    
                                                                                                    
                                                                                                    
                                                                                                    
                                                                                                    
                                                                                                    
                                                                                                    
                                                                                                    
                                                                                                    
                                                                                                    
                                                                                                    
                                                                                                    
                           
<?xpacket end="w"?></metadata>
<defs>
    <style>
      .cls-1 {
        fill: #414141;
        fill-rule: evenodd;
      }
    </style>
  </defs>
  <path id="Forma_1" data-name="Forma 1" class="cls-1" d="M597.463,1298.46h-1.4v-0.7h0.34a0.541,0.541,0,0,0,.549-0.53v-1.7a0.541,0.541,0,0,0-.549-0.53h-1.779a0.542,0.542,0,0,0-.549.53v0.32h-1.641a1.41,1.41,0,0,0-1.434,1.38v0.32a0.55,0.55,0,0,0,1.1,0v-0.32a0.326,0.326,0,0,1,.335-0.32h1.641v0.32a0.542,0.542,0,0,0,.549.53h0.34v0.7h-1.4a0.533,0.533,0,0,0-.549.52v0.76h5v-0.76A0.534,0.534,0,0,0,597.463,1298.46Zm0.7,2.33h-5.3a2.016,2.016,0,0,0-1.837,1.97v9.71a0.541,0.541,0,0,0,.549.53h7.874a0.542,0.542,0,0,0,.549-0.53v-9.71A2.016,2.016,0,0,0,598.163,1300.79Z" transform="translate(-591 -1295)"/>
</svg>
