<svg xmlns="http://www.w3.org/2000/svg" width="18" height="18" viewBox="0 0 18 18">
  <metadata><?xpacket begin="﻿" id="W5M0MpCehiHzreSzNTczkc9d"?>
<x:xmpmeta xmlns:x="adobe:ns:meta/" x:xmptk="Adobe XMP Core 5.6-c138 79.159824, 2016/09/14-01:09:01        ">
   <rdf:RDF xmlns:rdf="http://www.w3.org/1999/02/22-rdf-syntax-ns#">
      <rdf:Description rdf:about=""/>
   </rdf:RDF>
</x:xmpmeta>
                                                                                                    
                                                                                                    
                                                                                                    
                                                                                                    
                                                                                                    
                                                                                                    
                                                                                                    
                                                                                                    
                                                                                                    
                                                                                                    
                                                                                                    
                                                                                                    
                                                                                                    
                                                                                                    
                                                                                                    
                                                                                                    
                                                                                                    
                                                                                                    
                                                                                                    
                                                                                                    
                           
<?xpacket end="w"?></metadata>
<defs>
    <style>
      .cls-1 {
        fill-rule: evenodd;
      }
    </style>
  </defs>
  <path id="Forma_1" data-name="Forma 1" class="cls-1" d="M598.125,1391.5h-14.25a1.875,1.875,0,0,0-1.875,1.87v8.25a1.877,1.877,0,0,0,1.875,1.88h14.25a1.878,1.878,0,0,0,1.875-1.88v-8.25A1.876,1.876,0,0,0,598.125,1391.5Zm1.125,10.12a1.131,1.131,0,0,1-1.125,1.13h-14.25a1.131,1.131,0,0,1-1.125-1.13v-8.25a1.122,1.122,0,0,1,1.125-1.12h14.25a1.122,1.122,0,0,1,1.125,1.12v8.25h0Zm-7.125-8.62h-6a2.628,2.628,0,0,0-2.625,2.62v3.75a2.63,2.63,0,0,0,2.625,2.63h6a2.631,2.631,0,0,0,2.625-2.63v-3.75A2.629,2.629,0,0,0,592.125,1393Zm1.875,6.37a1.878,1.878,0,0,1-1.875,1.88h-6a1.877,1.877,0,0,1-1.875-1.88v-3.75a1.875,1.875,0,0,1,1.875-1.87h6a1.876,1.876,0,0,1,1.875,1.87v3.75Zm3.375-5.62h-1.5a0.375,0.375,0,1,0,0,.75h1.5A0.375,0.375,0,1,0,597.375,1393.75Zm0,1.5h-1.5a0.375,0.375,0,1,0,0,.75h1.5A0.375,0.375,0,1,0,597.375,1395.25Zm0,1.5h-1.5a0.375,0.375,0,1,0,0,.75h1.5A0.375,0.375,0,1,0,597.375,1396.75Zm0,1.5h-1.5a0.375,0.375,0,0,0-.375.37v3a0.378,0.378,0,0,0,.375.38h1.5a0.378,0.378,0,0,0,.375-0.38v-3A0.375,0.375,0,0,0,597.375,1398.25Zm-0.375,3h-0.75V1399H597v2.25Zm-12.375,1.5a0.375,0.375,0,0,0-.375.37v1.5a0.375,0.375,0,1,0,.75,0v-1.5A0.375,0.375,0,0,0,584.625,1402.75Zm12.75,0a0.375,0.375,0,0,0-.375.37v1.5a0.375,0.375,0,1,0,.75,0v-1.5A0.375,0.375,0,0,0,597.375,1402.75Zm-2.735-15.64a0.37,0.37,0,0,0-.531,0l-4.234,4.23-4.235-4.23a0.37,0.37,0,0,0-.531,0,0.375,0.375,0,0,0,0,.53l4.5,4.5a0.391,0.391,0,0,0,.266.11,0.387,0.387,0,0,0,.265-0.11l4.5-4.5A0.375,0.375,0,0,0,594.64,1387.11Z" transform="translate(-582 -1387)"/>
</svg>
