<svg xmlns="http://www.w3.org/2000/svg" width="59.997" height="52.854" viewBox="0 0 42 37">
  <metadata><?xpacket begin="﻿" id="W5M0MpCehiHzreSzNTczkc9d"?>
<x:xmpmeta xmlns:x="adobe:ns:meta/" x:xmptk="Adobe XMP Core 5.6-c138 79.159824, 2016/09/14-01:09:01        ">
   <rdf:RDF xmlns:rdf="http://www.w3.org/1999/02/22-rdf-syntax-ns#">
      <rdf:Description rdf:about=""/>
   </rdf:RDF>
</x:xmpmeta>
                                                                                                    
                                                                                                    
                                                                                                    
                                                                                                    
                                                                                                    
                                                                                                    
                                                                                                    
                                                                                                    
                                                                                                    
                                                                                                    
                                                                                                    
                                                                                                    
                                                                                                    
                                                                                                    
                                                                                                    
                                                                                                    
                                                                                                    
                                                                                                    
                                                                                                    
                                                                                                    
                           
<?xpacket end="w"?></metadata>
<defs>
    <style>
      .cls-1 {
        fill: #cbc9c9;
        fill-rule: evenodd;
      }
    </style>
  </defs>
  <path id="Forma_1" data-name="Forma 1" class="cls-1" d="M121.817,398.657V371.211h-3.074a0.74,0.74,0,0,0-.74.738v30.309a0.742,0.742,0,0,0,.74.741h35.089a0.741,0.741,0,0,0,.741-0.741V399.4H122.559A0.739,0.739,0,0,1,121.817,398.657ZM159.255,366H124.169a0.739,0.739,0,0,0-.74.738v30.309a0.743,0.743,0,0,0,.74.743h35.086a0.744,0.744,0,0,0,.741-0.743V366.738A0.742,0.742,0,0,0,159.255,366Zm-26,2.755a3.928,3.928,0,1,1-3.935,3.93A3.933,3.933,0,0,1,133.258,368.755Zm24.331,19.88H126.241v-0.3l6.186-7.055,3.481,2.343,4.056-6.939,4.713,3.336,4.258-8.814,8.654,17.1v0.327Z" transform="translate(-118 -366)"/>
</svg>
