<svg xmlns="http://www.w3.org/2000/svg" width="64" height="57" viewBox="0 0 64 57">
  <metadata><?xpacket begin="﻿" id="W5M0MpCehiHzreSzNTczkc9d"?>
<x:xmpmeta xmlns:x="adobe:ns:meta/" x:xmptk="Adobe XMP Core 5.6-c138 79.159824, 2016/09/14-01:09:01        ">
   <rdf:RDF xmlns:rdf="http://www.w3.org/1999/02/22-rdf-syntax-ns#">
      <rdf:Description rdf:about=""/>
   </rdf:RDF>
</x:xmpmeta>
                                                                                                    
                                                                                                    
                                                                                                    
                                                                                                    
                                                                                                    
                                                                                                    
                                                                                                    
                                                                                                    
                                                                                                    
                                                                                                    
                                                                                                    
                                                                                                    
                                                                                                    
                                                                                                    
                                                                                                    
                                                                                                    
                                                                                                    
                                                                                                    
                                                                                                    
                                                                                                    
                           
<?xpacket end="w"?></metadata>
<defs>
    <style>
      .cls-1 {
        fill: #cbc9c9;
        fill-rule: evenodd;
      }
    </style>
  </defs>
  <path id="Forma_1" data-name="Forma 1" class="cls-1" d="M276,795.429l-12,8.14a8.142,8.142,0,0,0-2.812-6.15,14,14,0,1,0-16.964-1.99h-7.336A12.237,12.237,0,0,0,240,787.287a12,12,0,1,0-19.834,9.18,8.129,8.129,0,0,0-4.163,7.1v16.283a8.071,8.071,0,0,0,8,8.142h32a8.072,8.072,0,0,0,8-8.142l12,8.142a4.035,4.035,0,0,0,4-4.07V799.5A4.035,4.035,0,0,0,276,795.429Zm-47.995,0a8.143,8.143,0,1,1,8-8.142A8.072,8.072,0,0,1,228,795.429Zm26,0.021a10.2,10.2,0,1,1,10.02-10.2A10.111,10.111,0,0,1,254,795.45Z" transform="translate(-216 -771)"/>
</svg>
