<svg xmlns="http://www.w3.org/2000/svg" width="57" height="57" viewBox="0 0 57 57">
  <metadata><?xpacket begin="﻿" id="W5M0MpCehiHzreSzNTczkc9d"?>
<x:xmpmeta xmlns:x="adobe:ns:meta/" x:xmptk="Adobe XMP Core 5.6-c138 79.159824, 2016/09/14-01:09:01        ">
   <rdf:RDF xmlns:rdf="http://www.w3.org/1999/02/22-rdf-syntax-ns#">
      <rdf:Description rdf:about=""/>
   </rdf:RDF>
</x:xmpmeta>
                                                                                                    
                                                                                                    
                                                                                                    
                                                                                                    
                                                                                                    
                                                                                                    
                                                                                                    
                                                                                                    
                                                                                                    
                                                                                                    
                                                                                                    
                                                                                                    
                                                                                                    
                                                                                                    
                                                                                                    
                                                                                                    
                                                                                                    
                                                                                                    
                                                                                                    
                                                                                                    
                           
<?xpacket end="w"?></metadata>
<defs>
    <style>
      .cls-1 {
        fill: #f27280;
        fill-rule: evenodd;
      }
    </style>
  </defs>
  <path class="cls-1" d="M709.25,1089.98v-1.23a2.855,2.855,0,0,0-2.85-2.85h-8.55a2.855,2.855,0,0,0-2.85,2.85v1.03a6.65,6.65,0,0,0-5.7,6.57v19a2.833,2.833,0,0,0,1.9,2.67v1.13a2.85,2.85,0,1,0,5.7,0v-0.95h9.5v0.95a2.85,2.85,0,1,0,5.7,0v-1.13a2.833,2.833,0,0,0,1.9-2.67v-19A6.655,6.655,0,0,0,709.25,1089.98Zm-12.35-1.23a0.947,0.947,0,0,1,.95-0.95h8.55a0.948,0.948,0,0,1,.95.95v0.95H696.9v-0.95Zm-1.9,30.4a0.95,0.95,0,0,1-1.9,0v-0.95H695v0.95Zm15.2,0a0.95,0.95,0,0,1-1.9,0v-0.95h1.9v0.95Zm1.9-3.8a0.954,0.954,0,0,1-.95.95h-19a0.954,0.954,0,0,1-.95-0.95v-19a4.755,4.755,0,0,1,4.75-4.75h11.4a4.755,4.755,0,0,1,4.75,4.75v19ZM695,1095.4a0.947,0.947,0,0,0-.95.95v16.15a0.95,0.95,0,0,0,1.9,0v-16.15A0.947,0.947,0,0,0,695,1095.4Zm6.65,0a0.947,0.947,0,0,0-.95.95v16.15a0.95,0.95,0,1,0,1.9,0v-16.15A0.947,0.947,0,0,0,701.65,1095.4Zm6.65,0a0.947,0.947,0,0,0-.95.95v16.15a0.95,0.95,0,1,0,1.9,0v-16.15A0.947,0.947,0,0,0,708.3,1095.4Zm-20.9-9.5h-1.046a4.754,4.754,0,0,0-4.654-3.8h-1.9v-8.55h1.9a0.947,0.947,0,0,0,.95-0.95v-1.9a2.855,2.855,0,0,0-2.85-2.85H676a2.855,2.855,0,0,0-2.85-2.85h-1.9a2.855,2.855,0,0,0-2.85,2.85h-3.8a2.855,2.855,0,0,0-2.85,2.85v1.9a0.947,0.947,0,0,0,.95.95h1.9v8.55h-2.85a4.755,4.755,0,0,0-4.75,4.75v26.6a4.756,4.756,0,0,0,3.8,4.65v1.05a2.85,2.85,0,1,0,5.7,0v-0.95h10.45v0.95a2.85,2.85,0,1,0,5.7,0v-1.05a4.756,4.756,0,0,0,3.8-4.65V1087.8h0.95A0.95,0.95,0,1,0,687.4,1085.9Zm-16.15-19h1.9a0.954,0.954,0,0,1,.95.95h-3.8A0.954,0.954,0,0,1,671.25,1066.9Zm-7.6,4.75v-0.95a0.954,0.954,0,0,1,.95-0.95h15.2a0.954,0.954,0,0,1,.95.95v0.95h-17.1Zm14.25,1.9v8.55h-0.95v-8.55h0.95Zm-2.85,0v8.55h-5.7v-8.55h5.7Zm-7.6,0v8.55H666.5v-8.55h0.95Zm-2.85,16.15a0.953,0.953,0,0,0,.95-0.95v-0.56l0.95,0.95v7.21h-3.8v-7.21l0.95-.95v0.56A0.953,0.953,0,0,0,664.6,1089.7Zm0,29.45a0.95,0.95,0,0,1-1.9,0v-0.95h1.9v0.95Zm16.15,0a0.95,0.95,0,0,1-1.9,0v-0.95h1.9v0.95Zm3.8-5.7a2.855,2.855,0,0,1-2.85,2.85H661.75a2.855,2.855,0,0,1-2.85-2.85v-26.6a2.855,2.855,0,0,1,2.85-2.85h1.9v1.9a0.944,0.944,0,0,0-.672.28l-1.9,1.9a0.953,0.953,0,0,0-.278.67v8.55a0.953,0.953,0,0,0,.95.95h5.7a0.953,0.953,0,0,0,.95-0.95v-8.55a0.953,0.953,0,0,0-.278-0.67l-1.9-1.9a0.944,0.944,0,0,0-.672-0.28V1084H681.7a2.855,2.855,0,0,1,2.85,2.85v26.6Zm-2.85-25.65h-6.65a0.95,0.95,0,0,0,0,1.9h6.65A0.95,0.95,0,1,0,681.7,1087.8Zm-8.55,5.7H676a0.95,0.95,0,0,0,0-1.9h-2.85A0.95,0.95,0,0,0,673.15,1093.5Zm8.55-1.9h-1.9a0.95,0.95,0,0,0,0,1.9h1.9A0.95,0.95,0,1,0,681.7,1091.6Zm-4.75,15.2h-7.6a2.855,2.855,0,0,0-2.85,2.85v3.8a0.953,0.953,0,0,0,.95.95h7.6a2.855,2.855,0,0,0,2.85-2.85v-3.8A0.947,0.947,0,0,0,676.95,1106.8Zm-4.75,5.7h-3.8v-2.85a0.953,0.953,0,0,1,.95-0.95h2.85v3.8Zm3.8-.95a0.954,0.954,0,0,1-.95.95H674.1v-3.8H676v2.85Z" transform="translate(-657 -1065)"/>
</svg>
