<?xml version="1.0" standalone="no"?>
<!DOCTYPE svg PUBLIC "-//W3C//DTD SVG 1.1//EN" "http://www.w3.org/Graphics/SVG/1.1/DTD/svg11.dtd" >
<svg xmlns="http://www.w3.org/2000/svg">
<metadata>Generated by IcoMoon</metadata>
<defs>
<font id="icomoon" horiz-adv-x="1024">
<font-face units-per-em="1024" ascent="960" descent="-64" />
<missing-glyph horiz-adv-x="1024" />
<glyph unicode="&#x20;" horiz-adv-x="512" d="" />
<glyph unicode="&#xe900;" glyph-name="icon-arrow-left" horiz-adv-x="579" d="M15.761 488.070l438.406 455.457c9.565 10.154 23.099 16.477 38.111 16.477s28.546-6.323 38.086-16.45l0.025-0.026 32.278-33.391c9.719-10.329 15.691-24.279 15.691-39.624s-5.972-29.296-15.718-39.654l0.028 0.030-368.15-382.887 368.551-382.887c9.719-10.329 15.691-24.279 15.691-39.624s-5.972-29.296-15.718-39.654l0.028 0.030-32.278-33.391c-9.565-10.154-23.099-16.477-38.111-16.477s-28.546 6.323-38.086 16.45l-0.025 0.026-438.806 455.903c-9.738 10.402-15.718 24.426-15.718 39.847s5.98 29.445 15.748 39.88l-0.030-0.033z" />
<glyph unicode="&#xe901;" glyph-name="icon-arrow-right" horiz-adv-x="579" d="M563.022 488.070l-438.406 455.457c-9.565 10.154-23.099 16.477-38.111 16.477s-28.546-6.323-38.086-16.45l-0.025-0.026-32.278-33.391c-9.719-10.329-15.691-24.279-15.691-39.624s5.972-29.296 15.718-39.654l-0.028 0.030 368.15-382.887-368.551-382.887c-9.719-10.329-15.691-24.279-15.691-39.624s5.972-29.296 15.718-39.654l-0.028 0.030 32.278-33.391c9.565-10.154 23.099-16.477 38.111-16.477s28.546 6.323 38.086 16.45l0.025 0.026 438.806 455.903c9.738 10.402 15.718 24.426 15.718 39.847s-5.98 29.445-15.748 39.88l0.030-0.033z" />
<glyph unicode="&#xe902;" glyph-name="icon-bathroom" horiz-adv-x="853" d="M172.769 70.030c-11.845-0.283-21.339-9.953-21.339-21.839 0-0.182 0.002-0.364 0.007-0.545l-0.001 0.027v-89.316c-0.018-0.329-0.028-0.714-0.028-1.101 0-11.782 9.551-21.333 21.333-21.333s21.333 9.551 21.333 21.333c0 0.387-0.010 0.772-0.031 1.155l0.002-0.053v89.316c0.004 0.155 0.006 0.337 0.006 0.519 0 11.867-9.462 21.524-21.254 21.837l-0.029 0.001zM350.376 70.030c-11.845-0.283-21.339-9.953-21.339-21.839 0-0.182 0.002-0.364 0.007-0.545l-0.001 0.027v-89.316c-0.018-0.329-0.028-0.714-0.028-1.101 0-11.782 9.551-21.333 21.333-21.333s21.333 9.551 21.333 21.333c0 0.387-0.010 0.772-0.031 1.155l0.002-0.053v89.316c0.004 0.155 0.006 0.337 0.006 0.519 0 11.867-9.462 21.524-21.254 21.837l-0.029 0.001zM527.983 70.030c-11.845-0.283-21.339-9.953-21.339-21.839 0-0.182 0.002-0.364 0.007-0.545l-0.001 0.027v-89.316c-0.018-0.329-0.028-0.714-0.028-1.101 0-11.782 9.551-21.333 21.333-21.333s21.333 9.551 21.333 21.333c0 0.387-0.010 0.772-0.031 1.155l0.002-0.053v89.316c0.004 0.155 0.006 0.337 0.006 0.519 0 11.867-9.462 21.524-21.254 21.837l-0.029 0.001zM84.25 230.798c-11.845-0.284-21.338-9.953-21.338-21.839 0-0.162 0.002-0.324 0.005-0.485v0.024-89.372c-0.018-0.329-0.028-0.714-0.028-1.101 0-11.782 9.551-21.333 21.333-21.333s21.333 9.551 21.333 21.333c0 0.387-0.010 0.772-0.031 1.155l0.002-0.053v89.372c0.004 0.153 0.006 0.333 0.006 0.513 0 11.956-9.629 21.662-21.555 21.787h-0.012zM261.857 230.798c-11.845-0.284-21.338-9.953-21.338-21.839 0-0.162 0.002-0.324 0.005-0.485v0.024-89.372c-0.018-0.329-0.028-0.714-0.028-1.101 0-11.782 9.551-21.333 21.333-21.333s21.333 9.551 21.333 21.333c0 0.387-0.010 0.772-0.031 1.155l0.002-0.053v89.372c0.004 0.153 0.006 0.334 0.006 0.515 0 11.916-9.565 21.597-21.435 21.786h-0.018zM439.464 230.798c-11.845-0.284-21.338-9.953-21.338-21.839 0-0.162 0.002-0.324 0.005-0.485v0.024-89.372c-0.018-0.329-0.028-0.714-0.028-1.101 0-11.782 9.551-21.333 21.333-21.333s21.333 9.551 21.333 21.333c0 0.387-0.010 0.772-0.031 1.155l0.002-0.053v89.372c0.004 0.153 0.006 0.333 0.006 0.513 0 11.956-9.629 21.662-21.555 21.787h-0.012zM617.071 230.798c-11.845-0.284-21.338-9.953-21.338-21.839 0-0.162 0.002-0.324 0.005-0.485v0.024-89.372c-0.018-0.329-0.028-0.714-0.028-1.101 0-11.782 9.551-21.333 21.333-21.333s21.333 9.551 21.333 21.333c0 0.387-0.010 0.772-0.031 1.155l0.002-0.053v89.372c0.004 0.153 0.006 0.333 0.006 0.513 0 11.956-9.629 21.662-21.555 21.787h-0.012zM831.997 960c-11.814-0.283-21.283-9.927-21.283-21.783 0-0.182 0.002-0.364 0.007-0.545l-0.001 0.027v-22.357h-193.934c-173.514-4.11-313.532-141.946-321.113-314.186l-0.024-0.694h-19.342c-11.82-0.314-21.283-9.971-21.283-21.838 0-0.183 0.002-0.365 0.007-0.546l-0.001 0.027v-60.245c-54.026-16.627-100.414-44.454-138.413-80.95l0.116 0.111c-38.333-36.872-68.58-81.853-88.012-132.211l-0.849-2.502h-6.542c-12.348 0-22.357-10.010-22.357-22.357s10.010-22.357 22.357-22.357h658.091c12.348 0 22.357 10.010 22.357 22.357s-10.010 22.357-22.357 22.357h-6.542c-20.31 52.858-50.573 97.838-88.798 134.599l-0.12 0.114c-37.872 36.373-84.237 64.198-135.808 80.19l-2.432 0.649v60.245c0.004 0.154 0.006 0.336 0.006 0.518 0 11.887-9.494 21.556-21.313 21.839h-17.605c8.735 109.968 98.889 196.233 209.729 198.765l0.248 0.004h193.934v-22.357c-0.018-0.329-0.028-0.714-0.028-1.101 0-11.782 9.551-21.333 21.333-21.333s21.333 9.551 21.333 21.333c0 0.387-0.010 0.772-0.031 1.155l0.002-0.053v160.825c0.003 0.137 0.005 0.299 0.005 0.461 0 11.887-9.494 21.556-21.312 21.839h-0.026zM403.112 555.804v-33.508h-105.472v33.508h105.472zM626.514 302.308h-552.277c37.952 85.36 110.712 149.383 199.761 174.74l2.194 0.534h148.309c91.266-25.877 164.049-89.903 201.225-173.297l0.788-1.978zM616.786 843.89c-135.095-3.145-244.427-109.233-252.721-242.689l-0.037-0.739h-25.657c8.045 148.737 128.901 266.742 278.080 270.216l0.334 0.006h193.934v-26.795h-193.934z" />
<glyph unicode="&#xe903;" glyph-name="icon-bed" horiz-adv-x="1621" d="M1509.567 502.017v201.987c0.004 0.536 0.006 1.169 0.006 1.803 0 139.559-112.46 252.852-251.701 254.199l-0.128 0.001h-894.135c-139.368-1.348-251.828-114.641-251.828-254.2 0-0.634 0.002-1.267 0.007-1.9l-0.001 0.097v-201.987c-64.389-14.413-111.789-71.079-111.789-138.815 0-0.189 0-0.377 0.001-0.565v0.029-170.669c-0.001-0.076-0.001-0.167-0.001-0.257 0-15.463 12.463-28.015 27.892-28.159h28.004v-227.587h55.894v142.253h1397.779v-142.253h55.894v227.587h27.904c15.489 0.145 27.99 12.735 27.99 28.245 0 0.060 0 0.121-0.001 0.181v-0.009 170.669c0 0.139 0.001 0.303 0.001 0.468 0 67.753-47.395 124.436-110.839 138.704l-0.949 0.179zM167.682 704.003c-0.003 0.407-0.005 0.889-0.005 1.371 0 108.707 87.69 196.932 196.192 197.799l0.082 0.001h894.135c108.584-0.867 196.274-89.093 196.274-197.799 0-0.482-0.002-0.964-0.005-1.445v0.074-199.085h-140.205v170.669c0 0.015 0 0.033 0 0.050 0 11.798-7.126 21.931-17.308 26.332l-0.186 0.071c-63.145 37.017-139.058 58.877-220.078 58.877s-156.933-21.86-222.164-60.004l2.086 1.127c-10.368-4.472-17.494-14.606-17.494-26.403 0-0.018 0-0.035 0-0.053v0.003-170.669h-55.979v170.669c0 0.015 0 0.033 0 0.050 0 11.798-7.126 21.931-17.308 26.332l-0.186 0.071c-63.145 37.017-139.058 58.877-220.078 58.877s-156.933-21.86-222.164-60.004l2.086 1.127c-10.414-4.452-17.579-14.609-17.579-26.439 0-0.005 0-0.010 0-0.015v0.001-170.669h-139.778v199.085zM1257.915 504.918h-363.354v151.127c52.226 30.159 114.874 47.953 181.677 47.953s129.451-17.794 183.461-48.9l-1.784 0.947v-151.127zM726.794 504.918h-363.354v151.127c52.226 30.159 114.874 47.953 181.677 47.953s129.451-17.794 183.461-48.9l-1.784 0.947v-151.127zM1509.567 135.164h-1397.779v28.416h1397.779v-28.416zM1565.461 220.498h-1509.567v142.167c0 0.003 0 0.006 0 0.010 0 46.679 37.479 84.604 83.987 85.324l0.068 0.001h1341.458c46.575-0.721 84.054-38.646 84.054-85.325 0-0.003 0-0.007 0-0.010v0.001-141.911z" />
<glyph unicode="&#xe904;" glyph-name="icon-date" horiz-adv-x="910" d="M893.952 891.733h-113.778v51.2c0.003 0.12 0.005 0.261 0.005 0.403 0 9.067-7.24 16.444-16.255 16.663h-113.798c-9.004-0.219-16.22-7.57-16.22-16.607 0-0.162 0.002-0.323 0.007-0.483l-0.001 0.024v-51.2h-357.604v51.2c0.003 0.12 0.005 0.261 0.005 0.403 0 9.067-7.24 16.444-16.255 16.663h-113.798c-9.004-0.219-16.22-7.57-16.22-16.607 0-0.162 0.002-0.323 0.007-0.483l-0.001 0.024v-51.2h-113.778c-9.035-0.22-16.275-7.596-16.275-16.664 0-0.142 0.002-0.283 0.005-0.424v0.021-921.6c-0.003-0.12-0.005-0.261-0.005-0.403 0-9.067 7.24-16.444 16.255-16.663h877.702c9.035 0.22 16.275 7.596 16.275 16.664 0 0.142-0.002 0.283-0.005 0.424v-0.021 921.6c0.003 0.12 0.005 0.261 0.005 0.403 0 9.067-7.24 16.444-16.255 16.663h-0.020zM666.396 925.867h81.294v-102.4h-81.294v102.4zM162.532 925.867h81.294v-102.4h-81.294v102.4zM32.484 857.6h97.564v-51.2c-0.004-0.137-0.006-0.298-0.006-0.46 0-9.037 7.216-16.388 16.199-16.607h113.798c9.035 0.22 16.275 7.596 16.275 16.664 0 0.142-0.002 0.283-0.005 0.424v-0.021 51.2h357.604v-51.2c-0.004-0.137-0.006-0.298-0.006-0.46 0-9.037 7.216-16.388 16.199-16.607h113.798c9.035 0.22 16.275 7.596 16.275 16.664 0 0.142-0.002 0.283-0.005 0.424v-0.021 51.2h97.508v-153.6h-845.198v153.6zM32.484-29.867v699.733h845.198v-699.733h-845.198zM585.159 567.467h-438.898v-494.933h617.643v494.933h-178.745zM471.381 533.333h113.778v-119.467h-113.778v119.467zM585.159 260.267h-113.778v119.467h113.778v-119.467zM325.063 379.733h113.778v-119.467h-113.778v119.467zM325.063 533.333h113.778v-119.467h-113.778v119.467zM178.802 533.333h113.778v-119.467h-113.778v119.467zM178.802 379.733h113.778v-119.467h-113.778v119.467zM292.58 106.667h-113.778v119.467h113.778v-119.467zM438.841 106.667h-113.778v119.467h113.778v-119.467zM585.159 106.667h-113.778v119.467h113.778v-119.467zM731.42 106.667h-113.778v119.467h113.778v-119.467zM731.42 260.267h-113.778v119.467h113.778v-119.467zM731.42 533.333v-119.467h-113.778v119.467h113.778z" />
<glyph unicode="&#xe905;" glyph-name="icon-filter" horiz-adv-x="983" d="M614.4 775.68c0-79.176-64.184-143.36-143.36-143.36s-143.36 64.184-143.36 143.36c0 79.176 64.184 143.36 143.36 143.36s143.36-64.184 143.36-143.36zM819.2 448c0-79.176-64.184-143.36-143.36-143.36s-143.36 64.184-143.36 143.36c0 79.176 64.184 143.36 143.36 143.36s143.36-64.184 143.36-143.36zM409.6 161.28c0-79.176-64.184-143.36-143.36-143.36s-143.36 64.184-143.36 143.36c0 79.176 64.184 143.36 143.36 143.36s143.36-64.184 143.36-143.36z" />
<glyph unicode="&#xe906;" glyph-name="icon-forward" horiz-adv-x="1075" d="M938.502 577.127l-234.037 245.762c-5.085 5.569-12.376 9.049-20.48 9.049s-15.395-3.48-20.461-9.028l-0.019-0.022c-5.352-5.454-8.656-12.935-8.656-21.188 0-0.147 0.001-0.294 0.003-0.441v0.022-122.881h-102.401q-326.044 0-400.028-193.435c-15.578-44.098-24.578-94.951-24.578-147.907 0-4.199 0.057-8.384 0.169-12.555l-0.013 0.615c6.058-79.758 26.834-153.337 59.625-219.938l-1.564 3.514c0.922-2.253 2.509-6.093 4.813-11.52s4.301-10.24 6.144-14.387c1.758-4.035 3.745-7.501 6.056-10.718l-0.117 0.171c2.515-4.669 7.255-7.855 12.763-8.139l0.037-0.002c0.182-0.009 0.395-0.014 0.609-0.014 4.072 0 7.712 1.849 10.125 4.754l0.017 0.022c2.433 3.094 3.902 7.046 3.902 11.341 0 0.225-0.004 0.449-0.012 0.672l0.001-0.032c-0.15 4.648-0.554 9.049-1.203 13.371l0.077-0.622c-0.544 3.202-0.965 7.078-1.167 11.011l-0.010 0.253c-1.536 21.76-2.253 41.421-2.253 59.034-0.016 1.373-0.025 2.996-0.025 4.62 0 29.161 2.917 57.64 8.474 85.163l-0.462-2.742c4.914 25.081 12.586 47.364 22.87 68.124l-0.701-1.564c9.493 18.866 21.741 34.908 36.429 48.321l0.128 0.115c13.961 12.843 29.817 23.96 47.026 32.819l1.205 0.564c17.521 8.741 37.868 15.818 59.198 20.201l1.628 0.279c19.83 4.444 43.883 8.070 68.387 10.105l2.013 0.135q35.431 2.867 80.231 2.867h102.401v-122.881c-0.002-0.118-0.003-0.258-0.003-0.398 0-8.259 3.303-15.746 8.66-21.213l-0.005 0.005c5.113-5.513 12.395-8.951 20.48-8.951s15.368 3.439 20.464 8.934l0.016 0.018 234.037 245.762c5.372 5.593 8.68 13.203 8.68 21.586 0 8.278-3.226 15.803-8.49 21.386l0.014-0.015z" />
<glyph unicode="&#xe907;" glyph-name="icon-guest" horiz-adv-x="585" d="M430.226 606.915h-275.358c-9.749 0-17.652-7.903-17.652-17.652s7.903-17.652 17.652-17.652h275.358c9.749 0 17.652 7.903 17.652 17.652s-7.903 17.652-17.652 17.652v0zM430.226 465.506h-275.358c-9.749 0-17.652-7.903-17.652-17.652s7.903-17.652 17.652-17.652h275.358c9.789 0 17.725 7.936 17.725 17.725s-7.936 17.725-17.725 17.725v0zM430.226 324.096h-275.358c-9.749 0-17.652-7.903-17.652-17.652s7.903-17.652 17.652-17.652h275.358c9.843 0 17.822 7.979 17.822 17.822s-7.979 17.822-17.822 17.822v0zM430.226 182.686h-275.358c-9.749 0-17.652-7.903-17.652-17.652s7.903-17.652 17.652-17.652h275.358c9.883 0 17.896 8.012 17.896 17.896s-8.012 17.896-17.896 17.896v0zM499.078 818.59h-120.442v106.106h51.59c9.749 0 17.652 7.903 17.652 17.652s-7.903 17.652-17.652 17.652h-275.358c-9.749 0-17.652-7.903-17.652-17.652s7.903-17.652 17.652-17.652h51.639v-106.106h-120.442c-47.68-0.685-86.069-39.497-86.069-87.275 0-0.294 0.001-0.589 0.004-0.882v0.045-635.563c-0.002-0.236-0.004-0.515-0.004-0.795 0-41.771 29.18-76.728 68.268-85.597l0.588-0.112v-54.76c0-9.506 7.707-17.213 17.213-17.213s17.213 7.707 17.213 17.213v52.955h378.587v-52.955c0-9.506 7.707-17.213 17.213-17.213s17.213 7.707 17.213 17.213v54.76c39.676 8.981 68.855 43.937 68.855 85.709 0 0.279-0.001 0.559-0.004 0.837v-0.043 635.563c0.003 0.249 0.004 0.543 0.004 0.837 0 47.778-38.389 86.59-86.004 87.275l-0.064 0.001zM240.933 924.501h103.278v-105.911h-103.278v106.106zM172.081 783.092h240.933v-17.652c0.001-0.073 0.002-0.159 0.002-0.245 0-9.546-7.684-17.298-17.204-17.407h-206.517c-9.531 0.109-17.215 7.861-17.215 17.407 0 0.086 0.001 0.172 0.002 0.258v-0.013 18.042zM550.717 94.525c0.002-0.175 0.003-0.383 0.003-0.59 0-28.667-23.034-51.955-51.604-52.365h-413.052c-28.608 0.41-51.642 23.698-51.642 52.365 0 0.208 0.001 0.415 0.004 0.622v-0.031 635.953c-0.002 0.175-0.003 0.383-0.003 0.59 0 28.667 23.034 51.955 51.604 52.365h51.629v-17.652c-0.002-0.175-0.003-0.383-0.003-0.59 0-28.667 23.034-51.955 51.604-52.365h206.546c28.608 0.41 51.642 23.698 51.642 52.365 0 0.208-0.001 0.415-0.004 0.622v-0.031 17.701h51.639c28.608-0.41 51.642-23.698 51.642-52.365 0-0.208-0.001-0.415-0.004-0.622v0.031-635.611z" />
<glyph unicode="&#xe908;" glyph-name="icon-location" horiz-adv-x="783" d="M391.895 407.763c-93.974 3.631-168.779 80.691-168.779 175.222 0 96.84 78.505 175.345 175.345 175.345s175.344-78.503 175.345-175.342v0c-2.012-97.215-81.294-175.251-178.803-175.251-1.093 0-2.183 0.010-3.272 0.029l0.164-0.002zM391.895 727.311c-77.527-2.933-139.264-66.491-139.264-144.467 0-79.841 64.724-144.565 144.565-144.565 79.807 0 144.509 64.668 144.565 144.462v0.006c-1.544 80.18-66.905 144.587-147.31 144.587-0.899 0-1.795-0.008-2.69-0.024l0.135 0.002zM391.895-64.181c-4.804 0.031-9.104 2.163-12.031 5.522l-0.016 0.019c-15.541 18.071-379.482 438.513-379.482 641.566 0 216.236 175.294 391.529 391.529 391.529s391.529-175.294 391.529-391.529v0c0-203.113-363.821-623.797-379.482-641.626-3.012-3.241-7.29-5.271-12.042-5.301h-0.005zM391.895 929.34c-1.795 0.033-3.913 0.052-6.035 0.052-192.775 0-349.518-154.273-353.503-346.093l-0.006-0.372c0-171.851 295.153-531.095 359.544-607.352 64.392 76.318 359.605 435.561 359.605 607.352-4.025 192.199-160.781 346.465-353.569 346.465-2.122 0-4.24-0.019-6.354-0.056l0.318 0.004z" />
<glyph unicode="&#xe909;" horiz-adv-x="646" d="M634.435 638.063c0 172.121-139.531 311.652-311.652 311.652s-311.652-139.531-311.652-311.652v0c0-171.743 311.652-691.155 311.652-691.155s311.652 519.413 311.652 691.155z" />
<glyph unicode="&#xe90a;" horiz-adv-x="646" d="M432.707 676.174c0-56.099-44.231-101.576-98.794-101.576s-98.794 45.477-98.794 101.576c0 56.099 44.231 101.576 98.794 101.576s98.794-45.477 98.794-101.576z" />
<glyph unicode="&#xe90b;" glyph-name="icon-pin" d="M1013.721 449.505c-56.474 49.201-130.801 79.197-212.135 79.197-8.927 0-17.771-0.361-26.515-1.070l1.15 0.075c-22.432 0-46.058-1.193-70.478-3.578l-254.878 241.362 60.88 60.994c5.237 5.241 8.476 12.479 8.476 20.473s-3.239 15.233-8.476 20.473v0l-84.448 84.619c-5.308 5.063-12.513 8.178-20.445 8.178s-15.136-3.115-20.457-8.189l0.012 0.011-378.001-378.853c-5.237-5.241-8.476-12.479-8.476-20.473s3.239-15.233 8.476-20.473v0l84.448-84.619c5.21-5.258 12.433-8.514 20.416-8.514s15.207 3.256 20.414 8.512l0.002 0.002 60.88 60.994 240.851-255.56c-9.768-100.407-3.407-230.685 74.396-308.66 5.219-5.261 12.451-8.519 20.445-8.519s15.226 3.257 20.443 8.517l0.002 0.002 211.092 211.547 161.684-162.025c5.232-5.234 12.46-8.471 20.445-8.471s15.213 3.237 20.445 8.471v0c5.21 5.253 8.429 12.487 8.429 20.473s-3.22 15.22-8.431 20.475l0.002-0.002-161.741 162.025 211.092 211.547c5.271 5.246 8.533 12.507 8.533 20.53s-3.262 15.284-8.532 20.529l-0.001 0.001zM532.189 7.841c-28.008 52.549-44.457 114.921-44.457 181.135 0 25.149 2.373 49.744 6.907 73.573l-0.387-2.442c0.119 0.984 0.186 2.124 0.186 3.28 0 7.709-3.012 14.714-7.923 19.904l0.013-0.013-270.382 286.795c-5.176 5.476-12.455 8.918-20.538 9.030h-0.474c-7.98-0.017-15.202-3.247-20.446-8.463l0.001 0.001-61.448-61.618-43.559 43.672 337.169 337.964 43.616-43.729-61.448-61.562c-5.23-5.257-8.464-12.505-8.464-20.508 0-8.283 3.463-15.756 9.020-21.052l286.125-270.905c5.15-4.93 12.15-7.965 19.858-7.965 1.147 0 2.279 0.067 3.391 0.198l-0.135-0.013c23.156 2.885 50.039 4.575 77.299 4.657h0.107c5.389 0.34 11.687 0.534 18.030 0.534 57.716 0 111.682-16.057 157.674-43.947l-1.355 0.763z" />
<glyph unicode="&#xe90c;" glyph-name="icon-price" horiz-adv-x="768" d="M384 960c-190.784 0-384-45.888-384-132.992v-165.44c0-87.104 193.216-132.992 384-132.992s384 45.632 384 132.992v165.44c0 87.168-193.216 132.992-384 132.992zM384 916.416c206.592 0 339.2-52.352 339.2-89.6s-132.48-89.6-339.2-89.6-339.2 52.352-339.2 89.6 132.608 89.6 339.2 89.6zM384 572.16c-206.592 0-339.2 52.352-339.2 89.6v99.84c100.268-42.409 216.856-67.055 339.2-67.055s238.933 24.646 345.071 69.244l-5.871-2.189v-99.712c0-37.376-132.608-89.728-339.2-89.728zM384 441.472c-206.592 0-339.2 52.352-339.2 89.6h-44.8v-165.632c0-87.104 193.216-132.992 384-132.992s384 45.632 384 132.992v165.76h-44.8c0-37.568-132.608-89.6-339.2-89.6zM723.2 365.248c0-37.056-132.48-89.6-339.2-89.6s-339.2 52.352-339.2 89.6v100.352c134.72-89.6 543.552-89.6 678.4 0v-100.288zM384 145.216c-206.592 0-339.2 52.352-339.2 89.6h-44.8v-165.632c0-87.104 193.216-132.992 384-132.992s384 45.632 384 132.992v165.248h-44.8c0-36.864-132.608-89.216-339.2-89.216zM723.2 68.992c0-37.056-132.48-89.6-339.2-89.6s-339.2 52.352-339.2 89.6v100.288c134.72-89.6 543.552-89.6 678.4 0v-100.288z" />
<glyph unicode="&#xe90d;" glyph-name="icon-property" d="M997.316 535.883l-102.4 82.221v311.778c0.030 0.488 0.047 1.058 0.047 1.632 0 15.54-12.441 28.174-27.907 28.485h-117.428c-16.73-0.094-30.312-13.444-30.779-30.074l-0.001-0.043v-170.526l-187.573 151.191c-4.864 4.055-11.18 6.517-18.071 6.517s-13.207-2.462-18.116-6.554l0.045 0.037-468.209-375.266c-16.558-13.279-27.102-33.465-27.226-56.119v-36.584c0.303-39.202 31.95-70.913 71.099-71.318h46.239v-405.143c0.469-16.695 14.084-30.057 30.835-30.118h730.6c15.494 0.312 27.936 12.946 27.936 28.486 0 0.574-0.017 1.144-0.050 1.71l0.004-0.078v405.384h49.092c37.97 0.462 68.573 31.35 68.573 69.386 0 0.658-0.009 1.314-0.027 1.968l0.002-0.096v36.984c0.001 0.135 0.001 0.295 0.001 0.456 0 22.45-10.356 42.482-26.551 55.578l-0.135 0.106zM777.517 899.765h58.669v-234.918l-58.669 47.104v187.814zM610.304-3.765h-199.56v327.138h199.56v-327.138zM847.932-3.765h-178.959v357.195c0.090 0.835 0.142 1.803 0.142 2.783 0 14.814-11.78 26.877-26.483 27.333l-0.042 0.001h-258.229c-0.022 0-0.047 0-0.073 0-17.068 0-31.043-13.244-32.208-30.017l-0.006-0.101v-357.195h-176.008v430.080l336.354 269.914 335.511-269.432v-430.562zM965.331 442.94c0.052-0.382 0.081-0.823 0.081-1.271 0-5.403-4.285-9.804-9.641-9.993h-49.109v9.698c0.009 0.279 0.015 0.606 0.015 0.935 0 9.079-4.083 17.205-10.512 22.641l-0.044 0.036-364.484 292.984c-4.876 4.024-11.188 6.464-18.071 6.464s-13.195-2.44-18.119-6.503l-366.303-293.427c-7.138-5.529-11.765-14.003-12.046-23.567l-0.001-0.045v-9.397h-46.2c-0.017 0-0.038 0-0.058 0-6.462 0-11.776 4.916-12.406 11.212l-0.004 0.052v36.503c0.28 3.649 2.148 6.812 4.905 8.831l0.034 0.024 449.958 360.749 448.090-360.267c2.271-2.008 3.695-4.928 3.695-8.18 0-0.237-0.008-0.473-0.022-0.706l0.002 0.032v-36.984z" />
<glyph unicode="&#xe90e;" glyph-name="icon-suitcase" horiz-adv-x="585" d="M430.233 606.915h-275.358c-9.749 0-17.652-7.903-17.652-17.652s7.903-17.652 17.652-17.652h275.358c9.749 0 17.652 7.903 17.652 17.652s-7.903 17.652-17.652 17.652v0zM430.233 465.506h-275.358c-9.749 0-17.652-7.903-17.652-17.652s7.903-17.652 17.652-17.652h275.358c9.789 0 17.725 7.936 17.725 17.725s-7.936 17.725-17.725 17.725v0zM430.233 324.096h-275.358c-9.749 0-17.652-7.903-17.652-17.652s7.903-17.652 17.652-17.652h275.358c9.843 0 17.822 7.979 17.822 17.822s-7.979 17.822-17.822 17.822v0zM430.233 182.686h-275.358c-9.749 0-17.652-7.903-17.652-17.652s7.903-17.652 17.652-17.652h275.358c9.883 0 17.896 8.012 17.896 17.896s-8.012 17.896-17.896 17.896v0zM499.085 818.298h-120.442v105.911h51.59c9.749 0 17.652 7.903 17.652 17.652s-7.903 17.652-17.652 17.652h-275.358c-9.749 0-17.652-7.903-17.652-17.652s7.903-17.652 17.652-17.652h51.639v-105.618h-120.442c-47.68-0.685-86.069-39.497-86.069-87.275 0-0.294 0.001-0.589 0.004-0.882v0.045-635.563c-0.002-0.236-0.004-0.515-0.004-0.795 0-41.771 29.18-76.728 68.268-85.597l0.588-0.112v-54.76c0-9.506 7.707-17.213 17.213-17.213s17.213 7.707 17.213 17.213v52.955h378.587v-52.955c0-9.506 7.707-17.213 17.213-17.213s17.213 7.707 17.213 17.213v54.76c39.676 8.981 68.855 43.937 68.855 85.709 0 0.279-0.001 0.559-0.004 0.837v-0.043 635.563c0.003 0.249 0.004 0.543 0.004 0.837 0 47.778-38.389 86.59-86.004 87.275l-0.064 0.001zM240.939 924.209h103.278v-105.618h-103.278v105.911zM172.087 782.799h240.933v-17.652c0.001-0.073 0.002-0.159 0.002-0.245 0-9.556-7.678-17.319-17.202-17.455h-206.52c-9.536 0.136-17.215 7.899-17.215 17.455 0 0.086 0.001 0.172 0.002 0.259v-0.013 18.334zM550.724 94.232c0.002-0.175 0.003-0.383 0.003-0.59 0-28.667-23.034-51.955-51.604-52.365h-413.052c-28.608 0.41-51.642 23.698-51.642 52.365 0 0.208 0.001 0.415 0.004 0.622v-0.031 636.245c-0.002 0.176-0.003 0.383-0.003 0.591 0 28.677 23.028 51.976 51.601 52.413h51.631v-17.652c-0.002-0.176-0.003-0.383-0.003-0.591 0-28.677 23.028-51.976 51.601-52.413h206.548c28.614 0.438 51.642 23.736 51.642 52.413 0 0.208-0.001 0.415-0.004 0.622v-0.032 17.652h51.639c28.614-0.438 51.642-23.736 51.642-52.413 0-0.208-0.001-0.415-0.004-0.622v0.032-635.563z" />
<glyph unicode="&#xe90f;" glyph-name="icon-thin-arrow-left" horiz-adv-x="569" d="M73.728 450.276l486.172-460.8c5.52-5.109 8.965-12.392 8.965-20.48s-3.444-15.371-8.946-20.463l-0.018-0.017c-5.622-5.283-13.213-8.529-21.561-8.529s-15.939 3.246-21.577 8.545l0.017-0.015-507.79 481.28c-5.52 5.109-8.965 12.392-8.965 20.48s3.444 15.371 8.946 20.463l0.018 0.017 507.79 480.142c5.544 5.47 13.105 8.909 21.467 9.102l0.037 0.001c0.334 0.015 0.725 0.023 1.119 0.023 8.054 0 15.287-3.516 20.248-9.098l0.024-0.028c5.501-4.9 8.95-12.003 8.95-19.911s-3.448-15.011-8.923-19.888l-0.027-0.023z" />
<glyph unicode="&#xe910;" glyph-name="icon-thin-arrow-right" horiz-adv-x="569" d="M495.161 450.276l-486.172-460.8c-5.52-5.109-8.965-12.392-8.965-20.48s3.444-15.371 8.946-20.463l0.018-0.017c5.622-5.283 13.213-8.529 21.561-8.529s15.939 3.246 21.577 8.545l-0.017-0.015 507.79 481.28c5.52 5.109 8.965 12.392 8.965 20.48s-3.444 15.371-8.946 20.463l-0.018 0.017-507.79 480.142c-5.544 5.47-13.105 8.909-21.467 9.102l-0.037 0.001c-0.334 0.015-0.725 0.023-1.119 0.023-8.054 0-15.287-3.516-20.248-9.098l-0.024-0.028c-5.501-4.9-8.95-12.003-8.95-19.911s3.448-15.011 8.923-19.888l0.027-0.023z" />
<glyph unicode="&#xe911;" glyph-name="icon-thumb-up" d="M245.12 403.584c-0.076 0-0.166 0.001-0.256 0.001-25.308 0-45.824-20.516-45.824-45.824s20.516-45.824 45.824-45.824c25.308 0 45.824 20.516 45.824 45.823v0c0 0.025 0 0.056 0 0.086 0 25.201-20.381 45.641-45.559 45.738h-0.009zM245.12 342.144c-0.038 0-0.083-0.001-0.128-0.001-8.624 0-15.616 6.992-15.616 15.616s6.992 15.616 15.616 15.616c8.624 0 15.616-6.991 15.616-15.615v0c0-0.013 0-0.028 0-0.043 0-8.571-6.924-15.525-15.483-15.573h-0.005zM657.451 112.085c-2.004 6.101-7.64 10.432-14.291 10.453h-89.261l-27.605 85.333c-1.963 6.139-7.618 10.506-14.293 10.506s-12.33-4.367-14.264-10.4l-0.029-0.106-27.605-85.333h-89.259c-6.658-0.007-12.301-4.344-14.263-10.347l-0.030-0.106c-0.492-1.431-0.777-3.080-0.777-4.795 0-5.023 2.438-9.477 6.196-12.242l0.042-0.030 72.235-52.779-27.605-85.333c-0.454-1.383-0.716-2.974-0.716-4.627 0-4.807 2.214-9.097 5.679-11.905l0.029-0.022c2.536-1.994 5.774-3.198 9.294-3.198 3.32 0 6.39 1.071 8.883 2.887l-0.043-0.030 72.235 52.907 72.235-52.779c2.446-1.778 5.51-2.845 8.823-2.845 3.819 0 7.308 1.418 9.967 3.755l-0.017-0.015c3.077 2.811 4.999 6.841 4.999 11.32 0 1.672-0.268 3.282-0.763 4.788l0.031-0.108-27.563 85.333 72.235 52.779c3.8 2.795 6.239 7.248 6.239 12.272 0 1.668-0.269 3.273-0.765 4.774l0.031-0.107zM553.259 60.416c-3.8-2.795-6.238-7.248-6.238-12.272 0-1.715 0.284-3.364 0.808-4.902l-0.032 0.107 16.683-51.584-43.648 31.872c-2.442 1.8-5.511 2.882-8.832 2.882s-6.39-1.081-8.873-2.911l0.041 0.029-43.648-31.872 16.683 51.584c0.492 1.431 0.777 3.080 0.777 4.795 0 5.023-2.438 9.477-6.196 12.242l-0.042 0.030-43.648 31.915h53.931c0.009 0 0.020 0 0.030 0 6.64 0 12.271 4.321 14.233 10.305l0.030 0.106 16.683 51.627 16.64-51.627c2.022-6.093 7.67-10.411 14.325-10.411 0.004 0 0.008 0 0.011 0h53.93zM1023.232 112.085c-1.993 6.109-7.636 10.447-14.293 10.453h-89.259l-27.605 85.333c-1.963 6.139-7.618 10.506-14.293 10.506s-12.33-4.367-14.264-10.4l-0.029-0.106-27.563-85.333h-89.259c-8.305-0.079-15.006-6.83-15.006-15.146 0-4.989 2.412-9.415 6.134-12.174l0.041-0.029 72.235-52.779-27.563-85.333c-0.548-1.495-0.864-3.221-0.864-5.022 0-8.295 6.724-15.019 15.019-15.019 3.38 0 6.5 1.117 9.010 3.002l-0.039-0.028 72.192 52.779 72.235-52.779c2.452-1.782 5.523-2.85 8.844-2.85 3.827 0 7.323 1.419 9.989 3.761l-0.017-0.015c3.073 2.818 4.993 6.852 4.993 11.334 0 1.667-0.266 3.272-0.757 4.775l0.031-0.109-27.605 85.333 72.235 52.779c3.804 2.786 6.246 7.235 6.246 12.255 0 1.721-0.287 3.376-0.816 4.918l0.032-0.107zM919.040 60.416c-3.8-2.795-6.238-7.248-6.238-12.272 0-1.715 0.284-3.364 0.808-4.902l-0.032 0.107 16.683-51.584-43.648 31.872c-2.44 1.807-5.509 2.892-8.832 2.892s-6.392-1.085-8.873-2.92l0.041 0.029-43.648-31.872 16.683 51.584c0.497 1.435 0.784 3.090 0.784 4.811 0 5.020-2.442 9.47-6.203 12.226l-0.043 0.030-43.648 31.915h53.973c6.643 0.015 12.275 4.327 14.263 10.304l0.031 0.106 16.64 51.627 16.683-51.627c1.993-6.089 7.623-10.411 14.263-10.411 0.011 0 0.021 0 0.032 0h53.929zM291.627 112.085c-1.993 6.109-7.636 10.447-14.293 10.453h-89.259l-27.563 85.333c-1.963 6.139-7.618 10.506-14.293 10.506s-12.33-4.367-14.264-10.4l-0.029-0.106-27.605-85.333h-89.259c-8.305-0.079-15.006-6.83-15.006-15.146 0-4.989 2.412-9.415 6.134-12.174l0.041-0.029 72.192-52.779-27.563-85.333c-0.52-1.462-0.821-3.149-0.821-4.905 0-8.318 6.743-15.061 15.061-15.061 3.341 0 6.429 1.088 8.927 2.929l-0.041-0.029 72.235 52.779 72.192-52.779c2.452-1.782 5.523-2.85 8.844-2.85 3.827 0 7.323 1.419 9.989 3.761l-0.017-0.015c3.077 2.811 4.999 6.841 4.999 11.32 0 1.672-0.268 3.282-0.763 4.788l0.031-0.108-27.563 85.333 72.192 52.779c3.831 2.766 6.296 7.219 6.296 12.248 0 1.725-0.29 3.382-0.824 4.925l0.032-0.106zM187.477 60.416c-3.804-2.786-6.246-7.235-6.246-12.255 0-1.721 0.287-3.376 0.816-4.918l-0.032 0.107 16.64-51.584-43.605 31.872c-2.442 1.8-5.511 2.882-8.832 2.882s-6.39-1.081-8.873-2.911l0.041 0.029-43.648-31.872 16.64 51.584c0.507 1.444 0.8 3.11 0.8 4.844 0 5.014-2.45 9.455-6.218 12.193l-0.043 0.030-43.605 31.915h53.888c6.647 0 12.286 4.32 14.263 10.305l0.030 0.106 16.683 51.627 16.64-51.627c2.007-6.091 7.646-10.41 14.293-10.411h53.931zM902.315 583.253c15.608 12.663 25.502 31.843 25.502 53.334 0 37.719-30.477 68.321-68.149 68.522h-241.768c10.059 22.224 17.545 48.012 21.175 75.022l0.158 1.437c3.626 13.883 5.707 29.82 5.707 46.244 0 36.906-10.511 71.356-28.702 100.522l0.467-0.803c-12.779 17.495-32.145 29.521-54.38 32.426l-0.404 0.043c-1.029 0.117-2.222 0.184-3.431 0.184-17.35 0-31.483-13.771-32.067-30.979l-0.001-0.053c-3.954-50.809-13.852-97.915-29.064-142.561l1.203 4.065c-36.927-59.668-90.347-106.039-153.892-133.352l-2.183-0.835c-9.661 8.397-22.365 13.517-36.265 13.525h-122.199c-30.824-0.121-55.765-25.137-55.765-55.978 0-0.030 0-0.060 0-0.090v0.005-307.2c0-0.025 0-0.056 0-0.086 0-30.841 24.941-55.857 55.754-55.978h122.209c16.451 0.004 31.227 7.17 41.382 18.548l0.048 0.055c21.257-13.398 47.114-21.347 74.829-21.347 0.693 0 1.385 0.005 2.076 0.015l-0.105-0.001h392.533c23.866 66.886 54.033 124.802 90.901 177.699l-1.6-2.424c-10.502 11.996-16.908 27.809-16.908 45.118 0 26.838 15.401 50.080 37.847 61.369l0.395 0.18c0 0.042 0 0.093 0 0.143 0 21.419-9.809 40.547-25.18 53.137l-0.122 0.097zM306.219 280.704h-122.197c0 0-0.001 0-0.001 0-14.138 0-25.6 11.462-25.6 25.6 0 0.090 0 0.18 0.001 0.27v-0.014 307.2c-0.001 0.076-0.001 0.166-0.001 0.256 0 14.138 11.462 25.6 25.6 25.6 0 0 0.001 0 0.001 0h122.197c7.179-0.018 13.661-2.988 18.298-7.759l0.006-0.006v-337.067c0.011-1.886 0.354-3.688 0.974-5.356l-0.035 0.108c-4.698-5.399-11.57-8.801-19.237-8.832h-0.006zM796.544 568.107h63.147c19.816-1.671 35.267-18.167 35.267-38.272s-15.451-36.601-35.126-38.262l-0.141-0.010h-63.147c-8.342 0-15.104-6.762-15.104-15.104s6.762-15.104 15.104-15.104h41.899c19.816-1.671 35.267-18.167 35.267-38.272s-15.451-36.601-35.126-38.262l-0.141-0.010h-53.376c-8.342 0-15.104-6.762-15.104-15.104s6.762-15.104 15.104-15.104h32.213c19.816-1.671 35.267-18.167 35.267-38.272s-15.451-36.601-35.126-38.262l-0.141-0.010h-392.533c-0.717-0.017-1.561-0.026-2.407-0.026-22.743 0-43.887 6.844-61.486 18.584l0.405-0.254c0.597 3.006 0.939 6.461 0.939 9.996 0 0.071 0 0.141 0 0.212v-0.011 307.2c0 0.062 0 0.135 0 0.208 0 6.021-0.952 11.82-2.714 17.254l0.111-0.396c70.338 30.826 127.274 81.359 165.2 144.598l0.901 1.621c15.426 43.827 26.402 94.712 30.783 147.469l0.15 2.248c0 0.469 0 0.981 0 1.451 0 0.001 0 0.002 0 0.003 0 0.512 0.231 0.97 0.595 1.275l0.003 0.002c0.257 0.27 0.619 0.438 1.020 0.438 0.062 0 0.122-0.004 0.182-0.012l-0.007 0.001c14.268-1.968 26.446-9.615 34.373-20.546l0.102-0.147c13.833-23.421 22.006-51.609 22.006-81.706 0-14.791-1.974-29.12-5.672-42.74l0.264 1.14c-2.859-32.291-13.203-61.671-29.271-87.069l0.471 0.797c-2.033-2.57-3.261-5.859-3.261-9.434 0-8.307 6.632-15.066 14.89-15.27h267.539c19.816-1.671 35.267-18.167 35.267-38.272s-15.451-36.601-35.126-38.262l-0.141-0.010h-63.147c-0.025 0-0.055 0-0.085 0-8.365 0-15.147-6.782-15.147-15.147 0-8.335 6.733-15.098 15.057-15.147h0.005z" />
<glyph unicode="&#xe9fc;" glyph-name="wondering2" d="M512 960c-282.77 0-512-229.23-512-512s229.23-512 512-512 512 229.23 512 512-229.23 512-512 512zM704 704c35.346 0 64-28.654 64-64s-28.654-64-64-64-64 28.654-64 64 28.654 64 64 64zM256 640c0 35.346 28.654 64 64 64s64-28.654 64-64-28.654-64-64-64-64 28.654-64 64zM331.244 153.614l-22.488 76.774 437 128 22.488-76.774-437-128z" />
<glyph unicode="&#xe9fd;" glyph-name="sleepy" d="M512-64c282.77 0 512 229.23 512 512s-229.23 512-512 512-512-229.23-512-512 229.23-512 512-512zM512 864c229.75 0 416-186.25 416-416s-186.25-416-416-416-416 186.25-416 416 186.25 416 416 416zM640 288c0-88.366-57.308-160-128.002-160s-128.002 71.634-128.002 160c0 88.366 57.308 160 128.002 160s128.002-71.634 128.002-160zM416 620c-8.19 0-16.378 3.124-22.626 9.374-19.334 19.332-63.412 19.332-82.746 0-12.496-12.498-32.758-12.498-45.254 0-12.498 12.496-12.498 32.758 0 45.254 44.528 44.53 128.726 44.53 173.254 0 12.498-12.496 12.498-32.758 0-45.254-6.248-6.25-14.438-9.374-22.628-9.374zM736 620c-8.19 0-16.378 3.124-22.626 9.374-19.332 19.332-63.414 19.332-82.746 0-12.496-12.498-32.758-12.498-45.254 0-12.498 12.496-12.498 32.758 0 45.254 44.528 44.53 128.726 44.53 173.254 0 12.498-12.496 12.498-32.758 0-45.254-6.248-6.25-14.438-9.374-22.628-9.374z" />
<glyph unicode="&#xe9fe;" glyph-name="sleepy2" d="M512 960c-282.77 0-512-229.23-512-512s229.23-512 512-512 512 229.23 512 512-229.23 512-512 512zM310.628 629.374c-12.496-12.498-32.758-12.498-45.254 0-12.498 12.496-12.498 32.758 0 45.254 44.528 44.53 128.726 44.53 173.254 0 12.498-12.496 12.498-32.758 0-45.254-6.248-6.25-14.438-9.374-22.628-9.374s-16.378 3.124-22.626 9.374c-19.334 19.332-63.412 19.332-82.746 0zM511.998 128c-70.694 0-128.002 71.634-128.002 160s57.308 160 128.002 160 128.002-71.634 128.002-160-57.308-160-128.002-160zM758.628 629.374c-6.248-6.25-14.438-9.374-22.628-9.374s-16.378 3.124-22.626 9.374c-19.332 19.332-63.414 19.332-82.746 0-12.496-12.498-32.758-12.498-45.254 0-12.498 12.496-12.498 32.758 0 45.254 44.528 44.53 128.726 44.53 173.254 0 12.498-12.498 12.498-32.758 0-45.254z" />
<glyph unicode="&#xe9ff;" glyph-name="frustrated" d="M366.312 676.622c-34.742 17.37-69.102 26.060-70.548 26.422-17.146 4.288-34.518-6.138-38.806-23.284-4.284-17.144 6.14-34.518 23.282-38.804 17.626-4.45 38.522-12.12 56.936-21.35-10.648-11.43-17.174-26.752-17.174-43.606 0-35.346 28.654-64 64-64s64 28.654 64 64c0 1.17-0.036 2.33-0.098 3.484-2.032 47.454-45.212 78.946-81.592 97.138zM512 960c-282.77 0-512-229.23-512-512s229.23-512 512-512 512 229.23 512 512-229.23 512-512 512zM236.498 136.336c10.706-5.324 22.756-8.336 35.502-8.336h480c12.746 0 24.796 3.012 35.502 8.338-73.378-64.914-169.828-104.338-275.502-104.338-105.672 0-202.124 39.424-275.502 104.336zM256 208v96c0 8.674 7.328 16 16 16h112v-128h-112c-8.672 0-16 7.326-16 16zM448 192v128h128v-128h-128zM640 192v128h112c8.674 0 16-7.326 16-16v-96c0-8.674-7.326-16-16-16h-112zM823.662 172.498c5.326 10.706 8.338 22.756 8.338 35.502v96c0 44.112-35.888 80-80 80h-480c-44.112 0-80-35.888-80-80v-96c0-12.746 3.012-24.796 8.336-35.502-64.912 73.378-104.336 169.828-104.336 275.502 0 229.75 186.25 416 416 416s416-186.25 416-416c0-105.674-39.424-202.124-104.338-275.502zM728.236 703.044c-1.448-0.362-35.806-9.052-70.548-26.422-36.378-18.192-79.558-49.684-81.592-97.138-0.060-1.154-0.098-2.314-0.098-3.484 0-35.346 28.654-64 64-64s64 28.654 64 64c0 16.854-6.526 32.176-17.174 43.606 18.414 9.23 39.31 16.9 56.936 21.35 17.142 4.286 27.566 21.66 23.284 38.804-4.29 17.146-21.662 27.572-38.808 23.284z" />
<glyph unicode="&#xea00;" glyph-name="frustrated2" d="M256 304v-96c0-8.674 7.328-16 16-16h112v128h-112c-8.672 0-16-7.326-16-16zM448 320h128v-128h-128v128zM752 320h-112v-128h112c8.674 0 16 7.326 16 16v96c0 8.674-7.326 16-16 16zM512 960c-282.77 0-512-229.23-512-512s229.23-512 512-512 512 229.23 512 512-229.23 512-512 512zM576.096 579.484c2.034 47.454 45.212 78.946 81.592 97.138 34.742 17.37 69.102 26.060 70.548 26.422 17.146 4.288 34.518-6.138 38.806-23.284 4.284-17.144-6.14-34.518-23.284-38.804-17.624-4.45-38.522-12.12-56.936-21.35 10.648-11.43 17.174-26.752 17.174-43.606 0-35.346-28.654-64-64-64s-64 28.654-64 64c0.002 1.17 0.040 2.33 0.1 3.484zM256.958 679.76c4.288 17.146 21.66 27.572 38.806 23.284 1.446-0.362 35.806-9.052 70.548-26.422 36.38-18.192 79.56-49.684 81.592-97.138 0.062-1.154 0.098-2.314 0.098-3.484 0-35.346-28.654-64-64-64s-64 28.654-64 64c0 16.854 6.526 32.176 17.174 43.606-18.414 9.23-39.31 16.9-56.936 21.35-17.142 4.286-27.566 21.66-23.282 38.804zM832 208c0-44.112-35.888-80-80-80h-480c-44.112 0-80 35.888-80 80v96c0 44.112 35.888 80 80 80h480c44.112 0 80-35.888 80-80v-96z" />
<glyph unicode="&#xea01;" glyph-name="crying" d="M512-64c282.77 0 512 229.23 512 512s-229.23 512-512 512-512-229.23-512-512 229.23-512 512-512zM512 864c229.75 0 416-186.25 416-416s-186.25-416-416-416-416 186.25-416 416 186.25 416 416 416zM800 576h-128c-17.674 0-32 14.328-32 32s14.326 32 32 32h128c17.674 0 32-14.328 32-32s-14.326-32-32-32zM352 576h-128c-17.672 0-32 14.328-32 32s14.328 32 32 32h128c17.672 0 32-14.328 32-32s-14.328-32-32-32zM608 104c-8.19 0-16.378 3.124-22.626 9.374-4.582 4.582-29.42 14.626-73.374 14.626s-68.79-10.044-73.374-14.626c-12.496-12.496-32.758-12.496-45.254 0-12.498 12.496-12.498 32.758 0 45.254 30.122 30.12 92.994 33.372 118.628 33.372 25.632 0 88.506-3.252 118.626-33.374 12.498-12.496 12.498-32.758 0-45.254-6.248-6.248-14.436-9.372-22.626-9.372zM736 384c-17.674 0-32 14.326-32 32v64c0 17.672 14.326 32 32 32s32-14.328 32-32v-64c0-17.674-14.326-32-32-32zM736 192c-17.674 0-32 14.326-32 32v64c0 17.674 14.326 32 32 32s32-14.326 32-32v-64c0-17.674-14.326-32-32-32zM288 384c-17.672 0-32 14.326-32 32v64c0 17.672 14.328 32 32 32s32-14.328 32-32v-64c0-17.674-14.328-32-32-32zM288 192c-17.672 0-32 14.326-32 32v64c0 17.674 14.328 32 32 32s32-14.326 32-32v-64c0-17.674-14.328-32-32-32z" />
<glyph unicode="&#xea02;" glyph-name="crying2" d="M512 960c-282.77 0-512-229.23-512-512s229.23-512 512-512 512 229.23 512 512-229.23 512-512 512zM320 224c0-17.674-14.328-32-32-32s-32 14.326-32 32v64c0 17.674 14.328 32 32 32s32-14.326 32-32v-64zM320 416c0-17.674-14.328-32-32-32s-32 14.326-32 32v64c0 17.672 14.328 32 32 32s32-14.328 32-32v-64zM352 576h-128c-17.672 0-32 14.328-32 32s14.328 32 32 32h128c17.672 0 32-14.328 32-32s-14.328-32-32-32zM630.626 113.374c-6.248-6.25-14.436-9.374-22.626-9.374s-16.378 3.124-22.626 9.374c-4.582 4.582-29.42 14.626-73.374 14.626s-68.79-10.044-73.374-14.626c-12.496-12.496-32.758-12.496-45.254 0-12.498 12.496-12.498 32.758 0 45.254 30.122 30.12 92.994 33.372 118.628 33.372 25.632 0 88.506-3.252 118.626-33.374 12.498-12.496 12.498-32.756 0-45.252zM768 224c0-17.674-14.326-32-32-32s-32 14.326-32 32v64c0 17.674 14.326 32 32 32s32-14.326 32-32v-64zM768 416c0-17.674-14.326-32-32-32s-32 14.326-32 32v64c0 17.672 14.326 32 32 32s32-14.328 32-32v-64zM800 576h-128c-17.674 0-32 14.328-32 32s14.326 32 32 32h128c17.674 0 32-14.328 32-32s-14.326-32-32-32z" />
<glyph unicode="&#xea03;" glyph-name="point-up" d="M960 352v160c0 52.934-43.066 96-96 96-17.104 0-33.176-4.494-47.098-12.368-17.076 26.664-46.958 44.368-80.902 44.368-24.564 0-47.004-9.274-64-24.504-16.996 15.23-39.436 24.504-64 24.504-11.214 0-21.986-1.934-32-5.484v229.484c0 52.934-43.066 96-96 96s-96-43.066-96-96v-394.676l-176.018 93.836c-14.536 8.4-31.126 12.84-47.982 12.84-52.934 0-96-43.066-96-96 0-26.368 10.472-50.954 29.49-69.226 0.248-0.238 0.496-0.47 0.75-0.7l239.17-218.074h-45.41c-17.672 0-32-14.326-32-32v-192c0-17.674 14.328-32 32-32h640c17.674 0 32 14.326 32 32v192c0 17.674-14.326 32-32 32h-44.222l72.844 145.69c2.222 4.442 3.378 9.342 3.378 14.31zM896 96c0-17.674-14.326-32-32-32s-32 14.326-32 32 14.326 32 32 32 32-14.326 32-32zM896 359.554l-83.776-167.554h-383.826l-290.818 265.166c-6.18 6.070-9.58 14.164-9.58 22.834 0 17.644 14.356 32 32 32 5.46 0 10.612-1.31 15.324-3.894 0.53-0.324 1.070-0.632 1.622-0.926l224-119.416c9.92-5.288 21.884-4.986 31.52 0.8 9.638 5.782 15.534 16.196 15.534 27.436v448c0 17.644 14.356 32 32 32s32-14.356 32-32v-320c0-17.672 14.326-32 32-32s32 14.328 32 32c0 17.644 14.356 32 32 32s32-14.356 32-32c0-17.672 14.326-32 32-32s32 14.328 32 32c0 17.644 14.356 32 32 32s32-14.356 32-32v-32c0-17.672 14.326-32 32-32s32 14.328 32 32c0 17.644 14.356 32 32 32s32-14.356 32-32v-152.446z" />
<glyph unicode="&#xea04;" glyph-name="point-right" d="M416 0h160c52.934 0 96 43.066 96 96 0 17.104-4.494 33.176-12.368 47.098 26.664 17.076 44.368 46.958 44.368 80.902 0 24.564-9.276 47.004-24.504 64 15.228 16.996 24.504 39.436 24.504 64 0 11.214-1.934 21.986-5.484 32h229.484c52.934 0 96 43.066 96 96s-43.066 96-96 96h-394.676l93.836 176.018c8.4 14.536 12.84 31.126 12.84 47.982 0 52.934-43.066 96-96 96-26.368 0-50.954-10.472-69.226-29.49-0.238-0.248-0.47-0.496-0.7-0.75l-218.074-239.17v45.41c0 17.672-14.326 32-32 32h-192c-17.674 0-32-14.328-32-32v-640c0-17.674 14.326-32 32-32h192c17.674 0 32 14.326 32 32v44.222l145.69-72.844c4.444-2.222 9.342-3.378 14.31-3.378zM160 64c-17.674 0-32 14.326-32 32s14.326 32 32 32 32-14.326 32-32-14.326-32-32-32zM423.556 64l-167.556 83.778v383.824l265.168 290.818c6.066 6.18 14.162 9.58 22.832 9.58 17.644 0 32-14.356 32-32 0-5.46-1.308-10.612-3.894-15.324-0.324-0.53-0.632-1.070-0.926-1.622l-119.418-224c-5.288-9.92-4.986-21.884 0.8-31.52 5.784-9.638 16.198-15.534 27.438-15.534h448c17.644 0 32-14.356 32-32s-14.356-32-32-32h-320c-17.672 0-32-14.326-32-32s14.328-32 32-32c17.644 0 32-14.356 32-32s-14.356-32-32-32c-17.674 0-32-14.326-32-32s14.326-32 32-32c17.644 0 32-14.356 32-32s-14.356-32-32-32h-32c-17.674 0-32-14.326-32-32s14.326-32 32-32c17.644 0 32-14.356 32-32s-14.356-32-32-32h-152.444z" />
<glyph unicode="&#xea05;" glyph-name="point-down" d="M960 544v-160c0-52.934-43.066-96-96-96-17.104 0-33.176 4.494-47.098 12.368-17.076-26.662-46.96-44.368-80.902-44.368-24.564 0-47.004 9.276-64 24.504-16.996-15.228-39.436-24.504-64-24.504-11.214 0-21.986 1.934-32 5.484v-229.484c0-52.934-43.066-96-96-96-52.936 0-96 43.066-96 96v394.676l-176.018-93.836c-14.538-8.398-31.126-12.84-47.982-12.84-52.936 0-96 43.066-96 96 0 26.368 10.472 50.952 29.488 69.226 0.248 0.238 0.496 0.47 0.75 0.7l239.17 218.074h-45.408c-17.674 0-32 14.326-32 32v192c0 17.674 14.326 32 32 32h640c17.674 0 32-14.326 32-32v-192c0-17.674-14.326-32-32-32h-44.222l72.842-145.69c2.224-4.442 3.38-9.342 3.38-14.31zM896 800c0 17.674-14.326 32-32 32s-32-14.326-32-32 14.326-32 32-32 32 14.326 32 32zM896 536.446l-83.778 167.554h-383.824l-290.82-265.168c-6.18-6.066-9.578-14.162-9.578-22.832 0-17.644 14.356-32 32-32 5.458 0 10.612 1.308 15.324 3.894 0.53 0.324 1.070 0.632 1.622 0.926l224 119.416c9.92 5.288 21.884 4.986 31.52-0.8 9.638-5.782 15.534-16.196 15.534-27.436v-448c0-17.644 14.356-32 32-32s32 14.356 32 32v320c0 17.672 14.326 32 32 32s32-14.328 32-32c0-17.644 14.356-32 32-32s32 14.356 32 32c0 17.674 14.326 32 32 32s32-14.326 32-32c0-17.644 14.356-32 32-32s32 14.356 32 32v32c0 17.674 14.326 32 32 32s32-14.326 32-32c0-17.644 14.356-32 32-32s32 14.356 32 32v152.446z" />
<glyph unicode="&#xea06;" glyph-name="point-left" d="M608 0h-160c-52.934 0-96 43.066-96 96 0 17.104 4.494 33.176 12.368 47.098-26.662 17.076-44.368 46.958-44.368 80.902 0 24.564 9.276 47.004 24.504 64-15.228 16.996-24.504 39.436-24.504 64 0 11.214 1.934 21.986 5.484 32h-229.484c-52.934 0-96 43.066-96 96 0 52.936 43.066 96 96 96h394.676l-93.836 176.018c-8.398 14.536-12.84 31.126-12.84 47.982 0 52.936 43.066 96 96 96 26.368 0 50.952-10.472 69.224-29.488 0.238-0.248 0.472-0.496 0.7-0.75l218.076-239.17v45.408c0 17.674 14.326 32 32 32h192c17.674 0 32-14.326 32-32v-640c0-17.674-14.326-32-32-32h-192c-17.674 0-32 14.326-32 32v44.222l-145.69-72.844c-4.442-2.222-9.34-3.378-14.31-3.378zM864 64c17.674 0 32 14.326 32 32s-14.326 32-32 32-32-14.326-32-32 14.326-32 32-32zM600.446 64l167.554 83.778v383.824l-265.168 290.82c-6.066 6.18-14.162 9.578-22.832 9.578-17.644 0-32-14.356-32-32 0-5.458 1.308-10.612 3.894-15.324 0.324-0.53 0.632-1.070 0.926-1.622l119.416-224c5.29-9.92 4.988-21.884-0.798-31.52-5.784-9.638-16.198-15.534-27.438-15.534h-448c-17.644 0-32-14.356-32-32s14.356-32 32-32h320c17.672 0 32-14.326 32-32s-14.328-32-32-32c-17.644 0-32-14.356-32-32s14.356-32 32-32c17.674 0 32-14.326 32-32s-14.326-32-32-32c-17.644 0-32-14.356-32-32s14.356-32 32-32h32c17.674 0 32-14.326 32-32s-14.326-32-32-32c-17.644 0-32-14.356-32-32s14.356-32 32-32h152.446z" />
<glyph unicode="&#xea07;" glyph-name="warning" d="M512 867.226l429.102-855.226h-858.206l429.104 855.226zM512 960c-22.070 0-44.14-14.882-60.884-44.648l-437.074-871.112c-33.486-59.532-5-108.24 63.304-108.24h869.308c68.3 0 96.792 48.708 63.3 108.24h0.002l-437.074 871.112c-16.742 29.766-38.812 44.648-60.882 44.648v0zM576 128c0-35.346-28.654-64-64-64s-64 28.654-64 64c0 35.346 28.654 64 64 64s64-28.654 64-64zM512 256c-35.346 0-64 28.654-64 64v192c0 35.346 28.654 64 64 64s64-28.654 64-64v-192c0-35.346-28.654-64-64-64z" />
<glyph unicode="&#xea08;" glyph-name="notification" d="M512 864c-111.118 0-215.584-43.272-294.156-121.844s-121.844-183.038-121.844-294.156c0-111.118 43.272-215.584 121.844-294.156s183.038-121.844 294.156-121.844c111.118 0 215.584 43.272 294.156 121.844s121.844 183.038 121.844 294.156c0 111.118-43.272 215.584-121.844 294.156s-183.038 121.844-294.156 121.844zM512 960v0c282.77 0 512-229.23 512-512s-229.23-512-512-512c-282.77 0-512 229.23-512 512s229.23 512 512 512zM448 256h128v-128h-128zM448 768h128v-384h-128z" />
<glyph unicode="&#xea09;" glyph-name="question" d="M448 256h128v-128h-128zM704 704c35.346 0 64-28.654 64-64v-192l-192-128h-128v64l192 128v64h-320v128h384zM512 864c-111.118 0-215.584-43.272-294.156-121.844s-121.844-183.038-121.844-294.156c0-111.118 43.272-215.584 121.844-294.156s183.038-121.844 294.156-121.844c111.118 0 215.584 43.272 294.156 121.844s121.844 183.038 121.844 294.156c0 111.118-43.272 215.584-121.844 294.156s-183.038 121.844-294.156 121.844zM512 960v0c282.77 0 512-229.23 512-512s-229.23-512-512-512c-282.77 0-512 229.23-512 512s229.23 512 512 512z" />
<glyph unicode="&#xea0a;" glyph-name="plus" d="M992 576h-352v352c0 17.672-14.328 32-32 32h-192c-17.672 0-32-14.328-32-32v-352h-352c-17.672 0-32-14.328-32-32v-192c0-17.672 14.328-32 32-32h352v-352c0-17.672 14.328-32 32-32h192c17.672 0 32 14.328 32 32v352h352c17.672 0 32 14.328 32 32v192c0 17.672-14.328 32-32 32z" />
<glyph unicode="&#xea0e;" glyph-name="blocked" d="M874.040 810.040c-96.706 96.702-225.28 149.96-362.040 149.96s-265.334-53.258-362.040-149.96c-96.702-96.706-149.96-225.28-149.96-362.040s53.258-265.334 149.96-362.040c96.706-96.702 225.28-149.96 362.040-149.96s265.334 53.258 362.040 149.96c96.702 96.706 149.96 225.28 149.96 362.040s-53.258 265.334-149.96 362.040zM896 448c0-82.814-26.354-159.588-71.112-222.38l-535.266 535.268c62.792 44.758 139.564 71.112 222.378 71.112 211.738 0 384-172.262 384-384zM128 448c0 82.814 26.354 159.586 71.112 222.378l535.27-535.268c-62.794-44.756-139.568-71.11-222.382-71.11-211.738 0-384 172.262-384 384z" />
<glyph unicode="&#xea0f;" glyph-name="cross" d="M1014.662 137.34c-0.004 0.004-0.008 0.008-0.012 0.010l-310.644 310.65 310.644 310.65c0.004 0.004 0.008 0.006 0.012 0.010 3.344 3.346 5.762 7.254 7.312 11.416 4.246 11.376 1.824 24.682-7.324 33.83l-146.746 146.746c-9.148 9.146-22.45 11.566-33.828 7.32-4.16-1.55-8.070-3.968-11.418-7.31 0-0.004-0.004-0.006-0.008-0.010l-310.648-310.652-310.648 310.65c-0.004 0.004-0.006 0.006-0.010 0.010-3.346 3.342-7.254 5.76-11.414 7.31-11.38 4.248-24.682 1.826-33.83-7.32l-146.748-146.748c-9.148-9.148-11.568-22.452-7.322-33.828 1.552-4.16 3.97-8.072 7.312-11.416 0.004-0.002 0.006-0.006 0.010-0.010l310.65-310.648-310.65-310.652c-0.002-0.004-0.006-0.006-0.008-0.010-3.342-3.346-5.76-7.254-7.314-11.414-4.248-11.376-1.826-24.682 7.322-33.83l146.748-146.746c9.15-9.148 22.452-11.568 33.83-7.322 4.16 1.552 8.070 3.97 11.416 7.312 0.002 0.004 0.006 0.006 0.010 0.010l310.648 310.65 310.648-310.65c0.004-0.002 0.008-0.006 0.012-0.008 3.348-3.344 7.254-5.762 11.414-7.314 11.378-4.246 24.684-1.826 33.828 7.322l146.746 146.748c9.148 9.148 11.57 22.454 7.324 33.83-1.552 4.16-3.97 8.068-7.314 11.414z" />
<glyph unicode="&#xea10;" glyph-name="checkmark" d="M864 832l-480-480-224 224-160-160 384-384 640 640z" />
<glyph unicode="&#xea11;" glyph-name="checkmark2" d="M397.434 42.304l-397.868 391.6 197.378 194.27 200.49-197.332 429.62 422.852 197.378-194.27-626.998-617.12zM107.912 433.904l289.524-284.962 518.656 510.482-89.036 87.632-429.62-422.852-200.49 197.334-89.034-87.634z" />
<glyph unicode="&#xea12;" glyph-name="spell-check" d="M128 704h128v-192h64v384c0 35.2-28.8 64-64 64h-128c-35.2 0-64-28.8-64-64v-384h64v192zM128 896h128v-128h-128v128zM960 896v64h-192c-35.202 0-64-28.8-64-64v-320c0-35.2 28.798-64 64-64h192v64h-192v320h192zM640 800v96c0 35.2-28.8 64-64 64h-192v-448h192c35.2 0 64 28.8 64 64v96c0 35.2-8.8 64-44 64 35.2 0 44 28.8 44 64zM576 576h-128v128h128v-128zM576 768h-128v128h128v-128zM832 384l-416-448-224 288 82 70 142-148 352 302z" />
<glyph unicode="&#xea13;" glyph-name="enter" d="M384 448h-320v128h320v128l192-192-192-192zM1024 960v-832l-384-192v192h-384v256h64v-192h320v576l256 128h-576v-256h-64v320z" />
<glyph unicode="&#xea14;" glyph-name="exit" d="M768 320v128h-320v128h320v128l192-192zM704 384v-256h-320v-192l-384 192v832h704v-320h-64v256h-512l256-128v-576h256v192z" />
<glyph unicode="&#xea15;" glyph-name="play2" d="M512 960c-282.77 0-512-229.23-512-512s229.23-512 512-512 512 229.23 512 512-229.23 512-512 512zM512 32c-229.75 0-416 186.25-416 416s186.25 416 416 416 416-186.25 416-416-186.25-416-416-416zM384 672l384-224-384-224z" />
<glyph unicode="&#xea16;" glyph-name="pause" d="M512 960c-282.77 0-512-229.23-512-512s229.23-512 512-512 512 229.23 512 512-229.23 512-512 512zM512 32c-229.75 0-416 186.25-416 416s186.25 416 416 416 416-186.25 416-416-186.25-416-416-416zM320 640h128v-384h-128zM576 640h128v-384h-128z" />
<glyph unicode="&#xea17;" glyph-name="stop" d="M512 960c-282.77 0-512-229.23-512-512s229.23-512 512-512 512 229.23 512 512-229.23 512-512 512zM512 32c-229.75 0-416 186.25-416 416s186.25 416 416 416 416-186.25 416-416-186.25-416-416-416zM320 640h384v-384h-384z" />
<glyph unicode="&#xea18;" glyph-name="previous" d="M512 960c-282.77 0-512-229.23-512-512s229.23-512 512-512 512 229.23 512 512-229.23 512-512 512zM512 32c-229.75 0-416 186.25-416 416s186.25 416 416 416 416-186.25 416-416-186.25-416-416-416zM448 448l256 192v-384zM320 640h128v-384h-128v384z" />
<glyph unicode="&#xea19;" glyph-name="next" d="M512 960c282.77 0 512-229.23 512-512s-229.23-512-512-512-512 229.23-512 512 229.23 512 512 512zM512 32c229.75 0 416 186.25 416 416s-186.25 416-416 416-416-186.25-416-416 186.25-416 416-416zM576 448l-256 192v-384zM704 640h-128v-384h128v384z" />
<glyph unicode="&#xea1a;" glyph-name="backward" d="M512-64c282.77 0 512 229.23 512 512s-229.23 512-512 512-512-229.23-512-512 229.23-512 512-512zM512 864c229.75 0 416-186.25 416-416s-186.25-416-416-416-416 186.25-416 416 186.25 416 416 416zM704 288l-224 160 224 160zM448 288l-224 160 224 160z" />
<glyph unicode="&#xea1b;" glyph-name="forward2" d="M512 960c-282.77 0-512-229.23-512-512s229.23-512 512-512 512 229.23 512 512-229.23 512-512 512zM512 32c-229.75 0-416 186.25-416 416s186.25 416 416 416 416-186.25 416-416-186.25-416-416-416zM320 608l224-160-224-160zM576 608l224-160-224-160z" />
<glyph unicode="&#xea1c;" glyph-name="play3" d="M192 832l640-384-640-384z" />
<glyph unicode="&#xea20;" glyph-name="forward3" d="M512 96v320l-320-320v704l320-320v320l352-352z" />
<glyph unicode="&#xea21;" glyph-name="first" d="M128 64v768h128v-352l320 320v-320l320 320v-704l-320 320v-320l-320 320v-352z" />
<glyph unicode="&#xea22;" glyph-name="last" d="M896 832v-768h-128v352l-320-320v320l-320-320v704l320-320v320l320-320v352z" />
<glyph unicode="&#xea23;" glyph-name="previous2" d="M256 64v768h128v-352l320 320v-704l-320 320v-352z" />
<glyph unicode="&#xea24;" glyph-name="next2" d="M768 832v-768h-128v352l-320-320v704l320-320v352z" />
<glyph unicode="&#xea25;" glyph-name="eject" d="M0 192h1024v-128h-1024zM512 832l512-512h-1024z" />
<glyph unicode="&#xea26;" glyph-name="volume-high" horiz-adv-x="1088" d="M890.040 37.96c-12.286 0-24.566 4.686-33.942 14.056-18.744 18.746-18.744 49.136 0 67.882 87.638 87.642 135.904 204.16 135.904 328.1 0 123.938-48.266 240.458-135.904 328.098-18.744 18.746-18.744 49.138 0 67.882s49.138 18.744 67.882 0c105.77-105.772 164.022-246.4 164.022-395.98s-58.252-290.208-164.022-395.98c-9.372-9.372-21.656-14.058-33.94-14.058zM719.53 128.47c-12.286 0-24.566 4.686-33.942 14.056-18.744 18.744-18.744 49.136 0 67.882 131.006 131.006 131.006 344.17 0 475.176-18.744 18.746-18.744 49.138 0 67.882 18.744 18.742 49.138 18.744 67.882 0 81.594-81.59 126.53-190.074 126.53-305.466 0-115.39-44.936-223.876-126.53-305.47-9.372-9.374-21.656-14.060-33.94-14.060v0zM549.020 218.98c-12.286 0-24.568 4.686-33.942 14.058-18.746 18.746-18.746 49.134 0 67.88 81.1 81.1 81.1 213.058 0 294.156-18.746 18.746-18.746 49.138 0 67.882s49.136 18.744 67.882 0c118.53-118.53 118.53-311.392 0-429.922-9.372-9.368-21.656-14.054-33.94-14.054zM416.006 0c-8.328 0-16.512 3.25-22.634 9.374l-246.626 246.626h-114.746c-17.672 0-32 14.326-32 32v320c0 17.672 14.328 32 32 32h114.746l246.626 246.628c9.154 9.154 22.916 11.89 34.874 6.936 11.958-4.952 19.754-16.622 19.754-29.564v-832c0-12.944-7.796-24.612-19.754-29.564-3.958-1.64-8.118-2.436-12.24-2.436z" />
<glyph unicode="&#xea27;" glyph-name="volume-medium" d="M719.53 128.47c-12.286 0-24.566 4.686-33.942 14.056-18.744 18.744-18.744 49.136 0 67.882 131.006 131.006 131.006 344.17 0 475.176-18.744 18.746-18.744 49.138 0 67.882 18.744 18.742 49.138 18.744 67.882 0 81.594-81.59 126.53-190.074 126.53-305.466 0-115.39-44.936-223.876-126.53-305.47-9.372-9.374-21.656-14.060-33.94-14.060v0zM549.020 218.98c-12.286 0-24.566 4.686-33.942 14.058-18.746 18.746-18.746 49.134 0 67.88 81.1 81.1 81.1 213.058 0 294.156-18.746 18.746-18.746 49.138 0 67.882s49.136 18.744 67.882 0c118.53-118.53 118.53-311.392 0-429.922-9.372-9.368-21.656-14.054-33.94-14.054zM416.006 0c-8.328 0-16.512 3.25-22.634 9.374l-246.626 246.626h-114.746c-17.672 0-32 14.326-32 32v320c0 17.672 14.328 32 32 32h114.746l246.626 246.628c9.154 9.154 22.916 11.89 34.874 6.936 11.958-4.952 19.754-16.622 19.754-29.564v-832c0-12.944-7.796-24.612-19.754-29.564-3.958-1.64-8.118-2.436-12.24-2.436z" />
<glyph unicode="&#xea28;" glyph-name="volume-low" d="M549.020 218.98c-12.286 0-24.566 4.686-33.942 14.058-18.746 18.746-18.746 49.134 0 67.88 81.1 81.1 81.1 213.058 0 294.156-18.746 18.746-18.746 49.138 0 67.882s49.136 18.744 67.882 0c118.53-118.53 118.53-311.392 0-429.922-9.372-9.368-21.656-14.054-33.94-14.054zM416.006 0c-8.328 0-16.512 3.25-22.634 9.374l-246.626 246.626h-114.746c-17.672 0-32 14.326-32 32v320c0 17.672 14.328 32 32 32h114.746l246.626 246.628c9.154 9.154 22.916 11.89 34.874 6.936 11.958-4.952 19.754-16.622 19.754-29.564v-832c0-12.944-7.796-24.612-19.754-29.564-3.958-1.64-8.118-2.436-12.24-2.436z" />
<glyph unicode="&#xea29;" glyph-name="volume-mute" d="M416.006 0c-8.328 0-16.512 3.25-22.634 9.374l-246.626 246.626h-114.746c-17.672 0-32 14.326-32 32v320c0 17.672 14.328 32 32 32h114.746l246.626 246.628c9.154 9.154 22.916 11.89 34.874 6.936 11.958-4.952 19.754-16.622 19.754-29.564v-832c0-12.944-7.796-24.612-19.754-29.564-3.958-1.64-8.118-2.436-12.24-2.436z" />
<glyph unicode="&#xea2a;" glyph-name="volume-mute2" d="M960 340.852v-84.852h-84.852l-107.148 107.148-107.148-107.148h-84.852v84.852l107.148 107.148-107.148 107.148v84.852h84.852l107.148-107.148 107.148 107.148h84.852v-84.852l-107.148-107.148 107.148-107.148zM416.006 0c-8.328 0-16.512 3.25-22.634 9.374l-246.626 246.626h-114.746c-17.672 0-32 14.326-32 32v320c0 17.672 14.328 32 32 32h114.746l246.626 246.628c9.154 9.154 22.916 11.89 34.874 6.936 11.958-4.952 19.754-16.622 19.754-29.564v-832c0-12.944-7.796-24.612-19.754-29.564-3.958-1.64-8.118-2.436-12.24-2.436z" />
<glyph unicode="&#xea2b;" glyph-name="volume-increase" d="M1024 384h-192v-192h-128v192h-192v128h192v192h128v-192h192v-128zM416.006 0c-8.328 0-16.512 3.25-22.634 9.374l-246.626 246.626h-114.746c-17.672 0-32 14.326-32 32v320c0 17.672 14.328 32 32 32h114.746l246.626 246.628c9.154 9.154 22.916 11.89 34.874 6.936 11.958-4.952 19.754-16.622 19.754-29.564v-832c0-12.944-7.796-24.612-19.754-29.564-3.958-1.64-8.118-2.436-12.24-2.436z" />
<glyph unicode="&#xea2c;" glyph-name="volume-decrease" d="M512 512h512v-128h-512v128zM416.006 0c-8.328 0-16.512 3.25-22.634 9.374l-246.626 246.626h-114.746c-17.672 0-32 14.326-32 32v320c0 17.672 14.328 32 32 32h114.746l246.626 246.628c9.154 9.154 22.916 11.89 34.874 6.936 11.958-4.952 19.754-16.622 19.754-29.564v-832c0-12.944-7.796-24.612-19.754-29.564-3.958-1.64-8.118-2.436-12.24-2.436z" />
<glyph unicode="&#xea2d;" glyph-name="loop" d="M128 640h640v-192l256 256-256 256v-192h-768v-384h128zM896 256h-640v192l-256-256 256-256v192h768v384h-128z" />
<glyph unicode="&#xea2e;" glyph-name="loop2" d="M889.68 793.68c-93.608 102.216-228.154 166.32-377.68 166.32-282.77 0-512-229.23-512-512h96c0 229.75 186.25 416 416 416 123.020 0 233.542-53.418 309.696-138.306l-149.696-149.694h352v352l-134.32-134.32zM928 448c0-229.75-186.25-416-416-416-123.020 0-233.542 53.418-309.694 138.306l149.694 149.694h-352v-352l134.32 134.32c93.608-102.216 228.154-166.32 377.68-166.32 282.77 0 512 229.23 512 512h-96z" />
<glyph unicode="&#xea32;" glyph-name="arrow-up" d="M512 928l-480-480h288v-512h384v512h288z" />
<glyph unicode="&#xea33;" glyph-name="arrow-up-right" d="M288 960l256-256-544-544 224-224 544 544 256-255.998v735.998h-736z" />
<glyph unicode="&#xea34;" glyph-name="arrow-right" d="M992 448l-480 480v-288h-512v-384h512v-288z" />
<glyph unicode="&#xea35;" glyph-name="arrow-down-right" d="M1024 672l-256-256-544 544-224-224 544-544-255.998-256h735.998v736z" />
<glyph unicode="&#xea36;" glyph-name="arrow-down" d="M512-32l480 480h-288v512h-384v-512h-288z" />
<glyph unicode="&#xea37;" glyph-name="arrow-down-left" d="M736-64l-256 256 544 544-224 224-544-544-256 255.998v-735.998h736z" />
<glyph unicode="&#xea38;" glyph-name="arrow-left" d="M32 448l480-480v288h512v384h-512v288z" />
<glyph unicode="&#xeae3;" glyph-name="libreoffice" d="M534.626 937.372c-12.444 12.444-37.026 22.628-54.626 22.628h-384c-17.6 0-32-14.4-32-32v-960c0-17.6 14.4-32 32-32h768c17.6 0 32 14.4 32 32v576c0 17.6-10.182 42.182-22.626 54.626l-338.748 338.746zM832 0h-704v896h351.158c2.916-0.48 8.408-2.754 10.81-4.478l337.556-337.554c1.722-2.402 3.996-7.894 4.476-10.81v-543.158zM864 960h-192c-17.6 0-21.818-10.182-9.374-22.626l210.746-210.746c12.446-12.446 22.628-8.228 22.628 9.372v192c0 17.6-14.4 32-32 32z" />
</font>
</defs>
</svg>
