<?xml version="1.0" standalone="no"?>
<!DOCTYPE svg PUBLIC "-//W3C//DTD SVG 20010904//EN"
 "http://www.w3.org/TR/2001/REC-SVG-20010904/DTD/svg10.dtd">
<svg version="1.0" xmlns="http://www.w3.org/2000/svg"
 width="342.000000pt" height="342.000000pt" viewBox="0 0 342.000000 342.000000"
 preserveAspectRatio="xMidYMid meet">
<metadata>
Created by potrace 1.11, written by Peter Selinger 2001-2013
</metadata>
<g transform="translate(0.000000,342.000000) scale(0.100000,-0.100000)"
fill="#000000" stroke="none">
<path d="M885 3141 c-3 -2 -31 -5 -62 -7 -64 -3 -111 -9 -223 -29 -48 -8 -66
-12 -102 -21 -13 -3 -34 -7 -48 -10 -61 -13 -219 -70 -263 -96 -26 -15 -50
-28 -52 -28 -7 0 -105 -71 -105 -76 0 -2 15 5 32 16 102 61 270 135 333 145
11 2 45 10 76 18 31 7 63 13 72 11 10 -1 17 1 17 4 0 4 12 8 28 8 15 1 56 5
92 10 36 4 95 8 132 8 38 1 68 4 68 8 0 4 12 3 28 -1 15 -5 37 -4 50 0 13 5
22 5 22 -2 0 -6 6 -6 19 0 10 6 21 8 23 5 3 -2 51 -7 106 -9 56 -3 114 -7 129
-9 16 -3 48 -7 73 -10 25 -3 56 -8 70 -11 14 -3 41 -8 60 -11 230 -41 568
-187 740 -321 165 -128 269 -223 316 -290 10 -14 27 -34 37 -45 9 -10 17 -22
17 -27 0 -5 7 -14 15 -21 8 -7 21 -24 28 -39 8 -14 26 -48 41 -76 65 -118 94
-222 95 -335 1 -132 -94 -226 -249 -248 -75 -10 -306 -2 -328 12 -12 7 -41
-19 -51 -47 -9 -23 -6 -32 20 -61 58 -67 179 -131 294 -156 65 -15 176 -15
202 -2 11 6 23 9 25 6 3 -2 32 9 65 25 85 43 197 171 177 203 -5 7 -3 8 6 3
10 -6 12 -4 7 8 -3 10 -2 17 3 17 5 0 9 8 9 18 0 9 5 42 12 72 85 402 -392
975 -1029 1234 -35 14 -72 26 -82 26 -10 0 -21 4 -24 9 -3 5 -23 12 -43 17
-49 10 -43 8 -83 22 -19 6 -46 13 -60 16 -14 2 -59 11 -100 20 -41 8 -91 18
-110 20 -19 3 -55 8 -80 12 -25 4 -71 8 -102 8 -32 1 -58 3 -58 6 0 7 -279 8
-285 1z"/>
<path d="M1228 2945 c-2 -1 -30 -5 -63 -9 -403 -42 -762 -329 -875 -700 -19
-61 -24 -83 -37 -166 -9 -57 -9 -299 0 -365 8 -56 45 -203 55 -219 3 -6 7 -15
7 -21 4 -33 132 -294 160 -325 8 -9 15 -20 15 -23 0 -6 6 -14 57 -75 13 -15
42 -49 65 -77 52 -62 188 -185 294 -266 171 -132 491 -328 508 -312 3 4 6 1 6
-5 0 -7 7 -12 15 -12 8 0 23 -4 33 -10 29 -17 122 -48 122 -42 -1 4 -42 27
-93 51 -79 38 -139 73 -157 91 -3 3 -23 18 -45 35 -74 54 -248 222 -337 323
-41 47 -156 200 -208 277 -67 98 -180 376 -215 527 -33 146 -47 309 -32 383 4
17 9 46 12 65 7 46 25 102 38 118 5 6 6 12 2 12 -11 0 64 132 86 151 10 9 16
18 14 21 -3 3 6 13 20 22 14 9 23 22 19 28 -4 6 -3 8 3 5 11 -7 40 21 36 32
-2 3 1 6 7 6 5 0 27 15 47 33 53 46 61 52 69 52 4 0 15 6 23 14 39 34 172 96
266 122 77 22 199 33 335 30 85 -2 166 -7 180 -10 14 -3 41 -9 60 -12 72 -12
208 -57 288 -96 91 -44 217 -130 266 -182 81 -86 121 -136 153 -191 24 -42 88
-178 95 -202 31 -113 56 -134 91 -76 44 76 30 196 -40 323 -150 274 -421 485
-771 600 -111 36 -147 45 -217 56 -16 2 -46 7 -65 10 -34 6 -287 14 -292 9z"/>
<path d="M1445 2645 c-163 -42 -301 -130 -392 -252 -15 -21 -36 -46 -45 -57
-41 -45 -92 -174 -113 -286 -23 -118 10 -340 75 -509 42 -107 138 -285 187
-346 5 -5 20 -26 33 -45 43 -61 71 -92 195 -215 130 -130 228 -208 378 -304
84 -53 285 -161 301 -161 4 0 25 -8 49 -19 120 -53 300 -99 462 -117 54 -6
263 -6 300 1 17 3 45 7 63 10 119 16 290 89 379 161 65 53 73 63 73 91 l0 26
-20 -23 c-11 -13 -20 -20 -20 -17 0 3 -27 -7 -59 -23 -85 -42 -161 -61 -274
-66 -201 -9 -449 56 -710 187 -69 35 -261 152 -277 169 -3 3 -38 32 -79 64
-123 98 -279 259 -401 413 -59 74 -199 339 -203 382 -1 11 -4 21 -8 21 -6 0
-14 26 -26 85 -2 11 -8 36 -13 55 -34 126 -30 277 10 384 53 140 216 218 454
217 111 0 135 -2 232 -16 48 -7 52 -6 59 15 9 27 -12 51 -79 90 -153 87 -382
124 -531 85z"/>
<path d="M2700 2614 c0 -3 33 -41 72 -85 40 -44 99 -116 131 -161 57 -80 142
-228 149 -258 2 -8 7 -18 11 -21 5 -3 10 -15 12 -25 2 -10 4 -20 5 -21 2 -2 3
-6 4 -10 1 -5 4 -12 7 -18 4 -5 10 -25 14 -43 4 -20 11 -30 18 -26 9 5 9 4 1
-5 -9 -9 -8 -24 2 -58 8 -26 12 -49 9 -51 -3 -3 0 -11 6 -19 8 -9 8 -13 0 -13
-6 0 -8 -8 -3 -22 19 -60 -21 -240 -64 -282 -8 -8 -14 -19 -14 -24 0 -18 -97
-100 -149 -126 -28 -15 -51 -24 -51 -21 0 3 -9 1 -19 -5 -34 -17 -93 -24 -206
-24 -121 1 -163 6 -245 31 -30 9 -57 17 -60 18 -59 14 -189 80 -273 138 -230
159 -375 375 -448 665 -12 48 -26 90 -31 93 -50 31 -152 -122 -163 -243 -5
-55 -2 -85 20 -186 42 -186 270 -474 500 -633 28 -19 52 -37 55 -40 10 -11
129 -78 201 -112 155 -73 283 -105 449 -111 159 -6 354 64 441 158 67 73 79
88 79 102 0 7 4 14 9 14 10 0 27 39 23 53 -1 4 3 7 8 7 6 0 10 8 10 18 0 10 3
22 7 26 4 3 8 17 10 29 2 12 6 29 9 37 23 55 22 264 0 370 -3 14 -8 34 -10 45
-23 109 -174 441 -207 453 -5 2 -9 8 -9 14 0 16 -86 133 -159 218 -71 82 -151
163 -151 154z"/>
<path d="M266 2267 c-17 -45 -31 -86 -32 -92 -2 -5 -5 -19 -8 -30 -34 -126
-39 -167 -40 -305 -1 -106 5 -183 18 -241 3 -13 8 -37 11 -54 7 -37 13 -60 15
-60 1 0 3 -11 6 -24 8 -44 65 -176 106 -246 174 -297 519 -605 900 -805 166
-87 326 -147 383 -144 58 3 68 4 63 9 -3 3 -18 8 -34 11 -54 9 -147 35 -188
52 -326 135 -794 500 -986 771 -79 110 -187 330 -205 416 -1 6 -7 28 -13 50
-6 22 -13 54 -16 70 -3 17 -8 41 -11 55 -10 38 -12 267 -3 330 4 30 10 73 13
95 6 41 49 198 60 215 3 5 3 10 -2 10 -4 0 -21 -37 -37 -83z"/>
</g>
</svg>
